<svg width="146" height="24" viewBox="0 0 146 24" fill="none" xmlns="http://www.w3.org/2000/svg">
<path d="M0.875 0.453125V23H5.59375V15.8906H10.0469C14.7969 15.8906 18.0938 12.7969 18.0938 8.17188C18.0938 3.53125 14.9062 0.453125 10.2812 0.453125H0.875ZM5.59375 4.1875H9.03125C11.7344 4.1875 13.2969 5.625 13.2969 8.1875C13.2969 10.7656 11.7188 12.2031 9.01562 12.2031H5.59375V4.1875ZM25.5938 4.14062H29.6875C32.0312 4.14062 33.5 5.54688 33.5 7.73438C33.5 9.96875 32.1094 11.3281 29.7344 11.3281H25.5938V4.14062ZM25.5938 14.75H29.4531L33.6562 23H39L34.25 14.0469C36.8438 13.0312 38.3438 10.5312 38.3438 7.64062C38.3438 3.1875 35.375 0.453125 30.1875 0.453125H20.875V23H25.5938V14.75ZM51.6094 0.0625C44.9219 0.0625 40.7344 4.54688 40.7344 11.7344C40.7344 18.9062 44.9219 23.3906 51.6094 23.3906C58.2812 23.3906 62.4844 18.9062 62.4844 11.7344C62.4844 4.54688 58.2812 0.0625 51.6094 0.0625ZM51.6094 4C55.2969 4 57.6562 7 57.6562 11.7344C57.6562 16.4531 55.2969 19.4375 51.6094 19.4375C47.9062 19.4375 45.5469 16.4531 45.5469 11.7344C45.5469 7 47.9219 4 51.6094 4Z" fill="black"/>
<path d="M64.1406 16.3594C64.1406 20.6719 67.1562 23.4688 71.7656 23.4688C76.5938 23.4688 79.4688 20.7344 79.4688 15.9375V0.453125H74.75V15.9062C74.75 18.1719 73.6875 19.3906 71.7188 19.3906C69.9375 19.3906 68.75 18.1875 68.7188 16.3594H64.1406ZM93.5781 0.0625C86.8906 0.0625 82.7031 4.54688 82.7031 11.7344C82.7031 18.9062 86.8906 23.3906 93.5781 23.3906C100.25 23.3906 104.453 18.9062 104.453 11.7344C104.453 4.54688 100.25 0.0625 93.5781 0.0625ZM93.5781 4C97.2656 4 99.625 7 99.625 11.7344C99.625 16.4531 97.2656 19.4375 93.5781 19.4375C89.875 19.4375 87.5156 16.4531 87.5156 11.7344C87.5156 7 89.8906 4 93.5781 4ZM117.625 23C122.438 23 125.422 20.5156 125.422 16.5469C125.422 13.5625 123.172 11.3281 120.109 11.0938V10.9688C122.5 10.6094 124.344 8.54688 124.344 6.07812C124.344 2.625 121.688 0.453125 117.453 0.453125H107.5V23H117.625ZM112.219 3.96875H116.234C118.438 3.96875 119.703 5 119.703 6.8125C119.703 8.71875 118.266 9.82812 115.75 9.82812H112.219V3.96875ZM112.219 19.4844V12.9375H116.312C119.094 12.9375 120.609 14.0625 120.609 16.1719C120.609 18.3281 119.141 19.4844 116.422 19.4844H112.219ZM127.281 16.5781C127.422 20.8125 130.875 23.3906 136.297 23.3906C141.891 23.3906 145.438 20.625 145.438 16.25C145.438 12.8125 143.469 10.875 138.953 9.90625L136.219 9.32812C133.625 8.73438 132.531 7.95312 132.531 6.5625C132.531 4.89062 134.094 3.78125 136.422 3.78125C138.781 3.78125 140.453 4.9375 140.609 6.84375H145.031C144.953 2.76562 141.656 0.0625 136.406 0.0625C131.375 0.0625 127.781 2.8125 127.781 6.96875C127.781 10.2656 129.828 12.375 133.984 13.2656L136.922 13.9062C139.641 14.5156 140.719 15.3281 140.719 16.7969C140.719 18.4531 139 19.6562 136.484 19.6562C133.984 19.6562 132.047 18.4375 131.828 16.5781H127.281Z" fill="#E56A6B"/>
</svg>
