<svg width="134" height="38" fill="none" xmlns="http://www.w3.org/2000/svg"><path d="M74.645 34.19a2.177 2.177 0 01-2.249-2.283 1.986 1.986 0 01.635-1.532 2.167 2.167 0 011.614-.626c.282-.028.565.036.807.182l-.263.534a1.152 1.152 0 00-.544-.09c-.43.013-.843.173-1.17.453a1.64 1.64 0 00-.444 1.079 1.522 1.522 0 001.614 1.613c.09 0 .272-.081.363-.081v-1.133h-.726v-.726h1.442v2.339l-.272.09a2.54 2.54 0 01-.807.182zm-3.418-4.404v3.145l-1.886-3.145h-.626v4.405h.626v-3.145l1.886 3.145h.634v-4.405h-.634zm-3.238 0h-.625v4.405h.644l-.019-4.405zm-3.772 0v.625h.907v3.78h.716v-3.78h.907v-.625h-2.53zm-1.26 2.429c.242-.098.457-.253.626-.453.113-.222.175-.467.18-.716a1.24 1.24 0 00-1.26-1.26H60.89v4.405h.626v-1.885h.807l.907 1.885h.807l-1.08-1.976zm-1.442-.544v-1.26h.989c.18 0 .272.09.453.181s.181.272.181.454a.67.67 0 01-.181.444c-.181.09-.272.181-.453.181h-.989zm-3.328 2.52a2.15 2.15 0 01-1.614-.635 2.555 2.555 0 01-.635-1.613c.02-.57.245-1.115.635-1.532a2.167 2.167 0 011.614-.625 1.868 1.868 0 011.533.625 2.095 2.095 0 01.716 1.496 2.257 2.257 0 01-.716 1.613 1.813 1.813 0 01-1.533.67zm0-3.78a1.497 1.497 0 00-1.079.453 1.324 1.324 0 00-.444 1.043 1.505 1.505 0 00.462 1.205 1.487 1.487 0 001.08.444 1.531 1.531 0 001.514-1.65 1.305 1.305 0 00-.454-1.078 1.478 1.478 0 00-1.079-.417zm-4.76 3.78h-.635v-4.405h1.614a1.16 1.16 0 01.907.362c.215.256.342.573.363.907a1.613 1.613 0 01-.363.906 1.161 1.161 0 01-.907.363h-.98v1.867zm0-2.52h.98c.18 0 .262-.09.443-.181a.653.653 0 00.091-.444.816.816 0 00-.09-.454c-.182-.09-.264-.18-.445-.18h-.98v1.26zm-3.419-1.885v4.405h2.25v-.716h-1.533v-1.17h1.17v-.634h-1.17v-1.26h1.532v-.625h-2.249zm-1.35 2.429c.202-.123.385-.276.543-.453a.987.987 0 00.172-.716 1.16 1.16 0 00-.353-.907 1.043 1.043 0 00-.907-.362H46.5v4.405h.716v-1.876h.726l1.024 1.885h.717l-1.025-1.976zm-1.443-.544v-1.26h.907a.69.69 0 01.444.181c.091.182.182.272.182.454a.67.67 0 01-.181.444.69.69 0 01-.445.181h-.907zm-2.874 0v-.353h-.626v.353h-.19a.69.69 0 01-.363-.181.48.48 0 01-.181-.444.5.5 0 01.181-.454.69.69 0 01.363-.18h.535v-.626h-.535a.961.961 0 00-.807.362 1.222 1.222 0 00-.454.907c.043.297.17.577.363.806-.193.103-.35.26-.453.454a1.288 1.288 0 00-.09.625.971.971 0 00.362.807 1.241 1.241 0 00.907.453h.988v-1.894h.181v-.635h-.181zm-.626 1.813h-.362c-.182 0-.363 0-.454-.181a.67.67 0 01-.172-.363c0-.167.062-.328.172-.453a.735.735 0 01.454-.172h.362v1.169zm57.19-5.847a1.996 1.996 0 01-1.532-.625 2.202 2.202 0 01-.626-1.622 2.147 2.147 0 01.626-1.532 1.995 1.995 0 011.532-.626 1.48 1.48 0 01.907.181l-.272.626a1.28 1.28 0 00-.626-.181 1.633 1.633 0 00-1.079.453c-.263.301-.422.68-.453 1.079.013.43.173.842.453 1.169.291.279.676.44 1.079.453a.768.768 0 00.444-.09v-1.179h-.707v-.634h1.351v2.266l-.181.09c-.28.152-.601.209-.916.163v.01zm-3.328-4.405v3.146l-1.886-3.146h-.725v4.405h.725v-3.154l1.814 3.145h.716v-4.405l-.644.01zm-3.237 0h-.725v4.405h.725v-4.405zm-1.977 3.78a1.469 1.469 0 01-1.079-.453 1.486 1.486 0 01-.453-1.17 1.414 1.414 0 01.453-1.078 1.47 1.47 0 011.08-.453c.248.007.493.069.716.181v-.716a1.978 1.978 0 00-.717-.09 2.197 2.197 0 00-1.623.625 2.555 2.555 0 00-.625 1.532c.015.596.236 1.17.625 1.622a2.194 2.194 0 001.623.625c.243.014.486-.016.717-.09v-.716a1.706 1.706 0 01-.717.172v.009zm-3.418-1.36c.216-.1.401-.256.535-.453a.954.954 0 00.181-.716 1.133 1.133 0 00-.363-.906c-.246-.23-.57-.36-.906-.363h-1.515v4.405h.626v-1.876h.716l.998 1.885h.716l-.988-1.976zm-1.442-.544V23.94h.907c.181 0 .362 0 .453.181a.471.471 0 01.181.363.653.653 0 01-.18.444.689.689 0 01-.454.181h-.907zm-2.965 2.52a1.414 1.414 0 01-1.08-.453 1.467 1.467 0 01-.453-1.079v-2.873h.635v2.873a.843.843 0 00.263.635.98.98 0 00.635.272.809.809 0 00.626-.272.825.825 0 00.272-.635v-2.873h.707v2.873a1.459 1.459 0 01-.444 1.08 1.496 1.496 0 01-1.161.452zm-4.316 0a1.995 1.995 0 01-1.533-.625 2.204 2.204 0 01-.625-1.622 2.147 2.147 0 01.625-1.532 1.995 1.995 0 011.533-.626 2.168 2.168 0 011.614.626 2.122 2.122 0 01.68 1.532 2.155 2.155 0 01-2.249 2.247h-.045zm0-3.78a1.65 1.65 0 00-1.08.454c-.263.301-.422.68-.453 1.079.014.43.174.842.454 1.169a1.65 1.65 0 001.079.453c.43-.015.842-.174 1.17-.453.277-.328.434-.74.444-1.17a1.812 1.812 0 00-.445-1.078 1.905 1.905 0 00-1.17-.453zm-3.954 3.78h-.1a2.645 2.645 0 01-.816-.18 1.422 1.422 0 01-.535-.717l.626-.181c0 .09.181.272.272.362.153.022.304.052.453.091.223.008.442-.056.626-.181a.5.5 0 00.272-.453c0-.273-.272-.445-.907-.626-.906-.272-1.35-.725-1.35-1.35a1.134 1.134 0 01.534-.989c.306-.152.649-.215.989-.18.433-.006.852.157 1.17.452l-.536.445a.708.708 0 00-.634-.272 1.135 1.135 0 00-.535.09.834.834 0 00-.363.544c0 .272.363.444.907.625.436.114.837.331 1.17.635.145.209.209.463.18.716a1.258 1.258 0 01-.444.907c-.294.178-.634.27-.979.262zm-3.962-4.405v4.405h2.158v-.716H72.94v-1.169h1.17v-.634h-1.17v-1.17h1.524v-.716h-2.158zm-1.433 2.43a.908.908 0 00.535-.454c.181-.193.28-.45.272-.716a1.559 1.559 0 00-.363-.906 1.587 1.587 0 00-.906-.363h-1.615v4.405h.635v-1.876h.716l.989 1.885h.725l-.988-1.976zm-1.442-.544v-1.17h.989c.18 0 .272 0 .362.181.09.182.173.182.173.363s0 .363-.173.444a.473.473 0 01-.362.181h-.989zm-4.144 2.52h-.09a2.646 2.646 0 01-.817-.182 1.423 1.423 0 01-.534-.716l.625-.181a.488.488 0 00.272.362c.182 0 .272.091.454.091.22-.007.435-.069.625-.181a.5.5 0 00.272-.453c0-.273-.272-.445-.906-.626-.907-.272-1.352-.725-1.352-1.35a1.131 1.131 0 01.544-.989c.309-.154.655-.216.998-.18.427.012.837.172 1.16.452l-.534.445a.816.816 0 00-.626-.272 1.152 1.152 0 00-.544.09.617.617 0 00-.363.544c0 .272.272.444.907.625.432.116.83.333 1.16.635.104.226.166.468.182.716a1.262 1.262 0 01-.444.907c-.298.18-.64.271-.989.262zm-3.237 0h-.09a2.645 2.645 0 01-.817-.182 1.422 1.422 0 01-.535-.716l.626-.181c0 .09.181.272.272.362.153.022.304.052.453.091.223.008.442-.056.626-.181a.5.5 0 00.272-.453c0-.273-.272-.445-.907-.626-.906-.272-1.35-.725-1.35-1.35a1.132 1.132 0 01.534-.989c.309-.154.655-.216.998-.18.43-.004.846.158 1.16.452l-.535.445a.816.816 0 00-.625-.272 1.152 1.152 0 00-.544.09.834.834 0 00-.363.544c0 .272.363.444.907.625.432.116.83.333 1.16.635.148.211.212.47.182.725a1.26 1.26 0 01-.445.907c-.293.174-.629.262-.97.253h-.009zm-4.017-4.406v4.405h2.249v-.716h-1.55v-1.169h1.17v-.634h-1.17v-1.17h1.523v-.716h-2.222zm-1.342 0v3.146l-1.813-3.146h-.717v4.405h.626v-3.145l1.895 3.145h.716v-4.405h-.707zm-3.237 0h-.635v4.405h.635v-4.405zm-2.675 4.405h-.09a2.595 2.595 0 01-.808-.18 1.386 1.386 0 01-.544-.717l.635-.181c0 .09.181.272.272.362.15.022.298.053.444.091a1.06 1.06 0 00.635-.181.508.508 0 00.263-.453c0-.273-.263-.445-.907-.626-.907-.272-1.35-.725-1.35-1.35a1.125 1.125 0 01.543-.989 1.76 1.76 0 01.989-.18c.433-.004.851.158 1.17.452l-.545.445a.788.788 0 00-.625-.272 1.152 1.152 0 00-.544.09.907.907 0 00-.354.544c0 .272.354.444.907.625.434.118.834.335 1.17.635.145.209.209.463.18.716a1.242 1.242 0 01-.453.907c-.297.18-.64.271-.988.262zm-3.51 0a1.533 1.533 0 01-1.613-1.532v-2.873h.716v2.873a.824.824 0 00.272.635.698.698 0 00.626.272.98.98 0 00.635-.272c.113-.193.175-.411.18-.635v-2.873h.717v2.873a1.468 1.468 0 01-.453 1.08 1.404 1.404 0 01-1.043.452h-.036zm-5.032 0v-4.405h1.351c.333.024.65.151.907.363a1.133 1.133 0 01.363.906 1.087 1.087 0 01-.272.807.843.843 0 01.354.453c.113.19.175.405.18.626a1.16 1.16 0 01-.353.906 1.614 1.614 0 01-.907.363l-1.623-.019zm.626-.716h1.025a.498.498 0 00.453-.181.47.47 0 00.181-.363.652.652 0 00-.181-.444c-.181-.09-.272-.181-.453-.181h-.989l-.036 1.17zm0-1.813h.725a.671.671 0 00.445-.18.652.652 0 00.181-.445.47.47 0 00-.181-.363c-.091-.18-.263-.18-.445-.18h-.725v1.168z" fill="#6FC99C"/><path d="M44.34 10.551h2.966a1.623 1.623 0 001.26-.543 1.523 1.523 0 00.544-1.342 1.631 1.631 0 00-.544-1.35 1.623 1.623 0 00-1.26-.544h-2.965v3.78zm0 7.732h-2.067V4.714h5.033a4.153 4.153 0 012.793 1.17 4.042 4.042 0 011.079 2.791 3.861 3.861 0 01-2.353 3.66c-.48.201-.998.3-1.519.292h-2.965v5.656zm10.52-7.732v-3.78h2.883a1.814 1.814 0 011.342.545c.348.363.543.847.544 1.35a1.81 1.81 0 01-1.886 1.885h-2.884zm4.533 1.704a3.718 3.718 0 001.714-1.432c.406-.643.6-1.398.553-2.157a3.752 3.752 0 00-1.17-2.792 3.945 3.945 0 00-2.747-1.16h-4.951v13.597h2.067v-5.693h2.34l2.965 5.693h2.249l-3.02-6.056zm10.428-5.574a4.535 4.535 0 00-3.446 1.441 4.72 4.72 0 00-1.442 3.418 4.875 4.875 0 001.442 3.417 4.536 4.536 0 003.446 1.432 4.408 4.408 0 003.41-1.432 4.532 4.532 0 001.441-3.418 4.423 4.423 0 00-1.442-3.417 4.416 4.416 0 00-3.409-1.441zm0 11.784a6.66 6.66 0 01-4.86-2.067 6.635 6.635 0 01-2.068-4.85A7.023 7.023 0 0164.961 6.6a6.611 6.611 0 014.86-1.985 6.812 6.812 0 014.942 1.976 6.933 6.933 0 011.95 4.95 6.551 6.551 0 01-1.977 4.849 6.856 6.856 0 01-4.915 2.067v.009zm12.404 0h-.271a5.29 5.29 0 01-2.422-.716 3.626 3.626 0 01-1.813-2.067l1.977-.716a1.811 1.811 0 00.906 1.078c.453.203.938.322 1.433.354a2.876 2.876 0 001.977-.625c.386-.28.647-.7.725-1.17 0-.906-.906-1.532-2.793-2.066-2.874-.807-4.225-2.248-4.134-4.134a3.398 3.398 0 011.713-3.054 4.807 4.807 0 013.056-.726 4.89 4.89 0 013.5 1.532l-1.541 1.342a2.72 2.72 0 00-2.022-.816 3.075 3.075 0 00-1.623.272 1.813 1.813 0 00-1.098 1.532c0 .807.907 1.523 2.793 2.066a6.602 6.602 0 013.5 2.067c.466.59.72 1.316.726 2.067a3.507 3.507 0 01-1.578 2.719 4.535 4.535 0 01-3.038 1.052l.028.009zm8.27-7.905h2.974a1.606 1.606 0 001.252-.543 1.596 1.596 0 00.635-1.342 1.723 1.723 0 00-.635-1.35 1.605 1.605 0 00-1.252-.544h-3.001l.027 3.78zm0 7.732h-2.094V4.714h5.041a4.108 4.108 0 012.784 1.17 4.132 4.132 0 011.17 2.791 3.942 3.942 0 01-1.17 2.783 3.738 3.738 0 01-2.784 1.17h-2.974l.027 5.664zm8.542-13.596V18.31h6.928v-2.094h-4.852v-3.69h3.773v-2.066h-3.773V6.77h4.852V4.715l-6.928-.018zm21.762 0v2.076h2.793V18.31h2.068V6.773h2.874V4.714l-7.735-.018zm-.535 10.786l-.181.363a6.705 6.705 0 01-2.521 1.976 7.122 7.122 0 01-3.328.716 6.882 6.882 0 01-5.44-2.33 7.076 7.076 0 01-1.796-4.758 6.401 6.401 0 012.086-4.922 7.062 7.062 0 015.169-2.003 5.52 5.52 0 011.713.181 4.846 4.846 0 011.614.544 6.87 6.87 0 012.521 2.067l.182.353-1.624 1.26-.263-.354a4.94 4.94 0 00-1.813-1.531 5.117 5.117 0 00-2.34-.454 5.27 5.27 0 00-2.602.635 5.665 5.665 0 00-1.814 1.813 4.958 4.958 0 00-.634 2.52c-.02.677.103 1.35.362 1.976.22.614.588 1.165 1.07 1.604.201.224.445.406.717.535.284.185.588.337.907.453.659.25 1.361.37 2.067.354a5.088 5.088 0 002.249-.445 5.748 5.748 0 001.813-1.44l.263-.273 1.623 1.16zM107.733 3.808a.68.68 0 01.453.09c.182.09.272.272.363.363.102.161.164.345.181.535-.036.16-.097.312-.181.453a1.36 1.36 0 01-.363.353.68.68 0 01-.453.091.796.796 0 01-.444-.09 1.332 1.332 0 01-.363-.354.984.984 0 01-.091-.453 1.092 1.092 0 01.091-.535c.091-.09.181-.272.363-.363a.796.796 0 01.444-.09zm0 .18a.537.537 0 00-.354.092c-.181.09-.272.18-.272.271-.09.173-.181.263-.181.445 0 .18.091.272.091.362.103.112.226.204.362.272a.58.58 0 00.354.082.906.906 0 00.453-.082l.272-.272a.542.542 0 00.091-.362.771.771 0 00-.091-.445 1.25 1.25 0 00-.362-.271c-.091-.091-.191-.091-.363-.091zm-.354 1.26v-.987h.526c.091.09.091.09.182.09v.173c0 .09-.001.181-.091.181-.091 0-.091.09-.182.09l.091.091.182.182.09.18h-.181l-.091-.09a1.137 1.137 0 00-.181-.272h-.263v.363h-.082zm.091-.543h.435v-.272h-.444l.009.272z" fill="#000"/><path d="M32.652 4.705h.626v29.486h-.626V4.705z" fill="#3B3F32"/><path d="M11.788 6.418l-10.61 5.439 1.887.942 8.723-4.314 8.814 4.314 1.886-.988-10.7-5.393zm-.807 12.69L0 12.981v13.206l10.972 6.119.009-13.198zm1.813 13.125l10.882-6.028V12.981l-10.881 6.018v13.234z" fill="#6FC99C"/></svg>