<svg width="302" height="68" viewBox="0 0 302 68" fill="none" xmlns="http://www.w3.org/2000/svg">
<path d="M149.5 0.999944C69.5 0.599944 16.3333 6.16667 0 9V57C0 63.4 6.5 67 10 67C100.333 67.1667 283 67.4 291 67C299 66.6 301.667 60.1667 302 57V9C284.667 6.5 229.5 1.39994 149.5 0.999944Z" fill="url(#paint0_linear)"/>
<path d="M163.417 39.855V43.73C163.418 44.0898 163.344 44.4458 163.2 44.7755C163.056 45.1051 162.845 45.4009 162.58 45.6441C162.315 45.8873 162.002 46.0725 161.661 46.1877C161.32 46.303 160.959 46.3458 160.601 46.3134C156.626 45.8815 152.808 44.5233 149.454 42.348C146.333 40.3648 143.687 37.7188 141.704 34.598C139.521 31.2283 138.162 27.3917 137.738 23.3992C137.706 23.042 137.748 22.682 137.863 22.3421C137.977 22.0023 138.161 21.6899 138.403 21.4251C138.645 21.1602 138.939 20.9485 139.267 20.8036C139.595 20.6587 139.95 20.5837 140.309 20.5834H144.184C144.811 20.5772 145.418 20.7992 145.894 21.2079C146.369 21.6167 146.679 22.1843 146.767 22.805C146.931 24.0451 147.234 25.2627 147.671 26.4346C147.845 26.8969 147.883 27.3994 147.78 27.8824C147.677 28.3655 147.437 28.8089 147.09 29.16L145.45 30.8005C147.288 34.0342 149.966 36.7117 153.2 38.5505L154.84 36.91C155.191 36.5628 155.635 36.3234 156.118 36.2204C156.601 36.1174 157.103 36.155 157.565 36.3288C158.737 36.7661 159.955 37.0694 161.195 37.233C161.822 37.3215 162.395 37.6375 162.805 38.121C163.215 38.6044 163.432 39.2216 163.417 39.855Z" fill="#21742E"/>
<defs>
<linearGradient id="paint0_linear" x1="151" y1="0.979492" x2="151" y2="67.2209" gradientUnits="userSpaceOnUse">
<stop stop-color="#ADF251"/>
<stop offset="1" stop-color="#CEFA93"/>
</linearGradient>
</defs>
</svg>
