<svg width="150" height="67" viewBox="0 0 150 67" fill="none" xmlns="http://www.w3.org/2000/svg">
<path fill-rule="evenodd" clip-rule="evenodd" d="M149.5 0.0409596C69.5 -0.35904 16.3333 5.20768 0 8.04102V56.041C0 62.441 6.5 66.041 10 66.041C47.0934 66.1095 99.7556 66.1891 149.5 66.2316V0.0409596Z" fill="url(#paint0_linear)"/>
<path d="M94.6888 41.2923V45.1673C94.6903 45.527 94.6166 45.8831 94.4725 46.2127C94.3284 46.5423 94.117 46.8382 93.8519 47.0814C93.5868 47.3246 93.2739 47.5097 92.9331 47.625C92.5923 47.7402 92.2313 47.783 91.873 47.7506C87.8983 47.3188 84.0804 45.9606 80.7259 43.7852C77.605 41.8021 74.959 39.1561 72.9759 36.0352C70.793 32.6655 69.4345 28.829 69.0105 24.8365C68.9782 24.4793 69.0207 24.1193 69.1351 23.7794C69.2496 23.4395 69.4336 23.1272 69.6754 22.8623C69.9172 22.5974 70.2115 22.3858 70.5395 22.2409C70.8676 22.096 71.2223 22.021 71.5809 22.0206H75.4559C76.0828 22.0145 76.6905 22.2364 77.1658 22.6452C77.6411 23.0539 77.9515 23.6216 78.0392 24.2423C78.2028 25.4824 78.5061 26.7 78.9434 27.8719C79.1172 28.3342 79.1548 28.8366 79.0518 29.3197C78.9488 29.8027 78.7094 30.2461 78.3622 30.5973L76.7217 32.2377C78.5605 35.4715 81.238 38.149 84.4717 39.9877L86.1121 38.3473C86.4633 38 86.9067 37.7607 87.3898 37.6577C87.8728 37.5547 88.3752 37.5923 88.8376 37.766C90.0095 38.2033 91.2271 38.5067 92.4672 38.6702C93.0946 38.7587 93.6676 39.0748 94.0773 39.5582C94.4869 40.0417 94.7045 40.6588 94.6888 41.2923Z" fill="#21742E"/>
<defs>
<linearGradient id="paint0_linear" x1="151" y1="0.0205078" x2="151" y2="66.2619" gradientUnits="userSpaceOnUse">
<stop stop-color="#ADF251"/>
<stop offset="1" stop-color="#CEFA93"/>
</linearGradient>
</defs>
</svg>
