<svg width="15" height="16" viewBox="0 0 15 16" fill="current" xmlns="http://www.w3.org/2000/svg">
<path d="M7.11113 15.5761L1.20084 9.88332C1.00793 9.69862 0.946368 9.41132 1.04487 9.16505C1.14748 8.91469 1.38554 8.75462 1.65232 8.75462L4.49665 8.75462L4.49665 8.53709C4.49665 3.82938 8.32603 -3.20295e-07 13.0337 -5.26076e-07L14.3471 -5.83486e-07C14.6509 -5.96762e-07 14.9053 0.213427 14.9751 0.513045C14.9874 0.562298 14.9915 0.607446 14.9915 0.656698C14.9915 0.907065 14.8479 1.14101 14.618 1.25594C12.1554 2.48725 10.6245 4.96218 10.6245 7.71621L10.6245 8.75462L13.477 8.75462C13.7438 8.75462 13.986 8.91879 14.0845 9.16505C14.183 9.41132 14.1255 9.69862 13.9285 9.88332L8.0182 15.5761C7.76783 15.8223 7.36561 15.8223 7.11113 15.5761Z" fill="current"/>
</svg>
