<svg width="16" height="11" viewBox="0 0 16 11" fill="none" xmlns="http://www.w3.org/2000/svg">
<path d="M11.75 5.5C12.9922 5.5 14 4.49219 14 3.25C14 2.00781 12.9922 1 11.75 1C10.5078 1 9.5 2.00781 9.5 3.25C9.5 4.49219 10.5078 5.5 11.75 5.5ZM11.75 2.125C12.3594 2.125 12.875 2.64062 12.875 3.25C12.875 3.88281 12.3594 4.375 11.75 4.375C11.1172 4.375 10.625 3.88281 10.625 3.25C10.625 2.64062 11.1172 2.125 11.75 2.125ZM6.875 5.96875C6.59375 5.96875 6.3125 6.01562 6.03125 6.10938C5.70312 6.20312 5.35156 6.25 4.97656 6.25C4.625 6.25 4.27344 6.20312 3.94531 6.10938C3.66406 6.01562 3.38281 5.96875 3.10156 5.96875C2.25781 5.96875 1.4375 6.36719 0.945312 7.07031C0.664062 7.51562 0.5 8.03125 0.5 8.59375V9.625C0.5 10.2578 0.992188 10.75 1.625 10.75H8.375C8.98438 10.75 9.5 10.2578 9.5 9.625V8.59375C9.5 8.03125 9.3125 7.51562 9.03125 7.07031C8.53906 6.36719 7.71875 5.96875 6.875 5.96875ZM8.375 9.625H1.625V8.59375C1.625 7.91406 2.04688 7.32812 2.65625 7.11719C2.89062 7.02344 3.14844 7.02344 3.40625 7.11719C3.92188 7.28125 4.46094 7.375 5 7.375C5.53906 7.375 6.05469 7.28125 6.59375 7.11719C6.82812 7.02344 7.08594 7.02344 7.34375 7.11719C7.92969 7.32812 8.375 7.91406 8.375 8.59375V9.625ZM5 5.5C6.42969 5.5 7.625 4.32812 7.625 2.875C7.625 1.44531 6.42969 0.25 5 0.25C3.54688 0.25 2.375 1.44531 2.375 2.875C2.375 4.32812 3.54688 5.5 5 5.5ZM5 1.375C5.82031 1.375 6.5 2.05469 6.5 2.875C6.5 3.71875 5.82031 4.375 5 4.375C4.15625 4.375 3.5 3.71875 3.5 2.875C3.5 2.05469 4.15625 1.375 5 1.375ZM15.1016 6.95312C14.7031 6.34375 14.0234 6.01562 13.2969 6.01562C12.6641 6.01562 12.5 6.25 11.75 6.25C11 6.25 10.8359 6.01562 10.1797 6.01562C9.85156 6.01562 9.57031 6.08594 9.28906 6.22656C9.40625 6.34375 9.54688 6.50781 9.66406 6.64844C9.75781 6.8125 9.85156 7 9.94531 7.16406C10.0156 7.16406 10.0859 7.14062 10.1797 7.14062C10.5781 7.14062 10.8594 7.375 11.75 7.375C12.6172 7.375 12.8984 7.14062 13.2969 7.14062C13.6719 7.14062 14 7.30469 14.1641 7.5625C14.3047 7.75 14.375 7.96094 14.375 8.19531V8.875H10.25V9.625C10.25 9.76562 10.2266 9.88281 10.2031 10H14.5625C15.0781 10 15.5 9.60156 15.5 9.0625V8.19531C15.5 7.72656 15.3594 7.30469 15.1016 6.95312Z" fill="#f2994a"/>
</svg>
