<svg width="18" height="14" viewBox="0 0 18 14" fill="none" xmlns="http://www.w3.org/2000/svg">
<path d="M1.18462 7.6C1.06154 7.48 1 7.3 1 7.18C1 7.06 1.06154 6.88 1.18462 6.76L2.04615 5.92C2.29231 5.68 2.66154 5.68 2.90769 5.92L2.96923 5.98L6.35385 9.52C6.47692 9.64 6.66154 9.64 6.78462 9.52L15.0308 1.18H15.0923C15.3385 0.94 15.7077 0.94 15.9538 1.18L16.8154 2.02C17.0615 2.26 17.0615 2.62 16.8154 2.86L6.96923 12.82C6.84615 12.94 6.72308 13 6.53846 13C6.35385 13 6.23077 12.94 6.10769 12.82L1.30769 7.78L1.18462 7.6Z" fill="white" stroke="#6FC99C" stroke-width="0.4"/>
</svg>
