<svg width="8" height="8" viewBox="0 0 8 8" fill="none" xmlns="http://www.w3.org/2000/svg">
<path d="M4.52104 4.00002L7.3921 1.12896C7.53597 0.98508 7.53597 0.751811 7.3921 0.607942C7.24822 0.46406 7.01493 0.46406 6.87106 0.607942L3.99999 3.479L1.12893 0.607942C0.98505 0.46406 0.751781 0.46406 0.607912 0.607942C0.464043 0.751825 0.464029 0.985094 0.607912 1.12896L3.47897 4.00002L0.607912 6.87108C0.464029 7.01496 0.464029 7.24823 0.607912 7.3921C0.751794 7.53598 0.985063 7.53597 1.12893 7.3921L3.99999 4.52104L6.87104 7.3921C7.01492 7.53598 7.2482 7.53597 7.39207 7.3921C7.53594 7.24822 7.53594 7.01495 7.39207 6.87108L4.52104 4.00002Z" fill="white" stroke="white" stroke-width="0.7"/>
</svg>
