<svg width="153" height="67" viewBox="0 0 153 67" fill="none" xmlns="http://www.w3.org/2000/svg">
<path fill-rule="evenodd" clip-rule="evenodd" d="M153 8.02056C135.667 5.52056 80.5 0.420508 0.5 0.0205078V66.2111C71.8979 66.2721 137.285 66.2563 142 66.0206C150 65.6206 152.667 59.1872 153 56.0206V8.02056Z" fill="url(#paint0_linear)"/>
<path d="M62.5747 39.7594L59.8347 37.0194C59.5793 36.7661 59.3796 36.4622 59.2485 36.1272C59.1173 35.7922 59.0576 35.4336 59.073 35.0742C59.0885 34.7148 59.1789 34.3626 59.3383 34.0401C59.4978 33.7177 59.7229 33.4321 59.9991 33.2016C63.115 30.6965 66.7751 28.9572 70.6853 28.1234C74.2944 27.3189 78.0363 27.3189 81.6454 28.1234C85.5717 28.9626 89.2452 30.7148 92.3681 33.2382C92.6435 33.4679 92.868 33.7525 93.0274 34.0738C93.1868 34.395 93.2776 34.746 93.2939 35.1043C93.3102 35.4625 93.2518 35.8203 93.1222 36.1547C92.9927 36.4892 92.795 36.793 92.5416 37.0468L89.8016 39.7868C89.3627 40.2345 88.776 40.5072 88.1509 40.5543C87.5258 40.6013 86.9049 40.4195 86.404 40.0426C85.4114 39.2814 84.336 38.6349 83.1981 38.1154C82.7483 37.9114 82.3664 37.5827 82.0977 37.1683C81.829 36.7539 81.6847 36.2712 81.682 35.7773V33.4574C78.0951 32.471 74.3086 32.471 70.7218 33.4574V35.7773C70.719 36.2711 70.5747 36.7539 70.306 37.1683C70.0373 37.5827 69.6554 37.9114 69.2056 38.1154C68.0678 38.6349 66.9923 39.2814 65.9998 40.0426C65.4935 40.4237 64.8649 40.6054 64.2334 40.5532C63.6019 40.501 63.0116 40.2185 62.5747 39.7594Z" fill="#83160B"/>
<defs>
<linearGradient id="paint0_linear" x1="2.00001" y1="1.32354e-10" x2="2.00001" y2="66.2414" gradientUnits="userSpaceOnUse">
<stop stop-color="#F76251"/>
<stop offset="1" stop-color="#F8706E"/>
</linearGradient>
</defs>
</svg>
