<svg width="302" height="68" viewBox="0 0 302 68" fill="none" xmlns="http://www.w3.org/2000/svg">
<path d="M149.5 0.999944C69.5 0.599944 16.3333 6.16667 0 9V57C0 63.4 6.5 67 10 67C100.333 67.1667 283 67.4 291 67C299 66.6 301.667 60.1667 302 57V9C284.667 6.5 229.5 1.39994 149.5 0.999944Z" fill="url(#paint0_linear)"/>
<path fill-rule="evenodd" clip-rule="evenodd" d="M302 9C284.667 6.5 229.5 1.39994 149.5 0.999944V67.1906C220.898 67.2515 286.285 67.2357 291 67C299 66.6 301.667 60.1667 302 57V9Z" fill="url(#paint1_linear)"/>
<path d="M137.575 40.7389L134.835 37.9989C134.579 37.7456 134.38 37.4417 134.248 37.1067C134.117 36.7717 134.058 36.4131 134.073 36.0537C134.089 35.6943 134.179 35.3421 134.338 35.0196C134.498 34.6971 134.723 34.4116 134.999 34.1811C138.115 31.676 141.775 29.9367 145.685 29.1029C149.294 28.2984 153.036 28.2984 156.645 29.1029C160.572 29.9421 164.245 31.6943 167.368 34.2176C167.643 34.4474 167.868 34.732 168.027 35.0532C168.187 35.3745 168.278 35.7255 168.294 36.0837C168.31 36.442 168.252 36.7998 168.122 37.1342C167.993 37.4686 167.795 37.7725 167.542 38.0263L164.802 40.7663C164.363 41.214 163.776 41.4867 163.151 41.5338C162.526 41.5808 161.905 41.3989 161.404 41.0221C160.411 40.2609 159.336 39.6144 158.198 39.0949C157.748 38.8909 157.366 38.5622 157.098 38.1478C156.829 37.7334 156.685 37.2506 156.682 36.7567V34.4368C153.095 33.4504 149.309 33.4504 145.722 34.4368V36.7567C145.719 37.2506 145.575 37.7334 145.306 38.1478C145.037 38.5622 144.655 38.8909 144.206 39.0949C143.068 39.6144 141.992 40.2609 141 41.0221C140.494 41.4032 139.865 41.5849 139.233 41.5327C138.602 41.4805 138.012 41.198 137.575 40.7389Z" fill="#83160B"/>
<defs>
<linearGradient id="paint0_linear" x1="151" y1="0.979492" x2="151" y2="67.2209" gradientUnits="userSpaceOnUse">
<stop stop-color="#F66251"/>
<stop offset="1" stop-color="#F8706E"/>
</linearGradient>
<linearGradient id="paint1_linear" x1="151" y1="0.979492" x2="151" y2="67.2209" gradientUnits="userSpaceOnUse">
<stop stop-color="#F76251"/>
<stop offset="1" stop-color="#F8706E"/>
</linearGradient>
</defs>
</svg>
