<svg width="12" height="13" viewBox="0 0 12 13" fill="none" xmlns="http://www.w3.org/2000/svg">
<path d="M10.875 2.375H8.92969L8.13281 1.0625C7.94531 0.757812 7.52344 0.5 7.17188 0.5H4.80469C4.45312 0.5 4.03125 0.757812 3.84375 1.0625L3.04688 2.375H1.125C0.914062 2.375 0.75 2.5625 0.75 2.75V3.125C0.75 3.33594 0.914062 3.5 1.125 3.5H1.5L1.99219 11.4453C2.01562 12.0312 2.53125 12.5 3.11719 12.5H8.85938C9.44531 12.5 9.96094 12.0312 9.98438 11.4453L10.5 3.5H10.875C11.0625 3.5 11.25 3.33594 11.25 3.125V2.75C11.25 2.5625 11.0625 2.375 10.875 2.375ZM4.80469 1.625H7.17188L7.61719 2.375H4.35938L4.80469 1.625ZM8.85938 11.375H3.11719L2.625 3.5H9.35156L8.85938 11.375Z" />
</svg>
