<svg width="13" height="18" viewBox="0 0 13 18" fill="current" stroke="current" xmlns="http://www.w3.org/2000/svg">
<path d="M12.763 3.69141L9.4487 0.246094C9.29635 0.0878906 9.08984 0 8.87318 0H8.66667V4.5H13V4.28555C13 4.06406 12.9154 3.84961 12.763 3.69141ZM7.58333 4.78125V0H0.8125C0.36224 0 0 0.376172 0 0.84375V17.1562C0 17.6238 0.36224 18 0.8125 18H12.1875C12.6378 18 13 17.6238 13 17.1562V5.625H8.39583C7.94896 5.625 7.58333 5.24531 7.58333 4.78125ZM2.16667 2.53125C2.16667 2.37586 2.28786 2.25 2.4375 2.25H5.14583C5.29547 2.25 5.41667 2.37586 5.41667 2.53125V3.09375C5.41667 3.24914 5.29547 3.375 5.14583 3.375H2.4375C2.28786 3.375 2.16667 3.24914 2.16667 3.09375V2.53125ZM2.16667 5.34375V4.78125C2.16667 4.62586 2.28786 4.5 2.4375 4.5H5.14583C5.29547 4.5 5.41667 4.62586 5.41667 4.78125V5.34375C5.41667 5.49914 5.29547 5.625 5.14583 5.625H2.4375C2.28786 5.625 2.16667 5.49914 2.16667 5.34375ZM7.04167 14.6208V15.4688C7.04167 15.6241 6.92047 15.75 6.77083 15.75H6.22917C6.07953 15.75 5.95833 15.6241 5.95833 15.4688V14.6148C5.57612 14.5944 5.2044 14.4559 4.89633 14.2158C4.7643 14.1128 4.75753 13.9075 4.87703 13.789L5.27482 13.3949C5.36859 13.3021 5.50807 13.2979 5.61776 13.3692C5.74878 13.4543 5.8974 13.5 6.05177 13.5H7.00341C7.22346 13.5 7.40289 13.2919 7.40289 13.0363C7.40289 12.8271 7.28068 12.6429 7.10599 12.5887L5.58255 12.1141C4.9532 11.918 4.51344 11.2908 4.51344 10.5887C4.51344 9.72668 5.15836 9.02637 5.958 9.00422V8.15625C5.958 8.00086 6.07919 7.875 6.22883 7.875H6.7705C6.92013 7.875 7.04133 8.00086 7.04133 8.15625V9.0102C7.42354 9.03059 7.79526 9.16875 8.10333 9.40922C8.23536 9.51223 8.24214 9.71754 8.12263 9.83602L7.72484 10.2301C7.63107 10.3229 7.49159 10.3271 7.3819 10.2558C7.25089 10.1704 7.10227 10.125 6.94789 10.125H5.99625C5.7762 10.125 5.59677 10.3331 5.59677 10.5887C5.59677 10.7979 5.71898 10.9821 5.89367 11.0363L7.41711 11.5109C8.04646 11.707 8.48622 12.3342 8.48622 13.0363C8.48622 13.8987 7.8413 14.5986 7.04167 14.6208Z" fill="current"/>
</svg>
