<svg width="30" height="22" viewBox="0 0 30 22" fill="none" xmlns="http://www.w3.org/2000/svg">
<path d="M2.25 11C2.25 8.23438 3.14062 5.51562 4.82812 3.3125C5.0625 2.98438 5.01562 2.5625 4.73438 2.28125L4.17188 1.8125C3.84375 1.53125 3.32812 1.57812 3.04688 1.90625C1.07812 4.53125 0 7.71875 0 11C0 14.3281 1.07812 17.5156 3.04688 20.1406C3.32812 20.4688 3.84375 20.5156 4.17188 20.2344L4.73438 19.7656C5.01562 19.4844 5.0625 19.0625 4.82812 18.7344C3.14062 16.5312 2.25 13.8125 2.25 11ZM15 0.5C9.1875 0.5 4.5 5.23438 4.5 11C4.5 16.8125 9.1875 21.5 15 21.5C20.7656 21.5 25.5 16.8125 25.5 11C25.5 5.23438 20.7656 0.5 15 0.5ZM15 17C14.1562 17 13.5 16.3438 13.5 15.5C13.5 14.7031 14.1562 14 15 14C15.7969 14 16.5 14.7031 16.5 15.5C16.5 16.3438 15.7969 17 15 17ZM16.1719 11.8438C16.125 12.2188 15.7969 12.5 15.4219 12.5H14.5312C14.1562 12.5 13.8281 12.2188 13.7812 11.8438L13.1719 5.84375C13.125 5.42188 13.5 5 13.9219 5H16.0312C16.4531 5 16.8281 5.42188 16.7812 5.84375L16.1719 11.8438ZM26.8125 1.8125C26.5781 1.48438 26.0625 1.4375 25.7344 1.71875L25.1719 2.23438C24.8438 2.46875 24.8438 2.9375 25.0781 3.26562C26.8125 5.46875 27.75 8.1875 27.75 11C27.75 13.8594 26.8125 16.5781 25.0781 18.7812C24.8438 19.1094 24.8438 19.5781 25.1719 19.8125L25.7344 20.3281C26.0625 20.6094 26.5781 20.5625 26.8125 20.2344C28.875 17.6094 30 14.375 30 11C30 7.67188 28.875 4.4375 26.8125 1.8125Z" fill="white"/>
</svg>
