<svg width="15" height="15" viewBox="0 0 15 15" fill="none" xmlns="http://www.w3.org/2000/svg">
<path d="M7.5 0C3.36455 0 0 3.36455 0 7.5C0 11.6354 3.36455 15 7.5 15C11.6354 15 15 11.6354 15 7.5C15 3.36455 11.6354 0 7.5 0ZM7.98785 11.9499C7.63153 12.0093 6.92253 12.1577 6.56249 12.1875C6.25773 12.2127 5.97014 12.0383 5.79483 11.7879C5.61906 11.5375 5.57694 11.217 5.6813 10.9296L7.09899 7.03126H5.62499C5.62373 6.21896 6.23301 5.6217 7.01229 5.39248C7.38417 5.28306 8.07704 5.13333 8.43748 5.15627C8.65342 5.17001 9.02983 5.30549 9.20514 5.55591C9.38091 5.80631 9.42303 6.12674 9.31867 6.41422L7.90098 10.3125H9.37453C9.37481 11.1239 8.78825 11.8165 7.98785 11.9499ZM8.43748 4.68751C7.9197 4.68751 7.49997 4.26772 7.49997 3.75C7.49997 3.23222 7.9197 2.81249 8.43748 2.81249C8.95526 2.81249 9.37499 3.23222 9.37499 3.75C9.37499 4.26775 8.95529 4.68751 8.43748 4.68751Z" fill="#373737"/>
</svg>
