<svg width="24" height="24" viewBox="0 0 24 24" fill="none" xmlns="http://www.w3.org/2000/svg">
<path d="M16.325 10.9961H13.1133V8.8549C13.1133 8.65782 12.9535 8.49804 12.7564 8.49804H11.6858V7.07059C11.6858 6.87351 11.526 6.71373 11.329 6.71373H10.9721V6H10.2584V6.71373H9.9015C9.70442 6.71373 9.54464 6.87351 9.54464 7.07059V8.49804H8.47405C8.27697 8.49804 8.11719 8.65782 8.11719 8.8549V17.7765C8.11719 17.9735 8.27697 18.1333 8.47405 18.1333H16.325C16.5221 18.1333 16.6819 17.9735 16.6819 17.7765V11.3529C16.6819 11.1559 16.5221 10.9961 16.325 10.9961ZM10.2584 14.9216H9.54464V14.2078H10.2584V14.9216ZM10.2584 13.4941H9.54464V12.7804H10.2584V13.4941ZM10.2584 12.0667H9.54464V11.3529H10.2584V12.0667ZM10.2584 10.6392H9.54464V9.92549H10.2584V10.6392ZM11.6858 13.4941H10.9721V12.7804H11.6858V13.4941ZM11.6858 12.0667H10.9721V11.3529H11.6858V12.0667ZM11.6858 10.6392H10.9721V9.92549H11.6858V10.6392ZM14.5407 15.9922H13.827V15.2784H14.5407V15.9922ZM14.5407 14.5647H13.827V13.851H14.5407V14.5647ZM14.5407 13.1373H13.827V12.4235H14.5407V13.1373ZM15.9682 15.9922H15.2544V15.2784H15.9682V15.9922ZM15.9682 14.5647H15.2544V13.851H15.9682V14.5647ZM15.9682 13.1373H15.2544V12.4235H15.9682V13.1373Z" fill="#33658A"/>
<circle cx="12" cy="12" r="12" fill="#33658A" fill-opacity="0.1"/>
</svg>
