<svg width="13" height="11" viewBox="0 0 13 11" fill="none" xmlns="http://www.w3.org/2000/svg">
<path d="M13 2.5V1.75C13 1.60938 12.8594 1.46875 12.7188 1.46875H5.78125C5.61719 1.46875 5.5 1.60938 5.5 1.77344V2.5C5.5 2.66406 5.61719 2.78125 5.78125 2.78125H12.7188C12.8594 2.78125 13 2.66406 13 2.5ZM13 6.25V5.5C13 5.35938 12.8594 5.21875 12.7188 5.21875H5.78125C5.61719 5.21875 5.5 5.35938 5.5 5.5V6.25C5.5 6.41406 5.61719 6.53125 5.78125 6.53125H12.7188C12.8594 6.53125 13 6.41406 13 6.25ZM13 10V9.25C13 9.10938 12.8594 8.96875 12.7188 8.96875H5.78125C5.61719 8.96875 5.5 9.10938 5.5 9.25V10C5.5 10.1641 5.61719 10.2812 5.78125 10.2812H12.7188C12.8594 10.2812 13 10.1641 13 10ZM4.79688 1.02344C4.89062 0.929688 4.89062 0.742188 4.79688 0.625L4.49219 0.34375C4.39844 0.226562 4.21094 0.226562 4.09375 0.34375L2.42969 2.00781L1.75 1.32812C1.65625 1.21094 1.46875 1.21094 1.35156 1.32812L1.07031 1.60938C0.953125 1.72656 0.953125 1.89062 1.07031 2.00781L1.9375 2.89844L2.24219 3.17969C2.33594 3.29688 2.52344 3.29688 2.64062 3.17969L4.79688 1.02344ZM4.79688 4.77344C4.89062 4.65625 4.89062 4.49219 4.79688 4.375L4.49219 4.09375C4.39844 3.97656 4.21094 3.97656 4.09375 4.09375L2.42969 5.75781L1.75 5.07812C1.65625 4.96094 1.46875 4.96094 1.35156 5.07812L1.07031 5.35938C0.953125 5.47656 0.953125 5.64062 1.07031 5.75781L1.9375 6.64844L2.24219 6.92969C2.33594 7.04688 2.52344 7.04688 2.64062 6.92969L4.79688 4.77344ZM2.5 8.5C1.86719 8.5 1.375 9.01562 1.375 9.625C1.375 10.2578 1.86719 10.75 2.5 10.75C3.10938 10.75 3.625 10.2578 3.625 9.625C3.625 9.01562 3.10938 8.5 2.5 8.5Z" fill="#252525"/>
</svg>
