<svg width="4" height="13" viewBox="0 0 4 13" fill="#373737" xmlns="http://www.w3.org/2000/svg">
<path d="M0.598267 11.0981C0.598266 11.9266 1.26984 12.5982 2.09827 12.5982C2.92669 12.5982 3.59827 11.9266 3.59827 11.0981C3.59827 10.2697 2.92669 9.59814 2.09827 9.59814C1.26984 9.59814 0.598267 10.2697 0.598267 11.0981Z" fill="#373737"/>
<path d="M0.598267 6.50037C0.598266 7.32879 1.26984 8.00037 2.09827 8.00037C2.92669 8.00037 3.59827 7.32879 3.59827 6.50037C3.59827 5.67194 2.92669 5.00037 2.09827 5.00037C1.26984 5.00037 0.598267 5.67194 0.598267 6.50037Z" fill="#373737"/>
<path d="M0.598267 1.90174C0.598266 2.73017 1.26984 3.40174 2.09827 3.40174C2.92669 3.40174 3.59827 2.73017 3.59827 1.90174C3.59827 1.07331 2.92669 0.401733 2.09827 0.401733C1.26984 0.401733 0.598267 1.07331 0.598267 1.90174Z" fill="#373737"/>
</svg>
