<svg width="104" height="104" viewBox="0 0 104 104" fill="none" xmlns="http://www.w3.org/2000/svg">
<path d="M54.9899 62.0717H70.9849C71.5847 62.0717 71.9845 61.6718 71.9845 61.072V52.0748C71.9845 51.475 71.5847 51.0752 70.9849 51.0752H54.9899C54.3901 51.0752 53.9902 51.475 53.9902 52.0748V61.072C53.9901 61.6717 54.3901 62.0717 54.9899 62.0717ZM55.9895 53.0745H69.9852V60.0723H55.9895V53.0745Z" fill="white"/>
<path d="M27.9987 49.0755H35.9962C36.596 49.0755 36.9959 48.6756 36.9959 48.0758C36.9959 47.476 36.596 47.0762 35.9962 47.0762H27.9987C27.3989 47.0762 26.999 47.476 26.999 48.0758C26.999 48.6756 27.3989 49.0755 27.9987 49.0755Z" fill="white"/>
<path d="M39.9948 49.0755H47.9923C48.5921 49.0755 48.992 48.6756 48.992 48.0758C48.992 47.476 48.5921 47.0762 47.9923 47.0762H39.9948C39.395 47.0762 38.9951 47.476 38.9951 48.0758C38.9951 48.6756 39.395 49.0755 39.9948 49.0755Z" fill="white"/>
<path d="M27.9987 53.0745H40.9946C41.5944 53.0745 41.9942 52.6747 41.9942 52.0748C41.9942 51.475 41.5944 51.0752 40.9946 51.0752H27.9987C27.3989 51.0752 26.999 51.475 26.999 52.0748C26.999 52.6747 27.3989 53.0745 27.9987 53.0745Z" fill="white"/>
<path d="M47.9919 51.0747H44.9928C44.393 51.0747 43.9932 51.4745 43.9932 52.0744C43.9932 52.6742 44.393 53.074 44.9928 53.074H47.9919C48.5917 53.074 48.9915 52.6742 48.9915 52.0744C48.9915 51.4745 48.5917 51.0747 47.9919 51.0747Z" fill="white"/>
<path d="M82.0815 38.6787C81.3818 37.779 80.4821 37.2791 79.3824 37.1791L76.9831 36.8884V34.08V32.0807C76.9831 29.8815 75.1837 28.082 72.9844 28.082H26.9987C24.7994 28.0819 23 29.8814 23 32.0807V34.0802V42.0777V64.0708C23 65.8764 24.2133 67.4117 25.8647 67.9037C25.8143 69.926 27.3444 71.6816 29.3981 71.8683L75.5836 77.0667C75.6836 77.0667 75.8836 77.0667 75.9835 77.0667C77.9829 77.0667 79.7823 75.5672 79.9822 73.6678L82.9813 41.5778C83.0812 40.578 82.7813 39.4784 82.0815 38.6787ZM24.9994 35.0798H74.9838V37.679V41.0779H24.9994V35.0798ZM26.9987 30.0813H72.9843C74.084 30.0813 74.9837 30.981 74.9837 32.0807V33.0804H24.9994V32.0807C24.9994 30.981 25.8991 30.0813 26.9987 30.0813ZM24.9994 64.0707V43.0772H74.9838V64.0707C74.9838 65.1704 74.0841 66.0701 72.9844 66.0701H27.0988H26.9988C25.8991 66.0701 24.9994 65.1704 24.9994 64.0707ZM80.9818 41.1779L77.9828 73.2678C77.8829 74.3675 76.8831 75.1672 75.7835 75.0673L29.6979 69.8689C28.6982 69.769 27.9984 68.9692 27.8984 68.0695H72.9843C75.1836 68.0695 76.983 66.2701 76.983 64.0708V42.0776V38.7786L79.2823 38.9786C79.7822 38.9786 80.282 39.2785 80.5819 39.6783C80.8819 40.0782 81.0819 40.678 80.9818 41.1779Z" fill="white"/>
<circle cx="52" cy="52" r="51" stroke="white" stroke-width="2"/>
</svg>
