<svg width="19" height="16" viewBox="0 0 19 16"  xmlns="http://www.w3.org/2000/svg">
<path d="M14.2222 0.16C14.2222 0.072 14.1422 0 14.0444 0H4.62222C4.52444 0 4.44444 0.072 4.44444 0.16V3.12H14.2222V0.16ZM16.8889 4.4H1.77778C0.795555 4.4 0 5.116 0 6V12.56C0 12.914 0.317778 13.2 0.711111 13.2H4.44444V15.84C4.44444 15.928 4.52444 16 4.62222 16H14.0444C14.1422 16 14.2222 15.928 14.2222 15.84V13.2H17.9556C18.3489 13.2 18.6667 12.914 18.6667 12.56V6C18.6667 5.116 17.8711 4.4 16.8889 4.4ZM12.7111 14.64H5.95555V9.12H12.7111V14.64ZM16.3556 7.44C16.3556 7.528 16.2756 7.6 16.1778 7.6H15.2889C15.1911 7.6 15.1111 7.528 15.1111 7.44V6.64C15.1111 6.552 15.1911 6.48 15.2889 6.48H16.1778C16.2756 6.48 16.3556 6.552 16.3556 6.64V7.44Z" />
</svg>
