<svg width="31" height="39" viewBox="0 0 31 39" fill="none" xmlns="http://www.w3.org/2000/svg">
<path d="M31 2.38323V0H3.57909C3.47894 0.00476885 2.7362 -0.00953769 1.85634 0.422044C0.964566 0.817858 -0.0404706 1.96119 0.00125689 3.57664C0.00125689 3.58379 0.00244901 3.59095 0.00244901 3.5981V35.7664C0.00244901 38.1508 2.38688 38.1508 2.38688 38.1508H31V4.76885H28.6156V2.38323H31ZM3.57432 4.76885C3.55882 4.76885 3.51471 4.76766 3.40026 4.74739C3.18924 4.7152 2.88284 4.61267 2.70997 4.46246C2.54782 4.3027 2.40595 4.17275 2.38688 3.57664C2.42622 2.80528 2.61697 2.75878 2.92099 2.55491C3.07478 2.47742 3.26435 2.42854 3.40145 2.40589C3.54213 2.38085 3.57671 2.39039 3.57909 2.38323H26.2311V4.76885H3.57909C3.5779 4.76885 3.57671 4.76885 3.57432 4.76885ZM28.6156 35.7664H4.7713V7.15328H28.6156V35.7664Z" fill="white"/>
<path d="M16.6934 21.4598C19.3272 21.4598 21.4623 19.3247 21.4623 16.691C21.4623 14.0572 19.3272 11.9221 16.6934 11.9221C14.0596 11.9221 11.9246 14.0572 11.9246 16.691C11.9246 19.3247 14.0596 21.4598 16.6934 21.4598Z" fill="white"/>
<path d="M26.2312 26.2287C26.2312 26.2287 26.2312 23.8442 23.8468 23.8442H9.54019C9.54019 23.8442 7.15576 23.8442 7.15576 26.2287V33.3819H26.2312V26.2287Z" fill="white"/>
</svg>
