<svg width="32" height="37" viewBox="0 0 32 37" fill="none" xmlns="http://www.w3.org/2000/svg">
<path d="M9.14286 10.6953C9.14286 11.2012 9.5 11.5625 10 11.5625H12.8571C13.2857 11.5625 13.7143 11.2012 13.7143 10.6953V7.80469C13.7143 7.37109 13.2857 6.9375 12.8571 6.9375H10C9.5 6.9375 9.14286 7.37109 9.14286 7.80469V10.6953ZM19.1429 11.5625H22C22.4286 11.5625 22.8571 11.2012 22.8571 10.6953V7.80469C22.8571 7.37109 22.4286 6.9375 22 6.9375H19.1429C18.6429 6.9375 18.2857 7.37109 18.2857 7.80469V10.6953C18.2857 11.2012 18.6429 11.5625 19.1429 11.5625ZM10 18.5H12.8571C13.2857 18.5 13.7143 18.1387 13.7143 17.6328V14.7422C13.7143 14.3086 13.2857 13.875 12.8571 13.875H10C9.5 13.875 9.14286 14.3086 9.14286 14.7422V17.6328C9.14286 18.1387 9.5 18.5 10 18.5ZM19.1429 18.5H22C22.4286 18.5 22.8571 18.1387 22.8571 17.6328V14.7422C22.8571 14.3086 22.4286 13.875 22 13.875H19.1429C18.6429 13.875 18.2857 14.3086 18.2857 14.7422V17.6328C18.2857 18.1387 18.6429 18.5 19.1429 18.5ZM13.7143 24.5703V21.6797C13.7143 21.2461 13.2857 20.8125 12.8571 20.8125H10C9.5 20.8125 9.14286 21.2461 9.14286 21.6797V24.5703C9.14286 25.0762 9.5 25.4375 10 25.4375H12.8571C13.2857 25.4375 13.7143 25.0762 13.7143 24.5703ZM19.1429 25.4375H22C22.4286 25.4375 22.8571 25.0762 22.8571 24.5703V21.6797C22.8571 21.2461 22.4286 20.8125 22 20.8125H19.1429C18.6429 20.8125 18.2857 21.2461 18.2857 21.6797V24.5703C18.2857 25.0762 18.6429 25.4375 19.1429 25.4375ZM32 34.3984C32 33.9648 31.5714 33.5312 31.1429 33.5312H29.7143V1.73438C29.7143 0.794922 28.9286 0 28 0H3.92857C3 0 2.21429 0.794922 2.21429 1.73438V33.5312H0.857143C0.357143 33.5312 0 33.9648 0 34.3984V37H32V34.3984ZM5.64286 33.459L5.71429 3.46875L26.2857 3.54102V33.459H18.2857V28.6172C18.2857 28.1836 17.8571 27.75 17.4286 27.75H14.5714C14.0714 27.75 13.7143 28.1836 13.7143 28.6172V33.459H5.64286Z" fill="white"/>
</svg>
