<svg width="37" height="38" viewBox="0 0 37 38" fill="none" xmlns="http://www.w3.org/2000/svg">
<path d="M16.2244 12.7906C16.4128 10.7435 17.1388 8.85319 18.2602 7.25477C17.3482 3.11115 13.6509 0 9.23885 0C4.14523 0 0 4.14523 0 9.24047C0 13.6743 3.14026 17.3862 7.31379 18.2748C9.41349 15.4134 12.5788 13.3914 16.2244 12.7906ZM5.54315 11.4396C5.54315 11.1033 5.80106 10.8437 6.13821 10.8437H8.03417V10.4007L7.77464 9.95762H6.1374C5.80026 9.95762 5.54234 9.69809 5.54234 9.36175C5.54234 9.02541 5.80026 8.76587 6.1374 8.76587H7.06962L5.05319 5.45098C4.94647 5.26745 4.83975 5.03864 4.83975 4.82438C4.83975 3.98434 5.61915 3.70945 6.15277 3.70945C6.79472 3.70945 7.08498 4.21396 7.19251 4.4274L9.23966 8.32362L11.2852 4.4274C11.3943 4.21396 11.683 3.70945 12.3233 3.70945C12.8586 3.70945 13.6372 3.98515 13.6372 4.82438C13.6372 5.03864 13.5304 5.26745 13.4245 5.45017L11.4073 8.76587H12.3387C12.6742 8.76587 12.9337 9.02541 12.9337 9.36175C12.9337 9.69809 12.6742 9.95762 12.3387 9.95762H10.7047L10.4452 10.4007V10.8437H12.3395C12.675 10.8437 12.9346 11.1033 12.9346 11.4396C12.9346 11.776 12.675 12.0355 12.3395 12.0355H10.4452V13.5474C10.4452 14.2807 10.0013 14.7699 9.23966 14.7699C8.47562 14.7699 8.03336 14.2807 8.03336 13.5474V12.0355H6.1374C5.80026 12.0355 5.54315 11.776 5.54315 11.4396Z" fill="white"/>
<path d="M27.7206 4.61987C23.0563 4.61987 19.1981 8.09809 18.5771 12.595C20.3405 12.608 22.0206 12.9564 23.5697 13.5709C23.6724 13.3348 23.8842 13.1869 24.2141 13.1869H24.5343C24.2141 12.7284 24.0766 12.1479 24.0766 11.552C24.0766 9.65851 25.7567 8.32932 27.9106 8.32932C30.5868 8.32932 31.8836 9.76524 31.8836 10.957C31.8836 11.645 31.4098 12.0266 30.7371 12.0266C29.3934 12.0266 30.2173 10.163 28.1556 10.163C27.2549 10.163 26.3995 10.6983 26.3995 11.6903C26.3995 12.2102 26.6582 12.7292 26.9032 13.1877H28.5687C29.1945 13.1877 29.5163 13.4173 29.5163 13.921C29.5163 14.4247 29.1953 14.6535 28.5687 14.6535H27.3608C27.4077 14.7764 27.4392 14.8831 27.4392 15.0206C27.4392 15.2671 27.3778 15.5113 27.2824 15.7498C27.782 16.1622 28.2429 16.6198 28.6803 17.0976C29.104 17.1833 29.4815 17.282 29.9294 17.282C30.1874 17.282 30.8172 17.1138 31.0589 17.1138C31.6233 17.1138 31.9451 17.5415 31.9451 18.0905C31.9451 18.9523 31.1737 19.3267 30.379 19.3784C30.9061 20.2637 31.3451 21.2049 31.6694 22.2001C34.791 20.7165 36.9611 17.5407 36.9611 13.8587C36.9594 8.76511 32.8142 4.61987 27.7206 4.61987Z" fill="white"/>
<path d="M19.0923 27.5508V31.3314C20.2363 31.2554 21.441 30.721 21.441 29.4605C21.441 28.1612 20.1207 27.7796 19.0923 27.5508Z" fill="white"/>
<path d="M15.8064 23.0256C15.8064 23.9821 16.5138 24.5335 17.9449 24.8213V21.4021C16.6448 21.4417 15.8064 22.2041 15.8064 23.0256Z" fill="white"/>
<path d="M18.4801 14.9001C12.1115 14.9001 6.92896 20.0819 6.92896 26.4505C6.92896 32.8192 12.1115 38.0001 18.4801 38.0001C24.8488 38.0001 30.0321 32.82 30.0321 26.4505C30.0321 20.0811 24.8488 14.9001 18.4801 14.9001ZM19.0922 33.28V34.4645C19.0922 34.7895 18.8416 35.1137 18.5173 35.1137C18.1931 35.1137 17.9449 34.7903 17.9449 34.4645V33.28C14.719 33.204 13.1133 31.2749 13.1133 29.7646C13.1133 29.003 13.5709 28.5632 14.2969 28.5632C16.4354 28.5632 14.7731 31.1989 17.9449 31.3323V27.3407C15.1167 26.8257 13.4011 25.5846 13.4011 23.4639C13.4011 20.8678 15.5582 19.5305 17.9449 19.4545V18.4374C17.9449 18.1116 18.1931 17.7873 18.5173 17.7873C18.8416 17.7873 19.0922 18.1116 19.0922 18.4374V19.4545C20.579 19.4941 23.6344 20.4271 23.6344 22.3004C23.6344 23.0451 23.0798 23.4825 22.4313 23.4825C21.1903 23.4825 21.2073 21.4418 19.093 21.4022V25.03C21.6139 25.5652 23.8462 26.309 23.8462 29.252C23.8462 31.8101 21.9349 33.1094 19.0922 33.28Z" fill="white"/>
</svg>
