<svg width="38" height="38" viewBox="0 0 38 38" fill="none" xmlns="http://www.w3.org/2000/svg">
<path d="M21.1582 6.76538H8.20456C7.25053 6.76538 6.47681 7.53911 6.47681 8.49232C6.47681 9.44554 7.25053 10.2193 8.20456 10.2193H21.1582C22.1139 10.2193 22.886 9.44554 22.886 8.49232C22.8852 7.53911 22.1131 6.76538 21.1582 6.76538Z" fill="white"/>
<path d="M22.8852 14.9694C22.8852 14.0154 22.1131 13.2424 21.1574 13.2424H8.20456C7.25053 13.2424 6.47681 14.0162 6.47681 14.9694C6.47681 15.9234 7.25053 16.6971 8.20456 16.6971H21.1582C22.1131 16.6971 22.8852 15.9234 22.8852 14.9694Z" fill="white"/>
<path d="M14.6822 23.1739C15.6362 23.1739 16.4091 22.4002 16.4091 21.447C16.4091 20.493 15.6362 19.7192 14.6822 19.7192H8.20456C7.25053 19.7192 6.47681 20.493 6.47681 21.447C6.47681 22.401 7.25053 23.1739 8.20456 23.1739H14.6822Z" fill="white"/>
<path d="M27.72 29.0492L25.9082 30.2449V34.5445H3.45469V3.45469H25.9082V10.28L29.3629 4.29633V1.72694C29.3629 0.77292 28.5891 0 27.6351 0H1.72694C0.77292 0 0 0.773728 0 1.72694V36.2731C0 37.2271 0.77292 38 1.72694 38H27.6351C28.5899 38 29.3637 37.2263 29.3637 36.2731V26.753L28.5382 28.1808C28.3369 28.5293 28.0539 28.8293 27.72 29.0492Z" fill="white"/>
<path d="M31.106 4.73218L20.311 23.4294C20.311 23.4294 20.1863 29.3082 20.2213 31.3575C22.0082 30.3655 27.0425 27.3191 27.0425 27.3191L37.8384 8.61861L31.106 4.73218ZM23.3057 28.3418C23.0187 28.1098 22.6929 27.8907 22.3428 27.6877C21.9911 27.4848 21.6386 27.3142 21.2942 27.18L21.4146 25.1571C21.865 25.2162 22.5328 25.3989 23.3809 25.8872C24.2282 26.3764 24.7189 26.8647 24.9971 27.2245L23.3057 28.3418Z" fill="white"/>
<path d="M12.0416 31.1544C12.0982 31.5012 12.4984 31.6087 12.766 31.7203C13.0247 31.8294 13.3336 31.6225 13.5486 31.5182C14.8665 30.877 16.6516 31.6306 18.0633 31.6306C18.8984 31.6306 18.8984 30.3353 18.0633 30.3353C16.4172 30.3353 15.0476 29.919 13.416 30.1882C13.416 30.0936 13.3813 29.9659 13.2794 29.792C12.9746 29.2706 12.5865 29.1226 12.1976 29.1857C12.1718 29.1242 12.1467 29.0628 12.1103 29.0005C12.0085 28.834 11.8662 28.7507 11.7061 28.7159C12.1613 27.9204 12.4547 27.0787 12.1564 26.398C12.0651 26.191 11.8055 26.0851 11.5969 26.077C10.7318 26.0447 9.98965 26.9526 9.43341 27.4975C8.04199 28.8615 6.81631 30.4097 5.63025 31.9507C5.1209 32.6129 6.24713 33.2564 6.7484 32.6056C7.79944 31.2409 8.91274 29.9157 10.1109 28.6763C9.82229 29.1501 9.51587 29.615 9.19328 30.0629C8.73244 30.7752 9.8328 31.3815 10.3114 30.717C10.4254 30.5431 10.5701 30.4178 10.7286 30.3103C10.6971 30.3903 10.6647 30.4687 10.6324 30.5496C10.634 30.5496 10.6356 30.5504 10.6373 30.5512C10.6122 30.603 10.5871 30.6547 10.5669 30.704C10.2775 31.4292 11.3584 31.7615 11.7514 31.202C11.8508 31.0614 11.943 30.911 12.0262 30.7533C12.0206 30.8617 12.0182 31.0072 12.0416 31.1544Z" fill="white"/>
</svg>
