<svg
            width="15"
            height="14"
            viewBox="0 0 15 14"
            fill="none"
            xmlns="http://www.w3.org/2000/svg"
          >
            <path
              d="M0 9.80724C0 9.46537 0.0586156 9.1235 0.0586156 8.72465C0.117231 8.26882 0.117231 7.86997 0.175847 7.41414C1.46539 7.41414 2.75493 7.41414 4.04448 7.41414C4.04448 7.5281 4.04448 7.64205 4.10309 7.69903C4.5134 7.64205 4.98233 7.58508 5.39264 7.58508C5.80295 7.58508 6.27187 7.58508 6.68218 7.58508C6.68218 7.47112 6.68218 7.41414 6.68218 7.30018C6.62357 6.95831 6.7408 6.61644 6.85803 6.27457C7.26834 5.24895 7.85449 4.28032 8.6165 3.48262C8.6165 3.42564 8.73373 3.36866 8.79234 3.31168C9.73019 3.48262 10.668 3.48262 11.6645 3.31168C11.8404 3.5396 12.0748 3.76751 12.2507 3.99543C12.7782 4.73615 13.2471 5.53385 13.5402 6.33155C13.7747 6.90133 13.7161 7.5281 13.5402 8.09788C13.5402 8.15486 13.5402 8.15486 13.4816 8.21184C13.7747 8.21184 14.0678 8.26882 14.3022 8.43975C15.0056 8.8386 15.2401 9.86422 14.7125 10.491C13.8919 11.4026 13.0713 12.3143 12.0748 13.055C11.3714 13.6248 10.5508 13.9097 9.67158 13.9667C8.49927 14.0806 7.38557 13.9097 6.33049 13.3399C5.97879 13.169 5.6271 12.9411 5.27541 12.7701C4.92371 12.5992 4.5134 12.5422 4.10309 12.6562C4.10309 12.9411 4.04448 13.226 4.04448 13.5108C2.75493 13.5108 1.52401 13.5108 0.175847 13.5108C0.175847 13.226 0.117231 12.9411 0.117231 12.6562C0.117231 12.2003 0.0586156 11.7445 0.0586156 11.2317C0.0586156 11.1747 0.0586156 11.1177 0.0586156 11.1177C0 10.6619 0 10.2631 0 9.80724ZM7.85449 10.491C7.91311 10.491 7.97173 10.548 8.03034 10.548C8.38204 10.6619 8.73373 10.7759 9.08542 10.8898C9.3785 10.9468 9.73019 11.0038 10.0233 11.0608C10.375 11.0608 10.6094 10.8898 10.7267 10.6049C10.8439 10.32 10.7853 9.97818 10.4922 9.75026C9.73019 9.06652 8.79234 8.66767 7.79588 8.43975C6.85803 8.21184 5.92018 8.15486 4.98233 8.26882C4.68925 8.3258 4.39617 8.38278 4.10309 8.38278C4.10309 9.6363 4.10309 10.7759 4.10309 11.9724C4.16171 11.9724 4.16171 11.9724 4.16171 11.9724C4.68925 11.9724 5.21679 12.0294 5.6271 12.2573C5.97879 12.4283 6.27187 12.5992 6.56495 12.7701C7.73726 13.3969 9.02681 13.5108 10.3164 13.169C10.9025 12.998 11.43 12.7701 11.899 12.3143C12.6024 11.6306 13.3057 10.9468 14.0091 10.2061C14.2436 9.97817 14.3022 9.69328 14.185 9.35141C14.0091 8.89558 13.3644 8.66767 13.0713 9.00954C12.5437 9.46537 12.0748 9.9212 11.6059 10.377C11.4887 10.491 11.3714 10.6619 11.3128 10.8329C11.0784 11.4026 10.4922 11.7445 9.90604 11.7445C9.3785 11.7445 8.90958 11.5736 8.38204 11.4026C8.14757 11.3457 7.85449 11.2317 7.62003 11.1177C7.73726 10.8898 7.79588 10.6619 7.85449 10.491ZM10.4922 8.09788C10.5508 8.09788 10.5508 8.09788 10.6094 8.09788C10.9611 8.0409 11.1956 7.81299 11.2542 7.5281C11.3128 7.18623 11.1956 6.95831 10.9025 6.7304C10.7853 6.67342 10.6094 6.61644 10.4336 6.55946C10.2577 6.50248 10.0819 6.4455 9.90604 6.38853C9.84743 6.38853 9.78881 6.27457 9.78881 6.21759C9.78881 6.16061 9.84743 6.04665 9.90604 6.04665C9.96466 5.98968 10.0233 5.98968 10.0819 5.98968C10.3164 5.98968 10.5508 6.10363 10.668 6.27457C10.8439 6.27457 11.0197 6.27457 11.1956 6.27457C11.1956 5.98968 11.1956 5.76176 11.1956 5.53385C11.0197 5.53385 10.8439 5.53385 10.668 5.53385C10.668 5.53385 10.668 5.59083 10.6094 5.6478C10.5508 5.6478 10.4922 5.59083 10.4336 5.53385C10.4336 5.41989 10.4336 5.36291 10.4336 5.24895C10.2577 5.24895 10.0819 5.24895 9.90604 5.24895C9.90604 5.36291 9.90604 5.41989 9.90604 5.47687C9.84743 5.47687 9.84743 5.47687 9.78881 5.53385C9.49573 5.6478 9.26127 5.81874 9.20265 6.16061C9.14404 6.50248 9.26127 6.78738 9.61296 6.90133C9.84743 7.01529 10.0819 7.01529 10.3164 7.12925C10.4336 7.18623 10.5508 7.18623 10.668 7.30018C10.7853 7.41414 10.7853 7.5281 10.6094 7.64205C10.5508 7.64205 10.4922 7.69903 10.4336 7.69903C10.1405 7.69903 9.96466 7.58508 9.78881 7.41414C9.61296 7.41414 9.43712 7.41414 9.26127 7.41414C9.26127 7.69903 9.26127 7.92695 9.26127 8.15486C9.43712 8.15486 9.61296 8.15486 9.78881 8.15486C9.78881 8.09788 9.84743 8.09788 9.84743 8.0409C9.90604 8.0409 9.90604 8.09788 9.96466 8.09788C9.96466 8.21184 9.96466 8.26882 9.96466 8.38278C10.1405 8.38278 10.3164 8.38278 10.4922 8.38278C10.4922 8.26882 10.4922 8.21184 10.4922 8.09788ZM11.0197 2.96981C11.3128 2.96981 11.4887 2.85585 11.6059 2.62794C11.7231 2.28607 11.899 1.9442 12.0162 1.60233C12.1334 1.26045 12.1921 0.918583 12.1334 0.519733C12.0748 0.00692605 11.7231 -0.16401 11.2542 0.177862C11.2542 0.177862 11.1956 0.177862 11.1956 0.23484C11.0197 0.405776 10.8439 0.519733 10.6094 0.690669C10.5508 0.747647 10.4336 0.804626 10.375 0.861605C10.2577 0.918583 10.1405 0.918583 10.0233 0.861605C9.84743 0.747647 9.67158 0.63369 9.55435 0.576712C9.31988 0.462755 9.02681 0.291819 8.73373 0.177862C8.32342 0.0639046 8.03034 0.23484 8.03034 0.690669C8.03034 0.918583 8.08896 1.20348 8.14757 1.43139C8.2648 1.88722 8.44065 2.28607 8.73373 2.62794C8.79234 2.7419 8.90958 2.79888 9.02681 2.85585C9.43712 2.91283 9.84743 2.96981 10.1405 3.02679C10.5508 2.96981 10.7853 2.96981 11.0197 2.96981Z"
              fill="white"
            ></path>
          </svg>