 <svg
            width="12"
            height="16"
            viewBox="0 0 12 16"
            fill="none"
            xmlns="http://www.w3.org/2000/svg"
          >
            <path
              d="M7.42684 12.1935L4.05254 15.8735C3.97867 15.954 3.87378 16 3.76383 16C3.65388 16 3.54899 15.954 3.47512 15.8735L0.100904 12.1935C-0.00257988 12.0806 -0.0289963 11.9181 0.0334214 11.7788C0.095917 11.6396 0.235558 11.5498 0.389615 11.5498H1.94562V5.71851C1.94562 5.50584 2.12001 5.33338 2.33524 5.33338H5.1925C5.40773 5.33338 5.58213 5.50584 5.58213 5.71851V11.5498H7.13813C7.29226 11.5498 7.43191 11.6396 7.49432 11.7788C7.55674 11.918 7.53032 12.0806 7.42684 12.1935ZM10.0544 10.2816V4.45023H11.6104C11.7645 4.45023 11.9042 4.36042 11.9666 4.22116C12.029 4.0819 12.0026 3.91938 11.8991 3.80646L8.52488 0.126474C8.45101 0.0459834 8.34612 0 8.23617 0C8.12621 0 8.02133 0.0459834 7.94746 0.126474L4.57316 3.80646C4.46968 3.9193 4.44326 4.0819 4.50568 4.22116C4.56817 4.36042 4.70781 4.45023 4.86187 4.45023H6.41787V10.2816C6.41787 10.4942 6.59227 10.6667 6.80749 10.6667H9.66476C9.87999 10.6667 10.0544 10.4942 10.0544 10.2816ZM7.19712 4.0651C7.19712 3.85244 7.02272 3.67998 6.80749 3.67998H5.74086L8.23617 0.958566L10.7314 3.67998H9.66476C9.44953 3.67998 9.27514 3.85244 9.27514 4.0651V9.89645H7.19712V4.0651Z"
              fill="white"
            ></path>
          </svg>