 <svg
            width="14"
            height="14"
            viewBox="0 0 14 14"
            fill="none"
            xmlns="http://www.w3.org/2000/svg"
          >
            <path
              d="M7 12.8333C3.77841 12.8333 1.16668 10.2216 1.16668 7C1.16668 3.77841 3.77841 1.16665 7 1.16665C9.68198 1.16665 12.1662 2.97251 12.8554 5.40876C12.9431 5.71875 13.2654 5.89898 13.5755 5.81128C13.8855 5.72359 14.0657 5.40121 13.978 5.09119C13.1442 2.14372 10.1952 0 7 0C3.13409 0 0 3.13409 0 7C0 10.8659 3.13409 14 7 14C7.32216 14 7.58332 13.7388 7.58332 13.4167C7.58332 13.0945 7.32216 12.8333 7 12.8333Z"
              fill="white"
            ></path>
            <path
              d="M6.99995 3.49994C6.67778 3.49994 6.41662 3.7611 6.41662 4.08326V6.41659H5.24995C4.92779 6.41659 4.66663 6.67775 4.66663 6.99991C4.66663 7.32207 4.92779 7.58323 5.24995 7.58323H6.99995C7.32211 7.58323 7.58327 7.32207 7.58327 6.99991V4.08326C7.58327 3.7611 7.32211 3.49994 6.99995 3.49994Z"
              fill="white"
            ></path>
            <path
              d="M12.25 9.33328H11.6667V8.16661H12.8334C13.1556 8.16661 13.4167 7.90545 13.4167 7.58329C13.4167 7.26112 13.1556 6.99996 12.8334 6.99996H11.6667V6.41664C11.6667 6.09447 11.4056 5.83331 11.0834 5.83331C10.7612 5.83331 10.5001 6.09447 10.5001 6.41664V6.99996H9.91675C8.95001 6.99996 8.16675 7.78322 8.16675 8.74996C8.16675 9.7167 8.95001 10.5 9.91675 10.5H10.5V11.6666H9.33337C9.01121 11.6666 8.75004 11.9278 8.75004 12.25C8.75004 12.5721 9.01121 12.8333 9.33337 12.8333H10.5V13.4166C10.5 13.7388 10.7612 13.9999 11.0834 13.9999C11.4055 13.9999 11.6667 13.7388 11.6667 13.4166V12.8333H12.25C13.2168 12.8333 14 12.05 14 11.0833C14 10.1165 13.2168 9.33328 12.25 9.33328ZM9.91672 9.33328C9.59431 9.33328 9.3334 9.07237 9.3334 8.74996C9.3334 8.42755 9.59431 8.16664 9.91672 8.16664H10.5V9.33331H9.91672V9.33328ZM12.25 11.6666H11.6667V10.4999H12.25C12.5725 10.4999 12.8334 10.7608 12.8334 11.0833C12.8334 11.4057 12.5725 11.6666 12.25 11.6666Z"
              fill="white"
            ></path>
          </svg>