<svg id="Capa_1" enable-background="new 0 0 512 512" height="512" viewBox="0 0 512 512" width="512" xmlns="http://www.w3.org/2000/svg"><g><path d="m402.184 139.581c-.03 0-.061 0-.092-.001-4.328-.039-8.788-2.651-12.897-7.554-3.549-4.234-9.855-4.788-14.088-1.239-4.232 3.548-4.788 9.854-1.24 14.087 5.287 6.307 11.518 10.723 18.134 12.979v12.147c0 5.522 4.478 10 10 10s10-4.478 10-10v-12.061c11.515-3.982 20.17-14.992 20.17-28.359 0-16.542-13.458-30-30-30-5.514 0-10-4.486-10-10 0-5.47 4.446-9.955 9.9-10 .024 0 .049-.001.073-.001 3.561 0 7.309 1.807 10.843 5.227 3.969 3.843 10.3 3.739 14.14-.231 3.841-3.969 3.737-10.299-.231-14.14-5.13-4.965-10.269-7.757-14.895-9.263v-11.172c0-5.522-4.478-10-10-10s-10 4.478-10 10v11.368c-11.541 4.19-19.83 15.282-19.83 28.212 0 16.542 13.458 30 30 30 5.514 0 10 4.486 10 10-.001 5.553-4.504 10.001-9.987 10.001z"/><path d="m17.072 57.072 22.928-22.929v417.857h-30c-5.522 0-10 4.478-10 10s4.478 10 10 10h30v30c0 5.522 4.478 10 10 10s10-4.478 10-10v-30h165c5.522 0 10-4.478 10-10s-4.478-10-10-10h-165v-171.019l96.64-72.935 94.216 56.529c3.933 2.359 8.971 1.74 12.216-1.504l68.538-68.538c19.721 16.486 44.36 25.467 70.39 25.467 60.654 0 110-49.346 110-110s-49.345-110-110-110-110 49.346-110 110c0 26.032 8.982 50.672 25.466 70.391l-63.016 63.017-93.306-55.983c-3.495-2.098-7.914-1.864-11.169.594l-89.975 67.906v-221.782l22.929 22.929c3.907 3.905 10.236 3.904 14.143 0 3.905-3.905 3.905-10.237 0-14.143l-40-40c-3.906-3.904-10.236-3.904-14.143 0l-40 40c-3.905 3.905-3.905 10.237 0 14.143 3.906 3.904 10.236 3.904 14.143 0zm294.928 52.928c0-49.626 40.374-90 90-90s90 40.374 90 90-40.374 90-90 90c-49.732 0-90-40.236-90-90z"/><path d="m469.072 414.929c-3.906-3.904-10.236-3.904-14.143 0-3.905 3.905-3.905 10.237 0 14.143l22.929 22.928h-162.858c-5.522 0-10 4.478-10 10s4.478 10 10 10h162.857l-22.929 22.929c-3.905 3.905-3.905 10.237 0 14.143 3.907 3.905 10.236 3.904 14.143 0l40-40c3.905-3.905 3.905-10.237 0-14.143z"/><path d="m110 412c5.522 0 10-4.478 10-10v-10h10c5.522 0 10-4.478 10-10v-86c0-5.522-4.478-10-10-10h-10v-10c0-5.522-4.478-10-10-10s-10 4.478-10 10v10h-10c-5.522 0-10 4.478-10 10v86c0 5.522 4.478 10 10 10h10v10c0 5.523 4.478 10 10 10zm-10-106h20v66h-20z"/><path d="m210 432c5.522 0 10-4.478 10-10v-10h10c5.522 0 10-4.478 10-10v-86c0-5.522-4.478-10-10-10h-10v-10c0-5.522-4.478-10-10-10s-10 4.478-10 10v10h-10c-5.522 0-10 4.478-10 10v86c0 5.522 4.478 10 10 10h10v10c0 5.523 4.478 10 10 10zm-10-106h20v66h-20z"/><path d="m310 412c5.522 0 10-4.478 10-10v-10h10c5.522 0 10-4.478 10-10v-86c0-5.522-4.478-10-10-10h-10v-10c0-5.522-4.478-10-10-10s-10 4.478-10 10v10h-10c-5.522 0-10 4.478-10 10v86c0 5.522 4.478 10 10 10h10v10c0 5.523 4.478 10 10 10zm-10-106h20v66h-20z"/><path d="m410 392c5.522 0 10-4.478 10-10v-10h10c5.522 0 10-4.478 10-10v-86c0-5.522-4.478-10-10-10h-10v-10c0-5.522-4.478-10-10-10s-10 4.478-10 10v10h-10c-5.522 0-10 4.478-10 10v86c0 5.522 4.478 10 10 10h10v10c0 5.523 4.478 10 10 10zm-10-106h20v66h-20z"/><circle cx="270" cy="462" r="10"/></g></svg>