<svg width="16" height="16" viewBox="0 0 16 16" xmlns="http://www.w3.org/2000/svg">
<path fill-rule="evenodd" clip-rule="evenodd" d="M11.4345 10.304L15.766 14.6352C16.078 14.9472 16.078 15.4544 15.766 15.7664C15.6091 15.9216 15.4043 16 15.2011 16C14.9963 16 14.7915 15.9215 14.6347 15.7664L10.3032 11.4352C9.21986 12.2783 7.87575 12.8 6.40047 12.8C2.87062 12.8 0 9.92954 0 6.39994C0 2.87034 2.87069 0 6.40054 0C9.93039 0 12.801 2.87042 12.801 6.40001C12.801 7.87677 12.2778 9.22078 11.4345 10.304ZM1.6001 6.39994C1.6001 9.04634 3.75389 11.2 6.40047 11.2C9.04704 11.2 11.2008 9.04634 11.2008 6.39994C11.2008 3.75355 9.04704 1.59991 6.40047 1.59991C3.75389 1.59991 1.6001 3.75355 1.6001 6.39994Z" />
</svg>
