<svg width="18" height="18" viewBox="0 0 18 18" fill="none" xmlns="http://www.w3.org/2000/svg">
<path d="M16.6824 1.63637H3.27271C3.23232 1.63637 3.19547 1.65156 3.15761 1.66295L2.82802 0.579847C2.7232 0.235406 2.40549 0 2.04544 0H0.409103C0.18317 0 0 0.18317 0 0.409103V1.22727C0 1.4532 0.18317 1.63637 0.409103 1.63637H1.43944L3.99546 10.0359L3.04083 11.1496C2.66352 11.5898 2.49362 12.1963 2.66728 12.7494C2.88938 13.4568 3.51372 13.909 4.23355 13.909H15.9545C16.1805 13.909 16.3636 13.7259 16.3636 13.4999V12.6818C16.3636 12.4558 16.1805 12.2727 15.9545 12.2727H4.23351L5.53031 10.7598C5.56291 10.7217 5.58688 10.6788 5.61162 10.6363H13.5391C14.1732 10.6363 14.7502 10.2701 15.0202 9.6964L17.8749 3.63023C17.9568 3.45565 18 3.26189 18 3.06971V2.95385C18 2.22627 17.4101 1.63637 16.6824 1.63637Z" fill="#3B4557"/>
<path d="M4.90902 18C5.81277 18 6.5454 17.2673 6.5454 16.3636C6.5454 15.4599 5.81277 14.7272 4.90902 14.7272C4.00527 14.7272 3.27264 15.4599 3.27264 16.3636C3.27264 17.2673 4.00527 18 4.90902 18Z" fill="#3B4557"/>
<path d="M14.7272 18C15.631 18 16.3636 17.2673 16.3636 16.3636C16.3636 15.4599 15.631 14.7272 14.7272 14.7272C13.8235 14.7272 13.0909 15.4599 13.0909 16.3636C13.0909 17.2673 13.8235 18 14.7272 18Z" fill="#3B4557"/>
</svg>
