<svg width="107" height="107" viewBox="0 0 107 107" fill="none" xmlns="http://www.w3.org/2000/svg">
<path d="M81.6562 96.9688C81.6552 97.8552 81.3059 98.7051 80.6849 99.332C80.0639 99.9588 79.222 100.311 78.3438 100.312H28.6562C27.778 100.311 26.9361 99.9588 26.3151 99.332C25.6941 98.7051 25.3448 97.8552 25.3438 96.9688V90.2812H22.0312V96.9688C22.0332 98.7418 22.7318 100.442 23.9738 101.695C25.2158 102.949 26.8998 103.654 28.6562 103.656H78.3438C80.1002 103.654 81.7841 102.949 83.0261 101.695C84.2682 100.442 84.9668 98.7418 84.9688 96.9688V91.9531H81.6562V96.9688Z" fill="#DE1616"/>
<path d="M81.6562 30.0938H84.9688V55.1719H81.6562V30.0938Z" fill="#DE1616"/>
<path d="M48.5312 10.0312H51.8438V13.375H48.5312V10.0312Z" fill="#DE1616"/>
<path d="M55.1562 10.0312H58.4688V13.375H55.1562V10.0312Z" fill="#DE1616"/>
<path d="M51.8438 93.625H55.1562V96.9688H51.8438V93.625Z" fill="#DE1616"/>
<path d="M93.7344 10.5209L84.968 19.3699V10.0312C84.9661 8.25823 84.2674 6.55839 83.0255 5.30467C81.7834 4.05095 80.0995 3.34574 78.343 3.34375H28.6555C26.8991 3.34574 25.2151 4.05095 23.9731 5.30467C22.7311 6.55839 22.0325 8.25823 22.0306 10.0312V15.0469H25.343V10.0312C25.3441 9.14475 25.6934 8.29487 26.3144 7.66802C26.9354 7.04118 27.7773 6.68855 28.6555 6.6875H78.343C79.2213 6.68855 80.0632 7.04118 80.6842 7.66802C81.3052 8.29487 81.6545 9.14475 81.6555 10.0312V22.7137L25.343 79.5574V51.8281H22.0306V82.9012L10.9219 94.1146L13.2642 96.4791L96.0767 12.8854L93.7344 10.5209Z" fill="#DE1616"/>
<path d="M34.2875 53.1656C34.5336 53.3519 34.8262 53.4654 35.1325 53.4933C35.4389 53.5211 35.7468 53.4624 36.0219 53.3235C36.2971 53.1846 36.5284 52.9712 36.6901 52.7071C36.8518 52.443 36.9375 52.1386 36.9375 51.8281V48.4844H40.25C42.0065 48.4824 43.6904 47.7772 44.9324 46.5235C46.1744 45.2697 46.873 43.5699 46.875 41.7969V25.0781C46.873 23.3051 46.1744 21.6053 44.9324 20.3515C43.6904 19.0978 42.0065 18.3926 40.25 18.3906H10.4375C8.68105 18.3926 6.9971 19.0978 5.7551 20.3515C4.5131 21.6053 3.81447 23.3051 3.8125 25.0781V41.7969C3.81447 43.5699 4.5131 45.2697 5.7551 46.5235C6.9971 47.7772 8.68105 48.4824 10.4375 48.4844H28.1041L34.2875 53.1656ZM7.125 41.7969V25.0781C7.12604 24.1916 7.47537 23.3417 8.09636 22.7149C8.71735 22.0881 9.55929 21.7354 10.4375 21.7344H40.25C41.1282 21.7354 41.9702 22.0881 42.5911 22.7149C43.2121 23.3417 43.5615 24.1916 43.5625 25.0781V41.7969C43.5615 42.6834 43.2121 43.5333 42.5911 44.1601C41.9702 44.787 41.1282 45.1396 40.25 45.1406H35.2812C34.842 45.1406 34.4207 45.3168 34.1101 45.6303C33.7995 45.9438 33.625 46.3691 33.625 46.8125V48.4844L29.65 45.475C29.3633 45.258 29.0146 45.1407 28.6562 45.1406H10.4375C9.55929 45.1396 8.71735 44.787 8.09636 44.1601C7.47537 43.5333 7.12604 42.6834 7.125 41.7969Z" fill="#DE1616"/>
<path d="M96.5625 58.5156H78.8959L72.7125 53.8344C72.4664 53.6481 72.1738 53.5346 71.8675 53.5067C71.5611 53.4789 71.2532 53.5376 70.9781 53.6765C70.7029 53.8153 70.4716 54.0288 70.3099 54.2929C70.1482 54.557 70.0625 54.8614 70.0625 55.1719V58.5156H66.75C64.9935 58.5176 63.3096 59.2228 62.0676 60.4765C60.8256 61.7303 60.127 63.4301 60.125 65.2031V81.9219C60.127 83.6949 60.8256 85.3947 62.0676 86.6484C63.3096 87.9022 64.9935 88.6074 66.75 88.6094H96.5625C98.319 88.6074 100.003 87.9022 101.245 86.6484C102.487 85.3947 103.186 83.6949 103.188 81.9219V65.2031C103.186 63.4301 102.487 61.7303 101.245 60.4765C100.003 59.2228 98.319 58.5176 96.5625 58.5156ZM99.875 81.9219C99.874 82.8084 99.5246 83.6583 98.9036 84.2851C98.2827 84.912 97.4407 85.2646 96.5625 85.2656H66.75C65.8718 85.2646 65.0298 84.912 64.4089 84.2851C63.7879 83.6583 63.4385 82.8084 63.4375 81.9219V65.2031C63.4385 64.3166 63.7879 63.4667 64.4089 62.8399C65.0298 62.213 65.8718 61.8604 66.75 61.8594H71.7188C72.158 61.8594 72.5793 61.6832 72.8899 61.3697C73.2005 61.0562 73.375 60.6309 73.375 60.1875V58.5156L77.35 61.525C77.6367 61.742 77.9854 61.8593 78.3438 61.8594H96.5625C97.4407 61.8604 98.2827 62.213 98.9036 62.8399C99.5246 63.4667 99.874 64.3166 99.875 65.2031V81.9219Z" fill="#DE1616"/>
<path d="M91.5938 71.8906H94.9062V75.2344H91.5938V71.8906Z" fill="#DE1616"/>
<path d="M77.8587 68.0572L75.5164 65.6928L68.8914 72.3803C68.7376 72.5355 68.6156 72.7198 68.5323 72.9227C68.4491 73.1255 68.4063 73.3429 68.4062 73.5625C68.4062 73.7821 68.4491 73.9995 68.5323 74.2023C68.6156 74.4052 68.7376 74.5895 68.8914 74.7447L75.5164 81.4322L77.8587 79.0678L74.0612 75.2344H88.2813V71.8906H74.0612L77.8587 68.0572Z" fill="#DE1616"/>
<path d="M12.0938 31.7656H15.4062V35.1094H12.0938V31.7656Z" fill="#DE1616"/>
<path d="M29.1413 38.9428L31.4837 41.3072L38.1087 34.6197C38.2625 34.4645 38.3845 34.2802 38.4677 34.0773C38.551 33.8745 38.5938 33.6571 38.5938 33.4375C38.5938 33.2179 38.551 33.0005 38.4677 32.7977C38.3845 32.5948 38.2625 32.4105 38.1087 32.2553L31.4837 25.5678L29.1413 27.9322L32.9389 31.7656H18.7188V35.1094H32.9389L29.1413 38.9428Z" fill="#DE1616"/>
</svg>
