  <svg
            width="14"
            height="14"
            viewBox="0 0 14 14"
            fill="none"
            xmlns="http://www.w3.org/2000/svg"
          >
            <path
              d="M6.73122 0.0558469C6.62445 0.102378 6.43561 0.299495 5.55408 1.27394C4.97644 1.91454 4.47558 2.48933 4.44275 2.55228C4.36881 2.69187 4.36068 2.93552 4.42362 3.08611C4.47558 3.21471 4.60704 3.3543 4.74934 3.42824C4.85069 3.48305 4.90807 3.48848 5.4967 3.49661L6.13173 3.5076V4.90098C6.13173 6.23955 6.13444 6.29707 6.18925 6.44209C6.22208 6.53244 6.29331 6.64463 6.36724 6.71856C6.6383 6.99775 7.03239 7.06898 7.37467 6.89927C7.57721 6.80078 7.69767 6.67474 7.79902 6.4585L7.87024 6.30792L7.87852 4.90369L7.88665 3.50218H8.42562C9.06621 3.50218 9.12916 3.4939 9.31257 3.38171C9.58363 3.21742 9.69311 2.86701 9.56436 2.57697C9.53153 2.50575 9.12088 2.02944 8.45845 1.29307C7.55508 0.293929 7.38537 0.115939 7.26776 0.0612712C7.09533 -0.0180893 6.90093 -0.0208017 6.73122 0.0558469Z"
              fill="white"
            ></path>
            <path
              d="M1.89423 6.20126C1.37682 6.27519 0.848559 6.4559 0.539252 6.66115C0.323009 6.80346 0.098487 7.05524 0.0438196 7.2141C0.00542392 7.32901 0 7.56437 0 9.23423C0 11.041 0.00271195 11.1313 0.0548102 11.2408C0.205395 11.5748 0.605053 11.8677 1.16072 12.0538C2.04767 12.3494 3.25478 12.3413 4.11976 12.0318L4.37982 11.9388V12.4068C4.37982 12.8174 4.3881 12.8941 4.43463 12.9981C4.62903 13.4252 5.1847 13.7536 6.03326 13.9371C6.27419 13.9919 6.39181 13.9973 6.98045 14C7.71953 14 7.90294 13.9753 8.40394 13.8166C9.00885 13.6222 9.41679 13.3212 9.57008 12.9597C9.59749 12.8914 9.61119 12.7381 9.6139 12.4122C9.61662 12.1631 9.63032 11.9606 9.64402 11.9606C9.65772 11.9606 9.77263 11.9961 9.89852 12.0427C10.9004 12.3958 12.3484 12.3301 13.2217 11.8921C13.5966 11.7033 13.8895 11.4158 13.9608 11.1667C13.9772 11.1119 13.9882 10.6603 13.9882 10.0826C13.9882 8.93563 13.9882 8.9302 13.7499 8.67571C13.4789 8.38282 13.1093 8.18841 12.551 8.0461C12.1075 7.93391 11.7407 7.89823 11.1904 7.9175C10.4102 7.94219 9.7642 8.10905 9.30431 8.4048L9.17571 8.48687L9.07165 8.41565C8.81987 8.24322 8.40651 8.08721 7.95204 7.99129C7.5962 7.91736 6.81602 7.88724 6.40537 7.93377C6.09064 7.97217 5.58964 8.09264 5.3871 8.18013L5.25564 8.23494V7.88453C5.25564 7.51228 5.22281 7.26306 5.1543 7.13175C5.08593 6.99757 4.8477 6.76763 4.65886 6.6473C4.31944 6.43377 3.85684 6.28048 3.30931 6.1984C2.95361 6.14916 2.25007 6.14916 1.89423 6.20126ZM3.25749 7.07437C3.7064 7.1483 4.19369 7.32615 4.2348 7.43292C4.29503 7.59164 3.64345 7.8243 2.95647 7.88453C2.33229 7.93934 1.6042 7.838 1.21553 7.64088C0.919926 7.4903 0.919926 7.43277 1.21011 7.28776C1.39352 7.19469 1.70283 7.10434 1.98473 7.06323C2.26377 7.02241 2.97274 7.03055 3.25749 7.07437ZM1.13331 8.53626C2.00928 8.84556 3.20554 8.85099 4.06238 8.54725C4.16914 8.50885 4.28404 8.47331 4.31973 8.46517L4.37996 8.45147V8.87839V9.30817L4.25949 9.36012C3.76135 9.57365 2.92364 9.68855 2.26948 9.6366C1.82601 9.60106 1.5304 9.54354 1.17185 9.42307L0.876249 9.32729V8.89209C0.876249 8.65116 0.884528 8.4569 0.892664 8.4569C0.900657 8.45675 1.01013 8.49244 1.13331 8.53626ZM7.63731 8.82644C8.08621 8.90037 8.57351 9.07822 8.61462 9.18499C8.63917 9.25064 8.54896 9.32458 8.33272 9.41493C7.71953 9.66943 6.7368 9.72424 6.01413 9.54082C5.65558 9.45047 5.3654 9.29989 5.3654 9.20411C5.3654 9.10006 5.87183 8.89209 6.29332 8.82644C6.62447 8.77705 7.31702 8.77705 7.63731 8.82644ZM12.0171 8.82644C12.1594 8.85099 12.3456 8.88938 12.4278 8.91407C12.6523 8.97702 12.9726 9.13032 12.9944 9.18513C13.0218 9.2535 12.9041 9.34114 12.655 9.43691C12.0418 9.67228 11.0892 9.7161 10.394 9.54097C10.0354 9.45061 9.74522 9.30003 9.74522 9.20425C9.74522 9.09749 10.2407 8.89495 10.676 8.82658C11.0043 8.77705 11.6995 8.77705 12.0171 8.82644ZM4.35798 11.0628C4.31416 11.1066 3.85698 11.2489 3.5805 11.3037C2.83871 11.457 1.92706 11.4159 1.24822 11.2024C1.12775 11.1641 0.993577 11.1148 0.952612 11.0956L0.875964 11.0545V10.6329C0.875964 10.4002 0.881388 10.2085 0.886954 10.2085C0.892378 10.2085 1.02655 10.2524 1.18527 10.3043C1.63688 10.4549 2.03654 10.5151 2.61419 10.5151C3.19997 10.5151 3.59692 10.4549 4.06494 10.2962L4.36612 10.1948L4.37425 10.6163C4.37711 10.8493 4.37154 11.0491 4.35798 11.0628ZM5.56509 10.3046C6.0167 10.4552 6.41636 10.5154 6.99401 10.5154C7.57151 10.5154 7.97131 10.4552 8.42292 10.3046C8.58165 10.2526 8.72124 10.2088 8.73766 10.2088C8.75407 10.2088 8.75964 10.3703 8.75407 10.6386L8.74593 11.0711L8.44476 11.1724C7.99044 11.3257 7.57979 11.3887 7.02127 11.3914C6.37254 11.3914 5.77848 11.2927 5.3734 11.1122L5.25564 11.0602V10.6359C5.25564 10.4005 5.26106 10.2088 5.26663 10.2088C5.2722 10.2087 5.40637 10.2525 5.56509 10.3046ZM9.94491 10.3046C10.3965 10.4552 10.7963 10.5154 11.3738 10.5154C11.9513 10.5154 12.3511 10.4552 12.8027 10.3046C12.9615 10.2526 13.0956 10.2088 13.1011 10.2088C13.1065 10.2088 13.112 10.4032 13.112 10.644V11.0792L12.8192 11.175C11.9186 11.4733 10.8291 11.4733 9.9312 11.175L9.6356 11.0792V10.644C9.6356 10.4031 9.64102 10.2088 9.64659 10.2088C9.65201 10.2087 9.78618 10.2525 9.94491 10.3046ZM8.75407 12.3987L8.74593 12.8203L8.49129 12.9106C8.04239 13.0694 7.76863 13.1132 7.13075 13.1296C6.62703 13.1433 6.51213 13.1379 6.21367 13.0858C5.86883 13.0283 5.47188 12.9188 5.33229 12.8477L5.25564 12.8066V12.385C5.25564 12.1523 5.26378 11.9606 5.27205 11.9606C5.28019 11.9606 5.39252 11.9961 5.51841 12.0427C6.17813 12.2753 7.14987 12.3356 7.89723 12.1933C8.12718 12.1494 8.60891 12.0071 8.67742 11.9633C8.69926 11.9469 8.72666 11.9442 8.74037 11.9579C8.75136 11.9689 8.75692 12.1687 8.75407 12.3987Z"
              fill="white"
            ></path>
          </svg>