<svg width="120" height="120" viewBox="0 0 120 120" fill="none" xmlns="http://www.w3.org/2000/svg">
<circle cx="60" cy="60" r="58.125" stroke="white" stroke-width="3.75"/>
<path d="M67.0312 77.4375H68.5938C68.9844 77.4375 69.375 77.1445 69.375 76.6562V50.0938C69.375 49.7031 68.9844 49.3125 68.5938 49.3125H67.0312C66.543 49.3125 66.25 49.7031 66.25 50.0938V76.6562C66.25 77.1445 66.543 77.4375 67.0312 77.4375ZM51.4062 77.4375H52.9688C53.3594 77.4375 53.75 77.1445 53.75 76.6562V50.0938C53.75 49.7031 53.3594 49.3125 52.9688 49.3125H51.4062C50.918 49.3125 50.625 49.7031 50.625 50.0938V76.6562C50.625 77.1445 50.918 77.4375 51.4062 77.4375ZM81.0938 41.5H70.9375L67.6172 37.2031C66.8359 36.1289 65.1758 35.25 63.9062 35.25H56.0938C54.7266 35.25 53.0664 36.1289 52.2852 37.2031L49.0625 41.5H38.9062C38.418 41.5 38.125 41.8906 38.125 42.2812V43.8438C38.125 44.332 38.418 44.625 38.9062 44.625H41.25V80.5625C41.25 83.1992 43.3008 85.25 45.9375 85.25H74.0625C76.6016 85.25 78.75 83.1992 78.75 80.5625V44.625H81.0938C81.4844 44.625 81.875 44.332 81.875 43.8438V42.2812C81.875 41.8906 81.4844 41.5 81.0938 41.5ZM54.8242 39.0586C55.0195 38.668 55.6055 38.4727 56.0938 38.375H63.9062C64.2969 38.4727 64.8828 38.668 65.0781 39.0586L67.0312 41.5H52.9688L54.8242 39.0586ZM75.625 80.5625C75.625 81.4414 74.8438 82.125 74.0625 82.125H45.9375C45.0586 82.125 44.375 81.4414 44.375 80.5625V44.625H75.625V80.5625ZM59.2188 77.4375H60.7812C61.1719 77.4375 61.5625 77.1445 61.5625 76.6562V50.0938C61.5625 49.7031 61.1719 49.3125 60.7812 49.3125H59.2188C58.7305 49.3125 58.4375 49.7031 58.4375 50.0938V76.6562C58.4375 77.1445 58.7305 77.4375 59.2188 77.4375Z" fill="white"/>
</svg>
