<svg width="17" height="16" viewBox="0 0 17 16" fill="none" xmlns="http://www.w3.org/2000/svg">
<path d="M5.58678 1.44H5.42678C5.51478 1.44 5.58678 1.368 5.58678 1.28V1.44H11.6668V1.28C11.6668 1.368 11.7388 1.44 11.8268 1.44H11.6668V2.88H13.1068V1.28C13.1068 0.574 12.5328 0 11.8268 0H5.42678C4.72078 0 4.14678 0.574 4.14678 1.28V2.88H5.58678V1.44ZM15.6668 2.88H1.58678C1.23278 2.88 0.946777 3.166 0.946777 3.52V4.16C0.946777 4.248 1.01878 4.32 1.10678 4.32H2.31478L2.80878 14.78C2.84078 15.462 3.40478 16 4.08678 16H13.1668C13.8508 16 14.4128 15.464 14.4448 14.78L14.9388 4.32H16.1468C16.2348 4.32 16.3068 4.248 16.3068 4.16V3.52C16.3068 3.166 16.0208 2.88 15.6668 2.88ZM13.0128 14.56H4.24078L3.75678 4.32H13.4968L13.0128 14.56Z" fill="#FF716A"/>
</svg>
