<svg width="63" height="51" viewBox="0 0 63 51" fill="none" xmlns="http://www.w3.org/2000/svg">
<path d="M57.0859 23.6875L62.457 18.3164C62.75 18.0234 62.75 17.5352 62.457 17.2422L61.3828 16.168C61.0898 15.875 60.6016 15.875 60.3086 16.168L54.9375 21.5391L49.5664 16.168C49.1758 15.875 48.6875 15.875 48.3945 16.168L47.3203 17.2422C47.0273 17.5352 47.0273 18.0234 47.3203 18.3164L52.6914 23.6875L47.3203 29.0586C47.0273 29.4492 47.0273 29.9375 47.3203 30.2305L48.3945 31.3047C48.6875 31.5977 49.1758 31.5977 49.5664 31.3047L54.9375 25.9336L60.3086 31.3047C60.6016 31.5977 61.0898 31.5977 61.3828 31.3047L62.457 30.2305C62.75 29.9375 62.75 29.4492 62.457 29.0586L57.0859 23.6875ZM22.125 25.25C28.9609 25.25 34.625 19.6836 34.625 12.75C34.625 5.91406 28.9609 0.25 22.125 0.25C15.1914 0.25 9.625 5.91406 9.625 12.75C9.625 19.6836 15.1914 25.25 22.125 25.25ZM22.125 3.375C27.2031 3.375 31.5 7.67188 31.5 12.75C31.5 17.9258 27.2031 22.125 22.125 22.125C16.9492 22.125 12.75 17.9258 12.75 12.75C12.75 7.67188 16.9492 3.375 22.125 3.375ZM30.8164 28.375C27.9844 28.375 26.7148 29.9375 22.125 29.9375C17.4375 29.9375 16.168 28.375 13.3359 28.375C6.10938 28.375 0.25 34.332 0.25 41.5586V45.5625C0.25 48.1992 2.30078 50.25 4.9375 50.25H39.3125C41.8516 50.25 44 48.1992 44 45.5625V41.5586C44 34.332 38.043 28.375 30.8164 28.375ZM40.875 45.5625C40.875 46.4414 40.0938 47.125 39.3125 47.125H4.9375C4.05859 47.125 3.375 46.4414 3.375 45.5625V41.5586C3.375 35.9922 7.76953 31.5 13.3359 31.5C15.2891 31.5 17.1445 33.0625 22.125 33.0625C27.0078 33.0625 28.9609 31.5 30.8164 31.5C36.3828 31.5 40.875 35.9922 40.875 41.5586V45.5625Z" fill="white"/>
</svg>
