<svg width="16" height="19" viewBox="0 0 16 19" fill="none" xmlns="http://www.w3.org/2000/svg">
<path d="M11.9375 1.375C11.9375 1.375 11.9375 1.375 11.9023 1.375C11.2344 1.375 10.2148 1.69141 9.65234 2.00781C8.87891 0.988281 7.40234 0.25 5.71484 0.25C3.42969 0.25 1.56641 1.51562 1.25 3.13281C1.17969 3.41406 1.42578 3.625 1.74219 3.625H2.9375L3.5 2.5L4.16797 3.83594C3.92188 4.1875 3.74609 4.53906 3.64062 4.92578C3.35938 5.875 3.46484 7 4.41406 8.05469C4.44922 8.08984 4.55469 8.125 4.625 8.125C4.69531 8.125 4.76562 8.08984 4.80078 8.05469L7.15625 5.66406C6.94531 8.33594 6.03125 11.043 5.36328 12.6602H4.625H4.58984C2.12891 12.6602 0.0898438 14.6641 0.0898438 17.1602C0.0898438 17.1602 0.0898438 17.1953 0.125 17.2305C0.125 17.793 0.652344 18.25 1.25 18.25H12.5C13.0625 18.25 13.5898 17.793 13.625 17.2305C13.6602 15.0859 12.1836 13.293 10.2148 12.8008C10.9531 8.96875 10.5664 5.17188 10.4961 4.75H13.0625L13.625 3.625L14.1875 4.75H15.418C15.418 4.78516 15.418 4.78516 15.418 4.78516C15.6641 4.78516 15.8398 4.57422 15.8398 4.32812C15.8398 4.32812 15.8398 4.29297 15.8398 4.25781C15.5586 2.64062 13.9414 1.375 11.9375 1.375ZM8.87891 5.55859C8.98438 6.82422 9.08984 9.77734 8.49219 12.625H7.19141C7.85938 10.832 8.70312 8.19531 8.87891 5.55859ZM11.8672 16.5625H1.84766C2.09375 15.332 3.32422 14.3477 4.625 14.3125H9.125C10.3906 14.3477 11.6211 15.332 11.8672 16.5625Z" fill="#2D9CDB"/>
</svg>
