<svg width="16" height="13" viewBox="0 0 16 13" fill="none" xmlns="http://www.w3.org/2000/svg">
<path d="M14.3984 6.125L15.3828 5.16406C15.5234 5.02344 15.5234 4.78906 15.3828 4.625L15.125 4.36719C14.9609 4.22656 14.7266 4.22656 14.5859 4.36719L13.625 5.35156L12.6406 4.36719C12.5 4.22656 12.2656 4.22656 12.125 4.36719L11.8438 4.625C11.7031 4.78906 11.7031 5.02344 11.8438 5.16406L12.8281 6.125L11.8438 7.10938C11.7031 7.25 11.7031 7.48438 11.8438 7.625L12.125 7.90625C12.2656 8.04688 12.5 8.04688 12.6406 7.90625L13.625 6.92188L14.5859 7.90625C14.7266 8.04688 14.9609 8.04688 15.125 7.90625L15.3828 7.625C15.5234 7.48438 15.5234 7.25 15.3828 7.10938L14.3984 6.125ZM5.75 7.25C7.60156 7.25 9.125 5.75 9.125 3.875C9.125 2.02344 7.60156 0.5 5.75 0.5C3.875 0.5 2.375 2.02344 2.375 3.875C2.375 5.75 3.875 7.25 5.75 7.25ZM5.75 1.625C6.96875 1.625 8 2.65625 8 3.875C8 5.11719 6.96875 6.125 5.75 6.125C4.50781 6.125 3.5 5.11719 3.5 3.875C3.5 2.65625 4.50781 1.625 5.75 1.625ZM7.83594 7.625C7.15625 7.625 6.85156 8 5.75 8C4.625 8 4.32031 7.625 3.64062 7.625C1.90625 7.625 0.5 9.05469 0.5 10.7891V11.375C0.5 12.0078 0.992188 12.5 1.625 12.5H9.875C10.4844 12.5 11 12.0078 11 11.375V10.7891C11 9.05469 9.57031 7.625 7.83594 7.625ZM9.875 11.375H1.625V10.7891C1.625 9.66406 2.51562 8.75 3.64062 8.75C3.99219 8.75 4.53125 9.125 5.75 9.125C6.94531 9.125 7.48438 8.75 7.83594 8.75C8.96094 8.75 9.875 9.66406 9.875 10.7891V11.375Z" fill="#cd0101"/>
</svg>
