<svg xmlns="http://www.w3.org/2000/svg" xmlns:xlink="http://www.w3.org/1999/xlink" width="106" height="106" viewBox="0 0 106 106"><defs><path id="a" d="M937.11 352.82a37.21 37.21 0 0 1-12.49 12.45 29.29 29.29 0 0 1-17.83 3.96 24.09 24.09 0 0 1-5.84 4.67 6.03 6.03 0 0 0-2.97 4.06 5.09 5.09 0 0 1-.14 9.76v6.48h8.35v6.76h8.25V414h-46.88v-13.04h8.25v-6.76h8.36v-6.48a5.09 5.09 0 0 1-.14-9.76 6.09 6.09 0 0 0-2.97-4.06 23.71 23.71 0 0 1-5.85-4.67l-.16.02a29.19 29.19 0 0 1-17.67-3.98 37.21 37.21 0 0 1-12.49-12.45c-4.01-6.56-5.99-14.29-5.89-22.98.11-8.83 4.62-13.69 12.72-13.69 3.14 0 6.16.73 8.14 1.34-.2-3.63-.21-5.89-.21-5.95V310h62.7v1.54c0 .12-.01 2.34-.2 5.95a28.46 28.46 0 0 1 8.13-1.34c8.1 0 12.61 4.86 12.72 13.69.1 8.69-1.88 16.42-5.89 22.98zm-74.34-39.73l.07 2.11h56.32c.04-.84.06-1.55.07-2.11zm50.49 46.26c2.22-.23 4.87-.88 7.33-2.46 7.07-4.54 11.79-13.03 13.28-23.9.36-2.61.04-4.51-.94-5.64-.86-.98-2.33-1.48-4.36-1.48-2.43 0-5.14.7-7.24 1.4-1.1 9.81-3.37 22.2-8.07 32.08zm-52.59-32.08a24.56 24.56 0 0 0-7.24-1.4c-2.03 0-3.5.5-4.36 1.48-.98 1.13-1.3 3.03-.94 5.64 1.49 10.87 6.21 19.36 13.28 23.9a16.72 16.72 0 0 0 7.33 2.46 8.32 8.32 0 0 1-.25-.52c-2.62-5.65-4.71-12.65-6.23-20.8a152.7 152.7 0 0 1-1.59-10.76zm12.12 39.02a2.55 2.55 0 0 0-.14-.21l-.31-.44-.32-.47-.32-.48-.18-.28-.46-.74a5.5 5.5 0 0 0-.15-.25l-.48-.82-.03-.05a20.53 20.53 0 0 1-10.66-3.07 29.1 29.1 0 0 1-9.5-10.17c-2.6-4.5-4.34-9.85-5.17-15.9-.48-3.54.08-6.26 1.67-8.09 1.47-1.68 3.72-2.54 6.69-2.54 2.32 0 4.8.53 6.9 1.15-.1-1.04-.19-2.08-.26-3.11a26.65 26.65 0 0 0-8.35-1.58c-6.39 0-9.54 3.48-9.63 10.64-.24 20.24 11.73 29.64 16.88 32.74a26.15 26.15 0 0 0 13.44 3.67h.38zm-2.14 37.76v6.86h40.7v-6.86zm8.25-6.76v3.67h24.2v-3.67zm8.35-3.09h7.5v-6.29h-7.5zm9.22-13.38h-10.94a2 2 0 0 0 0 4h10.94a2 2 0 0 0 2-2 2 2 0 0 0-2-2zm12.87-20.55l.44-.82c5-9.65 7.37-22.47 8.49-32.53l.1-.95c.17-1.57.31-3.16.44-4.75v-.04l.11-1.5v-.06l.09-1.34h-56c.6 9.86 2.61 28.41 9.25 41.24l.41.75a33.87 33.87 0 0 0 4.3 6.3l.38.43a20.75 20.75 0 0 0 5.21 4.2 9.2 9.2 0 0 1 4.57 6.53h7.74a9.2 9.2 0 0 1 4.57-6.53 21.17 21.17 0 0 0 5.59-4.63l.03-.02.51-.61.11-.14.46-.57.05-.07a37.46 37.46 0 0 0 3.15-4.89zm30.57-30.39c-.09-7.16-3.24-10.64-9.63-10.64-3.42 0-6.8 1.03-8.35 1.58v.08c-.07.96-.16 1.97-.26 3.03a25.3 25.3 0 0 1 6.9-1.15c2.97 0 5.22.86 6.69 2.54 1.59 1.83 2.16 4.55 1.67 8.09-.83 6.05-2.57 11.4-5.17 15.9a29.1 29.1 0 0 1-9.5 10.17 20.53 20.53 0 0 1-10.66 3.07l-.09.16-.42.72a17.2 17.2 0 0 1-.61.97l-.12.2-.49.73a.67.67 0 0 1-.07.11l-.59.84-.01.01h.39c3.35 0 8.4-.64 13.44-3.67 5.15-3.1 17.11-12.5 16.88-32.74z"/><path id="b" d="M879.05 360l-3.05 1.92a31.2 31.2 0 0 0 3.33 4.08l2.67-2.38a27.25 27.25 0 0 1-2.95-3.62z"/><path id="c" d="M871.17 342l-3.17.69c1.56 6.54 3.64 12.02 6.18 16.31l2.82-1.54c-2.39-4.02-4.35-9.22-5.83-15.46z"/><path id="d" d="M930 378.17v-3.35l-2.83.01V372h-3.35l.01 2.83H921v3.35l2.83-.01V381h3.35l-.01-2.83z"/><path id="e" d="M863 393.65v-3.31h-2.35V388h-3.31v2.35H855v3.31h2.35V396h3.31v-2.35z"/><path id="f" d="M849 372v-3h3v3z"/><path id="g" d="M867 380v-3h3v3z"/><path id="h" d="M915 390v-3h3v3z"/></defs><g transform="translate(-838 -309)"><use fill="#fff" xlink:href="#a"/><use fill="#fff" fill-opacity="0" stroke="#4a90e2" stroke-miterlimit="50" stroke-width=".5" xlink:href="#a"/></g><g transform="translate(-838 -309)"><use fill="#fff" xlink:href="#b"/><use fill="#fff" fill-opacity="0" stroke="#4a90e2" stroke-miterlimit="50" stroke-width=".5" xlink:href="#b"/></g><g transform="translate(-838 -309)"><use fill="#fff" xlink:href="#c"/><use fill="#fff" fill-opacity="0" stroke="#4a90e2" stroke-miterlimit="50" stroke-width=".5" xlink:href="#c"/></g><g transform="translate(-838 -309)"><use fill="#fff" xlink:href="#d"/><use fill="#fff" fill-opacity="0" stroke="#4a90e2" stroke-miterlimit="50" stroke-width=".5" xlink:href="#d"/></g><g transform="translate(-838 -309)"><use fill="#fff" xlink:href="#e"/><use fill="#fff" fill-opacity="0" stroke="#4a90e2" stroke-miterlimit="50" stroke-width=".5" xlink:href="#e"/></g><g transform="translate(-838 -309)"><use fill="#fff" xlink:href="#f"/><use fill="#fff" fill-opacity="0" stroke="#4a90e2" stroke-miterlimit="50" stroke-width=".5" xlink:href="#f"/></g><g transform="translate(-838 -309)"><use fill="#fff" xlink:href="#g"/><use fill="#fff" fill-opacity="0" stroke="#4a90e2" stroke-miterlimit="50" stroke-width=".5" xlink:href="#g"/></g><g transform="translate(-838 -309)"><use fill="#fff" xlink:href="#h"/><use fill="#fff" fill-opacity="0" stroke="#4a90e2" stroke-miterlimit="50" stroke-width=".5" xlink:href="#h"/></g></svg>