<svg xmlns="http://www.w3.org/2000/svg" xmlns:xlink="http://www.w3.org/1999/xlink" width="38" height="44" viewBox="0 0 38 44"><defs><path id="a" d="M595.75 168.78c5.04 0 5.09-7.78.06-7.78-5.05 0-5.09 7.78-.06 7.78z"/><path id="b" d="M623.83 185.2c-.31-1.13-1.69-2.09-2.88-1.63-1.87.73-3.72 1.48-5.63 2.07-.67-.71-5.91-7.62-7.54-9.94 1.8.27 3.6.49 5.41.64 3.02.24 2.99-4.43 0-4.67-3.21-.27-9.82-1.53-9.96-1.54-3.36-.52-4.88.45-5.72 4.03a19.43 19.43 0 0 1-1 3.08c-1.52-.24-3.04-.48-4.55-.74-1.26-.2-2.52.31-2.89 1.64-.31 1.12.38 2.66 1.64 2.87 2.14.35 4.28.68 6.42 1.04 1.16.19 2-.13 2.77-1.34.24-.36.7-1.17.84-1.5l5.33 7.59s-3.62 4.58-3.86 4.91c-.25.33-.42.74-.47 1.23 0 0-.26 5.19-.26 7.78 0 3.01 4.69 3.01 4.69 0l.18-6.76 4.24-5.67c-.06-.12 1.54 1.55 1.54 1.55.83.75 1.47.99 2.68.79 2.54-.62 4.96-1.61 7.39-2.55 1.18-.47 1.99-1.55 1.63-2.88z"/></defs><g opacity=".4" transform="translate(-588 -160)"><use fill="#fff" fill-opacity="0" stroke="#979797" stroke-miterlimit="50" stroke-width="2" xlink:href="#a"/></g><g opacity=".4" transform="translate(-588 -160)"><use fill="#fff" fill-opacity="0" stroke="#979797" stroke-miterlimit="50" stroke-width="2" xlink:href="#b"/></g></svg>