<svg xmlns="http://www.w3.org/2000/svg" xmlns:xlink="http://www.w3.org/1999/xlink" width="49" height="42" viewBox="0 0 49 42"><defs><path id="a" d="M880.88 201.91c0 .64-.51 1.15-1.15 1.15h-45.57a1.15 1.15 0 1 1 0-2.3h1.19v-9.95a3.25 3.25 0 0 1 3.28-3.29l.24.01 2.89.21a4.81 4.81 0 0 1 9.4-2.09h22.99a4.38 4.38 0 0 1 4.39 4.36v10.75h1.19c.64 0 1.15.51 1.15 1.15zm-6.73-13.96H851.3v8.4h24.93v-6.34c0-1.13-.93-2.06-2.08-2.06zm-29.91-.03l4.75.34v-1.46a2.5 2.5 0 1 0-4.75 1.12zm-6.58 4.03h11.33v-1.39l-10.28-.73a.96.96 0 0 0-1.05.98zm0 8.81h38.57v-2.11h-26.09c-.63 0-1.15-.51-1.15-1.15v-3.25h-11.33z"/><path id="b" d="M850.41 177.45l2.22-2.38h-1.09a1.54 1.54 0 0 1 0-3.07h4.66l.09.01h.07l.07.02.08.01.07.02.07.02.07.03.07.03.07.03.06.03.07.04.06.05a.2.2 0 0 1 .06.04l.06.05.04.03.02.02.05.06.05.05.05.06.05.06.03.06.05.07.03.06.03.07.03.07.02.07.02.07.02.07.02.08.01.07v.07l.01.09v.06l-.01.09v.07l-.02.08-.01.07-.02.07-.02.07-.03.07-.03.07-.03.07-.04.07-.03.06-.05.06-.04.06-.06.06-.02.04-2.22 2.38h1.09a1.53 1.53 0 1 1 0 3.06h-4.62l-.15-.01h-.05l-.1-.02-.06-.01-.08-.02-.06-.02-.08-.03-.06-.03-.07-.03-.06-.03-.07-.05-.05-.04-.07-.04-.05-.05-.04-.03-.02-.02-.05-.06a.12.12 0 0 1-.05-.05l-.05-.06a.27.27 0 0 0-.05-.06l-.03-.06-.05-.07-.03-.06-.03-.07-.03-.07a.14.14 0 0 1-.02-.07.19.19 0 0 1-.02-.07l-.02-.07-.02-.08-.01-.07v-.07l-.01-.09v-.02-.04l.01-.09v-.07l.02-.07.01-.08.02-.07.02-.07.03-.07.03-.07.03-.07a.2.2 0 0 1 .04-.06l.03-.07.05-.06.04-.06.06-.06.02-.03z"/><path id="c" d="M859.36 171.77l1.94-2.09h-.95a1.34 1.34 0 1 1 0-2.68h4.08l.07.01h.06l.07.01.07.02.06.01.06.02.06.02.06.03.06.03.06.03.06.03.05.04.06.04.05.04.03.03.02.02.05.05.04.04.04.05.04.06.03.05.04.06.03.05.03.07.02.06.02.06.02.06.02.06.01.07.01.06v.07l.01.07v.06l-.01.07v.06l-.01.07-.02.06-.01.07-.02.06-.02.06-.03.06-.03.06-.03.06-.03.05-.04.06-.04.05a.27.27 0 0 1-.05.06l-.02.02-1.94 2.09h.95a1.34 1.34 0 1 1 0 2.68h-4.17l-.05-.01-.08-.01-.06-.02-.07-.01a.08.08 0 0 0-.05-.02l-.07-.03-.05-.02-.06-.03-.05-.03a.16.16 0 0 1-.07-.04.22.22 0 0 0-.05-.03.22.22 0 0 0-.05-.04l-.05-.04-.03-.03-.02-.01a.27.27 0 0 0-.05-.06l-.04-.04-.04-.05-.04-.06a.22.22 0 0 1-.03-.05l-.04-.06-.03-.05a.49.49 0 0 1-.03-.07l-.02-.06-.02-.06-.02-.06-.02-.06-.01-.07-.01-.06v-.06l-.01-.08v-.02-.04l.01-.07v-.06l.01-.07.02-.06.01-.07.02-.06.02-.06.03-.06.03-.06.03-.06.03-.05.04-.06.04-.05a.27.27 0 0 1 .05-.06l.02-.02z"/><path id="d" d="M852.27 166.54l1.44-1.55H853a1 1 0 1 1 0-1.99H856.08l.05.01.05.01a.1.1 0 0 1 .05.01l.04.01.05.01.05.02.04.02.05.02.04.02.04.03.04.03.04.02.04.04.02.02.01.01.04.04.03.03.03.04.03.04.03.04.02.04.02.04.03.05.01.04.02.05.01.05.02.04.01.05v.05l.01.04v.16l-.01.04-.01.05-.01.05-.01.05-.01.04-.02.05-.02.04-.02.05-.02.04-.03.04-.03.04-.02.04-.04.04-.02.02-1.44 1.55h.71a1 1 0 1 1 0 1.99h-3l-.1-.01h-.03l-.06-.01-.04-.01-.05-.01-.05-.02-.05-.01-.03-.02-.05-.02a.08.08 0 0 0-.04-.02l-.04-.03-.04-.03-.04-.03-.04-.03-.02-.02-.01-.01a.08.08 0 0 1-.04-.04l-.03-.03-.03-.04-.03-.04-.03-.04a.08.08 0 0 1-.02-.04l-.02-.04-.03-.05-.01-.04-.02-.05-.01-.05-.02-.04v-.05l-.01-.05-.01-.04v-.06-.02-.02-.06l.01-.04.01-.05.01-.05.01-.05.01-.04.02-.05.02-.04.02-.05a.08.08 0 0 0 .02-.04l.03-.04.03-.04.02-.04.04-.04.02-.02z"/></defs><g opacity=".4" transform="translate(-832 -162)"><use fill="#979797" xlink:href="#a"/><use fill="#fff" fill-opacity="0" stroke="#fff" stroke-miterlimit="50" stroke-width=".2" xlink:href="#a"/></g><g opacity=".4" transform="translate(-832 -162)"><use fill="#979797" xlink:href="#b"/><use fill="#fff" fill-opacity="0" stroke="#fff" stroke-miterlimit="50" stroke-width="1.2" xlink:href="#b"/></g><g opacity=".4" transform="translate(-832 -162)"><use fill="#979797" xlink:href="#c"/><use fill="#fff" fill-opacity="0" stroke="#fff" stroke-miterlimit="50" xlink:href="#c"/></g><g opacity=".4" transform="translate(-832 -162)"><use fill="#979797" xlink:href="#d"/><use fill="#fff" fill-opacity="0" stroke="#fff" stroke-miterlimit="50" stroke-width=".5" xlink:href="#d"/></g></svg>