<svg xmlns="http://www.w3.org/2000/svg" xmlns:xlink="http://www.w3.org/1999/xlink" width="24" height="24" viewBox="0 0 24 24"><defs><path id="hbx0a" d="M156.25 252.21H145V241c1.52 0 2.98.3 4.37.9 1.39.59 2.59 1.39 3.59 2.38a11.24 11.24 0 0 1 3.29 7.93zm-1.46-1.35a9.73 9.73 0 0 0-2.81-5.61 9.47 9.47 0 0 0-5.62-2.79v8.4z"/><path id="hbx0b" d="M143.21 253.21h11.25c0 1.53-.3 2.99-.89 4.38a11.07 11.07 0 0 1-5.98 5.97 11.1 11.1 0 0 1-8.74 0c-1.38-.6-2.57-1.4-3.57-2.4a11.1 11.1 0 0 1-3.28-7.95A11.21 11.21 0 0 1 143.21 242zm-1.35 1.39v-11.15a9.9 9.9 0 0 0-2.48 18.87 9.68 9.68 0 0 0 7.37.12 9.98 9.98 0 0 0 3-1.78 10.02 10.02 0 0 0 3.25-6.06z"/></defs><g><g transform="translate(-132 -241)"><use fill="#55ab80" xlink:href="#hbx0a"/></g><g transform="translate(-132 -241)"><use fill="#55ab80" xlink:href="#hbx0b"/></g></g></svg>