<svg width="19" height="12" viewBox="0 0 19 12" fill="none" xmlns="http://www.w3.org/2000/svg">
<path d="M7.63802 3.40885L9.52865 1.6901C9.72917 1.48958 10.0156 1.40365 10.3021 1.40365L12.7083 1.375C12.7656 1.375 12.8229 1.40365 12.8516 1.46094L14.6276 3.20833H18.2083C18.4375 3.20833 18.6667 3.00781 18.6667 2.75V2.29167C18.6667 2.03385 18.4375 1.83333 18.2083 1.83333H15.2005L13.8255 0.486979C13.5391 0.171875 13.1094 -2.38419e-07 12.7083 -2.38419e-07H6.20573C5.77604 -2.38419e-07 5.375 0.171875 5.0599 0.486979L3.71354 1.83333H0.791666C0.533854 1.83333 0.333333 2.0625 0.333333 2.29167V2.75C0.333333 3.00781 0.533854 3.20833 0.791666 3.20833H4.25781L6.03385 1.46094C6.09115 1.43229 6.14844 1.40365 6.20573 1.375H7.83854L6.72135 2.40625C5.86198 3.17969 5.83333 4.46875 6.57812 5.29948C7.00781 5.75781 8.35417 6.47396 9.5 5.44271L9.72917 5.21354L12.8229 7.73437C12.9375 7.82031 12.9375 7.96354 12.8802 8.04948L12.1068 8.96615C12.0495 9.08073 11.9062 9.08073 11.7917 9.02344L11.1042 8.45052L10.2448 9.51042C10.1875 9.56771 10.1016 9.625 9.98698 9.65365C9.90104 9.65365 9.78646 9.625 9.72917 9.56771L8.66927 8.67969L8.23958 9.22396C7.83854 9.71094 7.1224 9.79687 6.66406 9.39583L3.85677 6.875H0.791666C0.533854 6.875 0.333333 7.10417 0.333333 7.33333V7.79167C0.333333 8.04948 0.533854 8.25 0.791666 8.25H3.34115L5.7474 10.4557C6.63542 11.1719 7.86719 11.2005 8.78385 10.5703C9.1276 10.8568 9.52865 11.0286 9.95833 11.0286C10.474 11.0286 10.9609 10.7995 11.362 10.3411C11.9922 10.5703 12.737 10.3984 13.1953 9.85417L13.9401 8.90885C14.0833 8.73698 14.1979 8.50781 14.2552 8.25H18.2083C18.4375 8.25 18.6667 8.04948 18.6667 7.79167V7.33333C18.6667 7.10417 18.4375 6.875 18.2083 6.875H13.9115C13.8542 6.81771 13.7682 6.73177 13.7109 6.67448L10.7604 4.26823L11.1042 3.95312C11.3047 3.78125 11.3047 3.49479 11.1328 3.29427L10.8464 2.97917C10.6745 2.77865 10.3594 2.77865 10.1875 2.95052L8.61198 4.38281C8.32552 4.64062 7.86719 4.66927 7.60937 4.38281C7.35156 4.09635 7.38021 3.66667 7.63802 3.40885Z" fill="#9B51E0"/>
</svg>
