<svg xmlns="http://www.w3.org/2000/svg" xmlns:xlink="http://www.w3.org/1999/xlink" width="28" height="32" viewBox="0 0 28 32"><defs><path id="a" d="M53.3 115c.39 0 .7-.22.7-.5s-.31-.5-.7-.5h-5.6c-.39 0-.7.22-.7.5s.31.5.7.5h5.6z"/><path id="b" d="M53.3 109c.39 0 .7-.22.7-.5s-.31-.5-.7-.5h-5.6c-.39 0-.7.22-.7.5s.31.5.7.5h5.6z"/><path id="c" d="M56.33 111H45.67c-.37 0-.67.22-.67.5s.3.5.67.5h10.66c.37 0 .67-.22.67-.5s-.3-.5-.67-.5z"/><path id="d" d="M56.33 105H45.67c-.37 0-.67.22-.67.5s.3.5.67.5h10.66c.37 0 .67-.22.67-.5s-.3-.5-.67-.5z"/><path id="e" d="M56.33 117H45.67c-.37 0-.67.22-.67.5s.3.5.67.5h10.66c.37 0 .67-.22.67-.5s-.3-.5-.67-.5z"/><path id="f" d="M62 98v28a2 2 0 0 1-2 2H37.33a2 2 0 0 1-2-2v-3.33h-.66a.67.67 0 0 1 0-1.34h.66V116h-.66a.67.67 0 0 1-.67-.67c0-.36.3-.66.67-.66h.66v-5.34h-.66a.67.67 0 0 1-.67-.66c0-.37.3-.67.67-.67h.66v-5.33h-.66a.67.67 0 0 1 0-1.34h.66V98c0-1.1.9-2 2-2H60a2 2 0 0 1 2 2zm-1.33 0c0-.37-.3-.67-.67-.67H37.33c-.36 0-.66.3-.66.67v3.33h1.45A2 2 0 0 1 40 100a2 2 0 0 1 2 2 2 2 0 0 1-2 2 2 2 0 0 1-1.88-1.33h-1.45V108h1.45a2 2 0 1 1 0 1.33h-1.45v5.34h1.45a2 2 0 1 1 0 1.33h-1.45v5.33h1.45A2 2 0 0 1 40 120a2 2 0 0 1 2 2 2 2 0 0 1-2 2 2 2 0 0 1-1.88-1.33h-1.45V126c0 .37.3.67.66.67H60c.37 0 .67-.3.67-.67zM40 122.67a.67.67 0 1 0 0-1.34.67.67 0 0 0 0 1.34zm0-6.67c.37 0 .67-.3.67-.67 0-.36-.3-.66-.67-.66-.37 0-.67.3-.67.66 0 .37.3.67.67.67zm0-6.67c.37 0 .67-.3.67-.66a.67.67 0 0 0-1.34 0c0 .36.3.66.67.66zm0-6.66a.67.67 0 1 0 0-1.34.67.67 0 0 0 0 1.34z"/></defs><g transform="translate(-34 -96)"><use fill="#fff" xlink:href="#a"/></g><g transform="translate(-34 -96)"><use fill="#fff" xlink:href="#b"/></g><g transform="translate(-34 -96)"><use fill="#fff" xlink:href="#c"/></g><g transform="translate(-34 -96)"><use fill="#fff" xlink:href="#d"/></g><g transform="translate(-34 -96)"><use fill="#fff" xlink:href="#e"/></g><g transform="translate(-34 -96)"><use fill="#fff" xlink:href="#f"/></g></svg>