<svg xmlns="http://www.w3.org/2000/svg" xmlns:xlink="http://www.w3.org/1999/xlink" width="22" height="24" viewBox="0 0 22 24" fill="none"><defs><path id="a" d="M943.63 48.38a.67.67 0 0 1-.66.53h-6.51a3.78 3.78 0 0 1-3.64 3.09 3.78 3.78 0 0 1-3.63-3.09h-6.51a.67.67 0 0 1-.66-.53.67.67 0 0 1 .38-.76c2.57-1.15 2.67-6.1 2.67-6.22v-3.32a7.73 7.73 0 0 1 4.75-7.11 3 3 0 0 1 3-2.97 3 3 0 0 1 3.01 2.97 7.73 7.73 0 0 1 4.75 7.11v3.32c0 .12.1 5.07 2.67 6.22.29.13.45.45.38.76zm-17.85-3.13a7.57 7.57 0 0 1-1.19 2.31h16.47a7.57 7.57 0 0 1-1.19-2.31zm5.47-14.72a8.12 8.12 0 0 1 3.15 0 1.65 1.65 0 0 0-1.58-1.18c-.74 0-1.38.5-1.57 1.18zm-5.11 13.37h13.37a13.2 13.2 0 0 1-.29-2.49v-3.33c0-3.5-2.87-6.35-6.4-6.35a6.38 6.38 0 0 0-6.39 6.35v3.32c0 .11-.02 1.18-.29 2.5zm8.92 5.01h-4.47a2.38 2.38 0 0 0 2.23 1.74 2.4 2.4 0 0 0 2.24-1.74z"/></defs><g opacity=".5" transform="translate(-922 -28)"><use fill="none" xlink:href="#a"/></g></svg>