<svg width="33" height="32" viewBox="0 0 33 32" fill="none" xmlns="http://www.w3.org/2000/svg">
<g clip-path="url(#clip0)">
<path d="M19.429 16.7316C19.1487 16.1043 18.7419 15.5344 18.2312 15.0539C17.7221 14.5719 17.1191 14.1876 16.4553 13.9223C16.4494 13.9195 16.4435 13.9181 16.4375 13.9153C17.3633 13.2835 17.9652 12.2544 17.9652 11.0933C17.9652 9.16989 16.3156 7.6115 14.2797 7.6115C12.2438 7.6115 10.5942 9.16989 10.5942 11.0933C10.5942 12.2544 11.1961 13.2835 12.1219 13.9167C12.116 13.9195 12.11 13.9209 12.1041 13.9237C11.4383 14.189 10.8409 14.5695 10.3282 15.0553C9.81802 15.5362 9.41127 16.106 9.13039 16.733C8.85446 17.3469 8.70564 18.005 8.69199 18.6719C8.6916 18.6868 8.69438 18.7018 8.70017 18.7157C8.70597 18.7297 8.71467 18.7424 8.72575 18.7531C8.73682 18.7638 8.75007 18.7724 8.76469 18.7782C8.77931 18.784 8.79501 18.787 8.81088 18.787H9.70254C9.76792 18.787 9.81994 18.7378 9.82142 18.6775C9.85115 17.5936 10.3118 16.5786 11.1262 15.8092C11.9688 15.0132 13.0879 14.5751 14.2797 14.5751C15.4715 14.5751 16.5906 15.0132 17.4332 15.8092C18.2476 16.5786 18.7083 17.5936 18.738 18.6775C18.7395 18.7393 18.7915 18.787 18.8569 18.787H19.7485C19.7644 18.787 19.7801 18.784 19.7947 18.7782C19.8093 18.7724 19.8226 18.7638 19.8337 18.7531C19.8447 18.7424 19.8534 18.7297 19.8592 18.7157C19.865 18.7018 19.8678 18.6868 19.8674 18.6719C19.8525 18.0008 19.7054 17.3479 19.429 16.7316ZM14.2797 13.5081C13.5976 13.5081 12.9556 13.2568 12.4726 12.8005C11.9896 12.3442 11.7236 11.7377 11.7236 11.0933C11.7236 10.4489 11.9896 9.84238 12.4726 9.3861C12.9556 8.92981 13.5976 8.6785 14.2797 8.6785C14.9618 8.6785 15.6038 8.92981 16.0868 9.3861C16.5698 9.84238 16.8358 10.4489 16.8358 11.0933C16.8358 11.7377 16.5698 12.3442 16.0868 12.8005C15.6038 13.2568 14.9618 13.5081 14.2797 13.5081Z" fill="white" stroke="white" stroke-width="0.835507"/>
<circle cx="14.2798" cy="13.7798" r="11.2523" stroke="white" stroke-width="2.40486" stroke-linecap="round" stroke-linejoin="round"/>
<path d="M28.7548 30.6946L22.4698 23.4298" stroke="white" stroke-width="2.40486" stroke-linecap="round" stroke-linejoin="round"/>
</g>
<defs>
<clipPath id="clip0">
<rect x="0.5" width="32" height="32" fill="white"/>
</clipPath>
</defs>
</svg>
