<svg xmlns="http://www.w3.org/2000/svg" xmlns:xlink="http://www.w3.org/1999/xlink" width="33" height="31" viewBox="0 0 33 31"><defs><path id="ds0aa" d="M60.57 541.02c.53 1 .34 2.2-.45 3l-1.31 1.3c-1.62 1.62-3.4 2.43-5.32 2.43-.55 0-1.1-.07-1.67-.2-2.13-.49-4.4-1.93-6.75-4.27l-7.6-7.6c-5.16-5.17-5.87-9.92-2.04-13.74l1.3-1.31c.8-.8 2-.98 3-.45 1.96 1.04 4.09 4.64 4.18 4.8.38.66.5 1.34.34 1.92-.13.44-.4.8-.8 1.03-.63.53-1.37 1.18-1.49 1.34-.82 1.22-.73 2.2.33 3.25l5.94 5.94c1.05 1.05 2.02 1.15 3.25.32.16-.11.8-.85 1.34-1.48.24-.4.6-.68 1.03-.8a2.55 2.55 0 0 1 1.92.34c.16.09 3.76 2.22 4.8 4.18zm-.92.48c-.74-1.41-3.43-3.2-4.4-3.77-.4-.23-.83-.31-1.13-.23a.7.7 0 0 0-.43.35l-.05.08c-.37.44-1.26 1.49-1.58 1.7-.41.28-.81.48-1.21.6.8.37 1.77.7 2.87.8a.52.52 0 0 1-.11 1.03 10.78 10.78 0 0 1-6-2.73l-.05-.08-.07-.06-5.48-5.48-.04-.03c-.12-.1-2.91-2.43-3.29-6.03a.52.52 0 0 1 1.03-.1c.1.94.4 1.79.76 2.52.11-.45.32-.91.64-1.38.22-.32 1.27-1.21 1.7-1.58l.09-.05a.7.7 0 0 0 .35-.44c.08-.3 0-.72-.24-1.13-.01-.03-2.06-3.5-3.76-4.4a1.51 1.51 0 0 0-1.78.27l-1.31 1.31c-3.4 3.4-2.7 7.53 2.04 12.28l7.6 7.6c4.75 4.75 8.88 5.43 12.28 2.04l1.3-1.31a1.5 1.5 0 0 0 .27-1.78z"/><path id="ds0ab" d="M47.14 517.25a.52.52 0 1 0 0 1.03c8.72 0 15.82 7.1 15.82 15.83a.52.52 0 1 0 1.04 0c0-9.3-7.57-16.86-16.86-16.86z"/><path id="ds0ac" d="M47.14 521.91a12.2 12.2 0 0 1 12.2 12.2.52.52 0 1 0 1.03 0c0-7.3-5.94-13.23-13.23-13.23a.52.52 0 1 0 0 1.03z"/><path id="ds0ad" d="M47.14 525.55a8.57 8.57 0 0 1 8.56 8.57.52.52 0 1 0 1.03 0c0-5.3-4.3-9.6-9.6-9.6a.52.52 0 1 0 0 1.03z"/></defs><g><g transform="translate(-32 -517)"><g><use fill="#fff" xlink:href="#ds0aa"/><use fill="#fff" fill-opacity="0" stroke="#fff" stroke-miterlimit="50" stroke-width=".5" xlink:href="#ds0aa"/></g><g><use fill="#fff" xlink:href="#ds0ab"/><use fill="#fff" fill-opacity="0" stroke="#fff" stroke-miterlimit="50" stroke-width=".5" xlink:href="#ds0ab"/></g><g><use fill="#fff" xlink:href="#ds0ac"/><use fill="#fff" fill-opacity="0" stroke="#fff" stroke-miterlimit="50" stroke-width=".5" xlink:href="#ds0ac"/></g><g><use fill="#fff" xlink:href="#ds0ad"/><use fill="#fff" fill-opacity="0" stroke="#fff" stroke-miterlimit="50" stroke-width=".5" xlink:href="#ds0ad"/></g></g></g></svg>