<svg xmlns="http://www.w3.org/2000/svg" xmlns:xlink="http://www.w3.org/1999/xlink" width="33" height="34" viewBox="0 0 33 34"><defs><path id="a" d="M63.89 366.4v5.53c0 .59-.48 1.07-1.07 1.07H34.07c-.59 0-1.07-.48-1.07-1.07v-5.53c0-.59.48-1.07 1.07-1.07h.04v-13.86c0-.89.72-1.62 1.62-1.62h1.14v-4.46a.5.5 0 0 1 .23-.43.5.5 0 0 1 .49-.05l1.09.47 1.08-.47a.58.58 0 0 1 .41 0l1.09.47 1.09-.47a.55.55 0 0 1 .4 0l1.09.47 1.09-.47a.49.49 0 0 1 .48.05.5.5 0 0 1 .24.43v4.46h8.91v-2.28h-3.35c-.89 0-1.62-.73-1.62-1.63v-3.32c0-.89.73-1.62 1.62-1.62h9.95c.9 0 1.63.73 1.63 1.62v3.32c0 .9-.73 1.63-1.63 1.63h-3.35v2.28h3.35c.9 0 1.63.73 1.63 1.62v13.86h.03c.59 0 1.07.48 1.07 1.07zm-2.73-19.87c.33 0 .59-.26.59-.59v-3.32a.58.58 0 0 0-.59-.58h-9.95a.59.59 0 0 0-.59.58v3.32c0 .33.27.59.59.59zm-5.56 1.04v2.28h1.18v-2.28zm-17.69 5.59h6.7v-6.99l-.57.25a.55.55 0 0 1-.4 0l-1.09-.47-1.09.47a.58.58 0 0 1-.41 0l-1.08-.47-1.09.47a.58.58 0 0 1-.41 0l-.56-.25zm24.95 13.24c0-.02-.02-.03-.04-.03h-3.87a.53.53 0 0 1-.52-.52c0-.29.24-.52.52-.52h2.8v-13.86a.6.6 0 0 0-.59-.59H45.65v2.28h.03c.29 0 .52.24.52.52 0 .29-.23.52-.52.52h-8.84a.52.52 0 0 1-.52-.52c0-.28.23-.52.52-.52h.03v-2.28h-1.14a.6.6 0 0 0-.59.59v13.86h21.6c.29 0 .52.23.52.52 0 .28-.23.52-.52.52H34.07c-.02 0-.03.01-.03.03v5.53c0 .02.01.03.03.03h28.75c.02 0 .04-.01.04-.03z"/><path id="b" d="M50.25 369.62a1.63 1.63 0 1 1-1.63-1.62c.9 0 1.63.73 1.63 1.62zm-1.04 0a.58.58 0 0 0-.59-.58.58.58 0 0 0-.58.58.58.58 0 1 0 1.17 0z"/><path id="c" d="M42.84 351h-3.32a.52.52 0 0 0-.52.52c0 .28.23.52.52.52h3.32a.52.52 0 0 0 0-1.04z"/><path id="d" d="M43.07 349h-.55a.52.52 0 0 0-.52.52c0 .28.23.52.52.52h.55c.29 0 .52-.24.52-.52a.52.52 0 0 0-.52-.52z"/><path id="e" d="M40.07 349h-.55a.52.52 0 0 0-.52.52c0 .28.23.52.52.52h.55c.29 0 .52-.24.52-.52a.52.52 0 0 0-.52-.52z"/><path id="f" d="M59.58 352h-.56a.52.52 0 0 0 0 1.04h.56c.02 0 .03.01.03.03v1.66c0 .02-.01.03-.03.03H49.07c-.02 0-.03-.01-.03-.03v-1.66c0-.02.01-.03.03-.03h7.74c.29 0 .52-.24.52-.52a.52.52 0 0 0-.52-.52h-7.74c-.59 0-1.07.48-1.07 1.07v1.66c0 .59.48 1.07 1.07 1.07h10.51c.59 0 1.07-.48 1.07-1.07v-1.66c0-.59-.48-1.07-1.07-1.07z"/><path id="g" d="M51.8 358.62c0 .9-.73 1.63-1.62 1.63h-.56a1.63 1.63 0 0 1 0-3.25h.56c.89 0 1.62.73 1.62 1.62zm-1.04 0a.58.58 0 0 0-.58-.58h-.56a.58.58 0 0 0-.58.58c0 .33.26.59.58.59h.56c.32 0 .58-.26.58-.59z"/><path id="h" d="M55.8 358.62c0 .9-.73 1.63-1.62 1.63h-.56a1.63 1.63 0 0 1 0-3.25h.56c.89 0 1.62.73 1.62 1.62zm-1.04 0a.58.58 0 0 0-.58-.58h-.56a.58.58 0 0 0-.58.58c0 .33.26.59.58.59h.56c.32 0 .58-.26.58-.59z"/><path id="i" d="M60.8 358.62c0 .9-.73 1.63-1.62 1.63h-.56a1.63 1.63 0 0 1 0-3.25h.56c.89 0 1.62.73 1.62 1.62zm-1.04 0a.58.58 0 0 0-.58-.58h-.56a.58.58 0 0 0-.58.58c0 .33.26.59.58.59h.56c.32 0 .58-.26.58-.59z"/><path id="j" d="M51.8 362.62c0 .9-.73 1.63-1.62 1.63h-.56a1.63 1.63 0 0 1 0-3.25h.56c.89 0 1.62.73 1.62 1.62zm-1.04 0a.58.58 0 0 0-.58-.58h-.56a.58.58 0 0 0-.58.58c0 .33.26.59.58.59h.56c.32 0 .58-.26.58-.59z"/><path id="k" d="M45.8 358.62c0 .9-.73 1.63-1.62 1.63h-.56a1.63 1.63 0 0 1 0-3.25h.56c.89 0 1.62.73 1.62 1.62zm-1.04 0a.58.58 0 0 0-.58-.58h-.56a.58.58 0 0 0-.58.58c0 .33.26.59.58.59h.56c.32 0 .58-.26.58-.59z"/><path id="l" d="M45.8 362.62c0 .9-.73 1.63-1.62 1.63h-.56a1.63 1.63 0 0 1 0-3.25h.56c.89 0 1.62.73 1.62 1.62zm-1.04 0a.58.58 0 0 0-.58-.58h-.56a.58.58 0 0 0-.58.58c0 .33.26.59.58.59h.56c.32 0 .58-.26.58-.59z"/><path id="m" d="M40.8 358.62c0 .9-.73 1.63-1.62 1.63h-.56a1.63 1.63 0 0 1 0-3.25h.56c.89 0 1.62.73 1.62 1.62zm-1.04 0a.58.58 0 0 0-.58-.58h-.56a.58.58 0 0 0-.58.58c0 .33.26.59.58.59h.56c.32 0 .58-.26.58-.59z"/><path id="n" d="M40.8 362.62c0 .9-.73 1.63-1.62 1.63h-.56a1.63 1.63 0 0 1 0-3.25h.56c.89 0 1.62.73 1.62 1.62zm-1.04 0a.58.58 0 0 0-.58-.58h-.56a.58.58 0 0 0-.58.58c0 .33.26.59.58.59h.56c.32 0 .58-.26.58-.59z"/><path id="o" d="M55.8 362.62c0 .9-.73 1.63-1.62 1.63h-.56a1.63 1.63 0 0 1 0-3.25h.56c.89 0 1.62.73 1.62 1.62zm-1.04 0a.58.58 0 0 0-.58-.58h-.56a.58.58 0 0 0-.58.58c0 .33.26.59.58.59h.56c.32 0 .58-.26.58-.59z"/><path id="p" d="M60.8 362.62c0 .9-.73 1.63-1.62 1.63h-.56a1.63 1.63 0 0 1 0-3.25h.56c.89 0 1.62.73 1.62 1.62zm-1.04 0a.58.58 0 0 0-.58-.58h-.56a.58.58 0 0 0-.58.58c0 .33.26.59.58.59h.56c.32 0 .58-.26.58-.59z"/><path id="q" d="M53.62 344h-1.1a.52.52 0 0 0-.52.52c0 .28.23.52.52.52h1.1c.29 0 .52-.24.52-.52a.52.52 0 0 0-.52-.52z"/><path id="r" d="M59.62 344h-1.1a.52.52 0 0 0-.52.52c0 .28.23.52.52.52h1.1c.29 0 .52-.24.52-.52a.52.52 0 0 0-.52-.52z"/><path id="s" d="M56.62 344h-1.1a.52.52 0 0 0-.52.52c0 .28.23.52.52.52h1.1c.29 0 .52-.24.52-.52a.52.52 0 0 0-.52-.52z"/></defs><g transform="translate(-32 -340)"><use fill="#fff" xlink:href="#a"/><use fill="#fff" fill-opacity="0" stroke="#fff" stroke-miterlimit="50" stroke-width=".3" xlink:href="#a"/></g><g transform="translate(-32 -340)"><use fill="#fff" xlink:href="#b"/><use fill="#fff" fill-opacity="0" stroke="#fff" stroke-miterlimit="50" stroke-width=".3" xlink:href="#b"/></g><g transform="translate(-32 -340)"><use fill="#fff" xlink:href="#c"/><use fill="#fff" fill-opacity="0" stroke="#fff" stroke-miterlimit="50" stroke-width=".3" xlink:href="#c"/></g><g transform="translate(-32 -340)"><use fill="#fff" xlink:href="#d"/><use fill="#fff" fill-opacity="0" stroke="#fff" stroke-miterlimit="50" stroke-width=".3" xlink:href="#d"/></g><g transform="translate(-32 -340)"><use fill="#fff" xlink:href="#e"/><use fill="#fff" fill-opacity="0" stroke="#fff" stroke-miterlimit="50" stroke-width=".3" xlink:href="#e"/></g><g transform="translate(-32 -340)"><use fill="#fff" xlink:href="#f"/><use fill="#fff" fill-opacity="0" stroke="#fff" stroke-miterlimit="50" stroke-width=".3" xlink:href="#f"/></g><g transform="translate(-32 -340)"><use fill="#fff" xlink:href="#g"/><use fill="#fff" fill-opacity="0" stroke="#fff" stroke-miterlimit="50" stroke-width=".3" xlink:href="#g"/></g><g transform="translate(-32 -340)"><use fill="#fff" xlink:href="#h"/><use fill="#fff" fill-opacity="0" stroke="#fff" stroke-miterlimit="50" stroke-width=".3" xlink:href="#h"/></g><g transform="translate(-32 -340)"><use fill="#fff" xlink:href="#i"/><use fill="#fff" fill-opacity="0" stroke="#fff" stroke-miterlimit="50" stroke-width=".3" xlink:href="#i"/></g><g transform="translate(-32 -340)"><use fill="#fff" xlink:href="#j"/><use fill="#fff" fill-opacity="0" stroke="#fff" stroke-miterlimit="50" stroke-width=".3" xlink:href="#j"/></g><g transform="translate(-32 -340)"><use fill="#fff" xlink:href="#k"/><use fill="#fff" fill-opacity="0" stroke="#fff" stroke-miterlimit="50" stroke-width=".3" xlink:href="#k"/></g><g transform="translate(-32 -340)"><use fill="#fff" xlink:href="#l"/><use fill="#fff" fill-opacity="0" stroke="#fff" stroke-miterlimit="50" stroke-width=".3" xlink:href="#l"/></g><g transform="translate(-32 -340)"><use fill="#fff" xlink:href="#m"/><use fill="#fff" fill-opacity="0" stroke="#fff" stroke-miterlimit="50" stroke-width=".3" xlink:href="#m"/></g><g transform="translate(-32 -340)"><use fill="#fff" xlink:href="#n"/><use fill="#fff" fill-opacity="0" stroke="#fff" stroke-miterlimit="50" stroke-width=".3" xlink:href="#n"/></g><g transform="translate(-32 -340)"><use fill="#fff" xlink:href="#o"/><use fill="#fff" fill-opacity="0" stroke="#fff" stroke-miterlimit="50" stroke-width=".3" xlink:href="#o"/></g><g transform="translate(-32 -340)"><use fill="#fff" xlink:href="#p"/><use fill="#fff" fill-opacity="0" stroke="#fff" stroke-miterlimit="50" stroke-width=".3" xlink:href="#p"/></g><g transform="translate(-32 -340)"><use fill="#fff" xlink:href="#q"/><use fill="#fff" fill-opacity="0" stroke="#fff" stroke-miterlimit="50" stroke-width=".3" xlink:href="#q"/></g><g transform="translate(-32 -340)"><use fill="#fff" xlink:href="#r"/><use fill="#fff" fill-opacity="0" stroke="#fff" stroke-miterlimit="50" stroke-width=".3" xlink:href="#r"/></g><g transform="translate(-32 -340)"><use fill="#fff" xlink:href="#s"/><use fill="#fff" fill-opacity="0" stroke="#fff" stroke-miterlimit="50" stroke-width=".3" xlink:href="#s"/></g></svg>