<svg width="22" height="22" viewBox="0 0 22 22" fill="none" xmlns="http://www.w3.org/2000/svg">
<path opacity="0.6" d="M20.4407 1.55941C19.695 0.81353 18.4896 0.81353 17.7439 1.55941L11 8.30286L4.25609 1.55941C3.51037 0.81353 2.30501 0.81353 1.55929 1.55941C0.81357 2.30529 0.81357 3.51091 1.55929 4.25679L8.3032 11.0002L1.55929 17.7437C0.81357 18.4896 0.81357 19.6952 1.55929 20.4411C1.9312 20.8131 2.41944 21 2.90769 21C3.39594 21 3.88418 20.8131 4.25609 20.4411L11 13.6976L17.7439 20.4411C18.1158 20.8131 18.6041 21 19.0923 21C19.5806 21 20.0688 20.8131 20.4407 20.4411C21.1864 19.6952 21.1864 18.4896 20.4407 17.7437L13.6968 11.0002L20.4407 4.25679C21.1845 3.51091 21.1845 2.30338 20.4407 1.55941Z" fill="#B4B4B4" stroke="#E9E9E9" stroke-width="2"/>
</svg>
