<svg width="14" height="14" viewBox="0 0 14 14" fill="#55AB80" xmlns="http://www.w3.org/2000/svg">
<path d="M7.00011 0C3.15808 0 0 3.12225 0 6.99966C0 10.8542 3.13495 14 7.00011 14C10.8598 14 13.9998 10.8598 13.9998 6.99966C13.9998 3.11046 10.8283 0 7.00011 0ZM11.1213 5.75693L6.51617 10.3627C6.16354 10.7154 5.58889 10.717 5.23466 10.3627L2.7043 7.8317C2.33715 7.46432 2.35257 6.86541 2.7399 6.5164C3.09617 6.19665 3.64361 6.20821 3.98581 6.55019C5.09202 7.6564 4.64165 7.2058 5.87508 8.44014C8.24035 6.07487 8.19862 6.1166 9.8398 4.47542C10.194 4.12142 10.768 4.12142 11.1213 4.47542C11.4755 4.82942 11.4755 5.40339 11.1213 5.75693Z" fill="#55AB80"/>
</svg>
