<svg xmlns="http://www.w3.org/2000/svg" xmlns:xlink="http://www.w3.org/1999/xlink" width="32" height="22" viewBox="0 0 32 22"><defs><path id="a" d="M55.64 290.55l-5.27 3.27c-.81.71-2.93.9-3.96.9-.55 0-.98-.04-1.28-.13l-8.57-1.31a.69.69 0 0 1-.45-.29.69.69 0 0 1-.09-.54l1.47-5.58.05-.13A4.93 4.93 0 0 1 41.7 284l3.38-3.37c.84-.84 2.3-.84 3.13 0 .75.74.86 1.92.28 2.8l-2.09 2.87c-.28.37-.42.82-.42 1.28a1.99 1.99 0 0 0 2.28 1.97l2.99-.23h4.04c.3 0 .56.19.64.48a.65.65 0 0 1-.29.75zm-2.68.1H51.3l-2.89.23a3.33 3.33 0 0 1-3.76-3.3c0-.75.23-1.46.67-2.06l2.08-2.85a.88.88 0 0 0-.13-1.1.91.91 0 0 0-1.25 0l-3.56 3.56a.7.7 0 0 1-.47.2c-1.37 0-2.6.74-3.23 1.95l-1.26 4.8 7.92 1.22c.14.03.4.09.99.09 1.39 0 2.83-.31 3.09-.57l.12-.1z"/><path id="b" d="M38.65 286.05c-.3 3.46-1.32 6.67-1.36 6.8a.67.67 0 0 1-.3.38c-.1.05-2.51 1.42-4.32 1.42a.67.67 0 0 1-.67-.67v-9.32a.67.67 0 0 1 .72-.66c.75.06 4.56.41 5.73 1.51.14.14.22.34.2.54zm-1.36.26c-.75-.42-2.52-.75-3.96-.91v7.84c1-.19 2.16-.72 2.77-1.04.23-.78.92-3.26 1.19-5.89z"/><path id="c" d="M53.42 279.67l-.14-.02c-1.93-.24-1.95-.65-1.95-.65 0-.17.71-.67 2-.67 1.24 0 1.97.47 2 .66.04.37.38.62.74.58a.66.66 0 0 0 .58-.74c-.14-1.06-1.53-1.83-3.32-1.83-1.9 0-3.33.86-3.33 2 0 1.59 2.27 1.87 3.24 1.98l.14.02c1.92.24 1.94.65 1.94.66 0 .13-.64.66-1.99.66-1.25 0-1.98-.47-2-.66a.68.68 0 0 0-.75-.58.67.67 0 0 0-.57.75c.13 1.05 1.53 1.82 3.31 1.82 1.9 0 3.33-.85 3.33-1.99 0-1.59-2.26-1.87-3.23-1.99z"/><path id="d" d="M53.67 276c-.37 0-.67.3-.67.67v7.98c0 .37.3.67.67.67.36 0 .66-.3.66-.67v-7.98c0-.37-.3-.67-.66-.67z"/><path id="e" d="M62.96 273H41.67c-.37 0-.67.3-.67.67v6.65c0 .37.3.66.67.66.36 0 .66-.29.66-.66v-5.99h19.96v11.98H48.32c-.37 0-.67.3-.67.66 0 .37.3.67.67.67h14.64c.36 0 .66-.3.66-.67v-13.3c0-.37-.3-.67-.66-.67z"/></defs><g transform="translate(-32 -273)"><use fill="#fff" xlink:href="#a"/></g><g transform="translate(-32 -273)"><use fill="#fff" xlink:href="#b"/></g><g transform="translate(-32 -273)"><use fill="#fff" xlink:href="#c"/></g><g transform="translate(-32 -273)"><use fill="#fff" xlink:href="#d"/></g><g transform="translate(-32 -273)"><use fill="#fff" xlink:href="#e"/></g></svg>