<svg xmlns="http://www.w3.org/2000/svg" xmlns:xlink="http://www.w3.org/1999/xlink" width="32" height="31" viewBox="0 0 32 31"><defs><path id="a" d="M64 694.99v1.35c0 .8-.64 1.45-1.43 1.45h-.2v16.31c0 .8-.64 1.45-1.43 1.45H48.72v2.13l5.31 3.95a.73.73 0 1 1-.43 1.31.75.75 0 0 1-.42-.14l-4.46-3.32v2.73c0 .4-.32.73-.72.73a.73.73 0 0 1-.72-.73v-2.73l-4.46 3.32a.72.72 0 0 1-1-.16.72.72 0 0 1 .15-1.01l5.31-3.95v-2.13H35.06c-.79 0-1.43-.65-1.43-1.45v-16.31h-.2c-.79 0-1.43-.65-1.43-1.45v-1.35c0-.8.64-1.45 1.43-1.45h13.85v-.81a.72.72 0 1 1 1.44 0v.81h13.85c.79 0 1.43.65 1.43 1.45zm-3.06 19.11v-16.31H35.06v16.31zm1.63-17.76v-1.35H33.43v1.35z"/><path id="b" d="M54.48 706.31c0 3.49-2.8 6.32-6.24 6.32a6.28 6.28 0 0 1-6.24-6.32c0-.36.29-.65.65-.65h4.94v-5.01c0-.36.29-.65.65-.65a6.28 6.28 0 0 1 6.24 6.31zm-1.3 0a4.98 4.98 0 0 0-4.3-4.96v4.96c0 .36-.29.66-.64.66h-4.91a4.98 4.98 0 0 0 4.91 4.35 4.97 4.97 0 0 0 4.94-5.01z"/><path id="c" d="M46.37 699.65v4.13c0 .36-.29.65-.65.65h-4.07a.65.65 0 0 1-.65-.65 4.75 4.75 0 0 1 4.72-4.78c.36 0 .65.29.65.65zm-1.29.72a3.44 3.44 0 0 0-2.73 2.76h2.73z"/></defs><g transform="translate(-32 -692)"><use fill="#fff" xlink:href="#a"/></g><g transform="translate(-32 -692)"><use fill="#fff" xlink:href="#b"/></g><g transform="translate(-32 -692)"><use fill="#fff" xlink:href="#c"/></g></svg>