<svg xmlns="http://www.w3.org/2000/svg" xmlns:xlink="http://www.w3.org/1999/xlink" width="30" height="32" viewBox="0 0 30 32"><defs><path id="74v9a" d="M61.13 620.38v1.87a1.88 1.88 0 0 1-3.76 0v-1.88zM56 624.13H36.75a1.88 1.88 0 0 1-1.88-1.88v-24.5c0-1.03.85-1.88 1.88-1.88H56c-.32.55-.5 1.2-.5 1.88v24.5c0 .68.18 1.32.5 1.88zm1.38-26.38a1.88 1.88 0 0 1 3.74 0v1.88h-3.74zm4.68 3.75c.52 0 .94-.42.94-.94v-2.81a3.75 3.75 0 0 0-3.75-3.75h-22.5a3.75 3.75 0 0 0-3.75 3.75v24.5a3.75 3.75 0 0 0 3.75 3.75h22.5a3.75 3.75 0 0 0 3.75-3.75v-2.81a.94.94 0 0 0-.94-.94h-4.69v-17z"/><path id="74v9b" d="M48.94 614.69a2.82 2.82 0 1 1 0-5.63 2.82 2.82 0 0 1 0 5.63zm.94 4.36l-.28-.27a.94.94 0 0 0-1.33 0l-.27.27v-2.58a4.7 4.7 0 0 0 1.88 0zm-.94-11.86a4.7 4.7 0 0 0-2.81 8.43v5.7a.94.94 0 0 0 1.6.66l1.2-1.21 1.22 1.2a.94.94 0 0 0 1.6-.65v-5.7a4.68 4.68 0 0 0-2.81-8.43z"/><path id="74v9c" d="M48.94 597.75h-5.62a.94.94 0 0 0 0 1.88h5.62a.94.94 0 0 0 0-1.88z"/><path id="74v9d" d="M52.69 601.5h-15a.94.94 0 0 0 0 1.88h15a.94.94 0 0 0 0-1.88z"/><path id="74v9e" d="M41.44 607.19h-3.75a.94.94 0 0 0 0 1.88h3.75a.94.94 0 0 0 0-1.88z"/><path id="74v9f" d="M41.44 618.5h-3.75a.94.94 0 0 0 0 1.88h3.75a.94.94 0 0 0 0-1.88z"/><path id="74v9g" d="M41.44 612.81h-3.75a.94.94 0 0 0 0 1.88h3.75a.94.94 0 0 0 0-1.88z"/></defs><g><g transform="translate(-33 -594)"><g><use fill="#fff" xlink:href="#74v9a"/><use fill="#fff" fill-opacity="0" stroke="#17191a" stroke-miterlimit="50" stroke-width=".2" xlink:href="#74v9a"/></g><g><use fill="#fff" xlink:href="#74v9b"/><use fill="#fff" fill-opacity="0" stroke="#17191a" stroke-miterlimit="50" stroke-width=".2" xlink:href="#74v9b"/></g><g><use fill="#fff" xlink:href="#74v9c"/><use fill="#fff" fill-opacity="0" stroke="#17191a" stroke-miterlimit="50" stroke-width=".2" xlink:href="#74v9c"/></g><g><use fill="#fff" xlink:href="#74v9d"/><use fill="#fff" fill-opacity="0" stroke="#17191a" stroke-miterlimit="50" stroke-width=".2" xlink:href="#74v9d"/></g><g><use fill="#fff" xlink:href="#74v9e"/><use fill="#fff" fill-opacity="0" stroke="#17191a" stroke-miterlimit="50" stroke-width=".2" xlink:href="#74v9e"/></g><g><use fill="#fff" xlink:href="#74v9f"/><use fill="#fff" fill-opacity="0" stroke="#17191a" stroke-miterlimit="50" stroke-width=".2" xlink:href="#74v9f"/></g><g><use fill="#fff" xlink:href="#74v9g"/><use fill="#fff" fill-opacity="0" stroke="#17191a" stroke-miterlimit="50" stroke-width=".2" xlink:href="#74v9g"/></g></g></g></svg>