<svg xmlns="http://www.w3.org/2000/svg" xmlns:xlink="http://www.w3.org/1999/xlink" width="26" height="25" viewBox="0 0 26 25"><defs><path id="brm9a" d="M156 312.1a.5.5 0 0 1-.5.51h-23a.5.5 0 0 1-.5-.51.5.5 0 0 1 .5-.52h.5v-5.7a.5.5 0 0 1 .5-.52h3c.28 0 .5.23.5.52v5.7h2v-11.92c0-.28.22-.52.5-.52h3c.28 0 .5.24.5.52v11.92h2v-8.81a.5.5 0 0 1 .5-.52h3c.28 0 .5.23.5.52v8.81h2v-16.06a.5.5 0 0 1 .5-.52h3c.28 0 .5.23.5.52v16.06h.5c.28 0 .5.23.5.52zm-20-.52v-5.18h-2v5.18zm6-11.4h-2v11.4h2zm6 11.4v-8.29h-2v8.29zm6 0v-15.54h-2v15.54z"/><path id="brm9b" d="M134.98 301.58c.55 0 .99-.47.99-1.05 0-.09-.03-.17-.05-.25l4.73-5.04c.08.02.16.05.24.05a1 1 0 0 0 .53-.18l4.41 2.35c.03.54.45.98.97.98.54 0 .98-.47.98-1.05a.97.97 0 0 0-.06-.34l4.82-5.99c.06.01.11.04.17.04.54 0 .98-.47.98-1.05 0-.58-.44-1.05-.98-1.05-.55 0-.99.47-.99 1.05 0 .12.03.23.07.34l-4.82 5.98c-.06-.01-.11-.03-.17-.03-.2 0-.37.08-.52.18l-4.42-2.35c-.03-.54-.45-.98-.97-.98-.54 0-.98.47-.98 1.05 0 .09.03.17.05.26l-4.74 5.04a.6.6 0 0 0-.24-.06c-.54 0-.98.47-.98 1.05 0 .58.44 1.05.98 1.05z"/></defs><g><g transform="translate(-131 -288)"><use fill="#55ab80" xlink:href="#brm9a"/><use fill="#fff" fill-opacity="0" stroke="#55ab80" stroke-miterlimit="50" stroke-width=".3" xlink:href="#brm9a"/></g><g transform="translate(-131 -288)"><use fill="#55ab80" xlink:href="#brm9b"/><use fill="#fff" fill-opacity="0" stroke="#55ab80" stroke-miterlimit="50" stroke-width=".3" xlink:href="#brm9b"/></g></g></svg>