<svg width="33" height="32" viewBox="0 0 33 32" fill="none" xmlns="http://www.w3.org/2000/svg">
<path d="M24.7769 22.4423C24.3263 21.434 23.6724 20.518 22.8516 19.7456C22.0333 18.9709 21.0639 18.3532 19.997 17.9266C19.9875 17.9221 19.9779 17.9199 19.9684 17.9154C21.4566 16.8998 22.424 15.2457 22.424 13.3794C22.424 10.2877 19.7725 7.78271 16.4999 7.78271C13.2274 7.78271 10.5759 10.2877 10.5759 13.3794C10.5759 15.2457 11.5433 16.8998 13.0315 17.9176C13.0219 17.9221 13.0124 17.9244 13.0028 17.9289C11.9327 18.3554 10.9724 18.967 10.1483 19.7478C9.32823 20.5209 8.67442 21.4367 8.22294 22.4446C7.77941 23.4313 7.5402 24.4893 7.51826 25.5611C7.51763 25.5852 7.5221 25.6092 7.53142 25.6316C7.54073 25.654 7.55471 25.6745 7.57252 25.6917C7.59033 25.7089 7.61161 25.7227 7.63511 25.732C7.65861 25.7414 7.68386 25.7462 7.70936 25.7462H9.14261C9.24771 25.7462 9.33132 25.6672 9.33371 25.5701C9.38148 23.828 10.122 22.1964 11.431 20.9597C12.7854 19.6801 14.5842 18.976 16.4999 18.976C18.4157 18.976 20.2144 19.6801 21.5688 20.9597C22.8779 22.1964 23.6184 23.828 23.6661 25.5701C23.6685 25.6694 23.7521 25.7462 23.8572 25.7462H25.2905C25.316 25.7462 25.3412 25.7414 25.3647 25.732C25.3882 25.7227 25.4095 25.7089 25.4273 25.6917C25.4451 25.6745 25.4591 25.654 25.4684 25.6316C25.4778 25.6092 25.4822 25.5852 25.4816 25.5611C25.4577 24.4824 25.2212 23.433 24.7769 22.4423ZM16.4999 17.2609C15.4035 17.2609 14.3716 16.857 13.5952 16.1235C12.8189 15.3901 12.3913 14.4152 12.3913 13.3794C12.3913 12.3435 12.8189 11.3686 13.5952 10.6352C14.3716 9.90177 15.4035 9.49782 16.4999 9.49782C17.5964 9.49782 18.6283 9.90177 19.4046 10.6352C20.181 11.3686 20.6086 12.3435 20.6086 13.3794C20.6086 14.4152 20.181 15.3901 19.4046 16.1235C18.6283 16.857 17.5964 17.2609 16.4999 17.2609Z" fill="white" stroke="white" stroke-width="0.483722"/>
<circle cx="16.5" cy="16" r="12.5051" stroke="white" stroke-width="1.93489"/>
</svg>
