<svg xmlns="http://www.w3.org/2000/svg" xmlns:xlink="http://www.w3.org/1999/xlink" width="33" height="24" viewBox="0 0 33 26"><defs><path id="a" d="M897.96 31.85v16.23c0 2.12-1.7 3.84-3.79 3.84h-23.38a3.82 3.82 0 0 1-3.79-3.84V31.84c0-2.12 1.7-3.84 3.79-3.84h23.39a3.82 3.82 0 0 1 3.78 3.85zm-1.73 16.23V31.85c0-1.15-.93-2.09-2.06-2.09h-23.38c-1.14 0-2.06.94-2.06 2.09v16.23c0 1.15.92 2.09 2.06 2.09h23.39c1.13 0 2.05-.94 2.05-2.09z"/><path id="b" d="M886.95 39.43l7.57-6.89a.9.9 0 0 0 .07-1.24.87.87 0 0 0-1.23-.07l-10.44 9.52-2.03-1.85-.02-.02a.53.53 0 0 0-.14-.12l-8.29-7.54a.85.85 0 0 0-1.22.08.88.88 0 0 0 .07 1.24l7.66 6.95-7.63 7.25a.91.91 0 0 0-.04 1.25.9.9 0 0 0 .64.27c.21 0 .42-.07.59-.23l7.74-7.36 2.1 1.91a.86.86 0 0 0 1.16-.01l2.15-1.96 7.7 7.43a.85.85 0 0 0 1.23-.04.9.9 0 0 0-.04-1.24z"/></defs><g opacity=".5" transform="translate(-866 -27)"><use fill="#fff" xlink:href="#a"/><use fill="#fff" fill-opacity="0" stroke="#6fc99c" stroke-miterlimit="50" stroke-width=".3" xlink:href="#a"/></g><g opacity=".5" transform="translate(-866 -27)"><use fill="#fff" xlink:href="#b"/><use fill="#fff" fill-opacity="0" stroke="#6fc99c" stroke-miterlimit="50" stroke-width=".3" xlink:href="#b"/></g></svg>