<svg width="20" height="20" viewBox="0 0 20 20" fill="none" xmlns="http://www.w3.org/2000/svg">
<path d="M19.3554 2.30771H12.3077V4.60309H14.6393V6.1654H12.3077V7.69232H14.6154V9.23079H12.3077V10.7692H14.6154V12.3077H12.3077V13.8462H14.6154V15.3846H12.3077V17.6923H19.3554C19.71 17.6923 20 17.3916 20 17.0231V2.97694C20 2.60848 19.71 2.30771 19.3554 2.30771ZM18.4616 15.3846H15.3847V13.8462H18.4616V15.3846ZM18.4616 12.3077H15.3847V10.7692H18.4616V12.3077ZM18.4616 9.23079H15.3847V7.69232H18.4616V9.23079ZM18.4616 6.15386H15.3847V4.6154H18.4616V6.15386Z" fill="#383D3E"/>
<path d="M0 2.22231V17.7785L11.5385 20V0L0 2.22231ZM7.29846 13.9077L5.95615 11.37C5.90538 11.2754 5.85308 11.1015 5.79846 10.8485H5.77769C5.75231 10.9677 5.69231 11.1492 5.59769 11.3923L4.25077 13.9077H2.15923L4.64231 10.0123L2.37077 6.11615H4.50615L5.62 8.45231C5.70692 8.63692 5.78462 8.85615 5.85385 9.10923H5.87538C5.91923 8.95692 6.00077 8.73077 6.12 8.43L7.35846 6.11538H9.31385L6.97769 9.97846L9.37923 13.9069L7.29846 13.9077Z" fill="#383D3E"/>
</svg>
