<svg width="33" height="32" viewBox="0 0 33 32" fill="none" xmlns="http://www.w3.org/2000/svg">
<path d="M11.7685 16.6618C11.7361 16.3482 11.7181 16.031 11.7181 15.7102C11.7181 15.137 11.7721 14.5783 11.8731 14.0339C11.8983 13.9042 11.8298 13.7708 11.7109 13.7167C11.2206 13.4968 10.77 13.194 10.3807 12.8119C9.92193 12.3671 9.56093 11.8315 9.32073 11.2394C9.08053 10.6473 8.9664 10.0116 8.98561 9.37291C9.01805 8.21576 9.48308 7.11629 10.2942 6.28719C11.1845 5.37517 12.3813 4.8777 13.6538 4.89212C14.8038 4.90294 15.9141 5.34633 16.754 6.13218C17.0388 6.39894 17.2839 6.69453 17.4894 7.01175C17.5615 7.1235 17.7021 7.17037 17.8246 7.12711C18.4591 6.90721 19.1296 6.75221 19.8181 6.68011C20.02 6.65848 20.1353 6.44219 20.0452 6.26195C18.8736 3.94406 16.48 2.34352 13.7115 2.30026C9.71739 2.23898 6.38654 5.51576 6.38654 9.50989C6.38654 11.7737 7.42833 13.7924 9.06131 15.1154C7.91498 15.6453 6.85877 16.3771 5.94315 17.2927C3.96771 19.2645 2.85022 21.8672 2.77812 24.6465C2.77716 24.685 2.78391 24.7233 2.79797 24.7591C2.81203 24.7949 2.83312 24.8276 2.85999 24.8551C2.88687 24.8827 2.91899 24.9045 2.95445 24.9195C2.98992 24.9344 3.02802 24.9421 3.06651 24.9421H5.08881C5.24381 24.9421 5.37359 24.8195 5.37719 24.6645C5.44568 22.5737 6.29282 20.6163 7.7816 19.1311C8.84142 18.0713 10.1392 17.3359 11.5558 16.9791C11.6928 16.9394 11.7866 16.806 11.7685 16.6618Z" fill="white"/>
<path d="M29.4209 25.7247C28.9086 24.5112 28.1652 23.4089 27.232 22.4793C26.3016 21.547 25.1996 20.8037 23.9866 20.2904C23.9758 20.2849 23.9649 20.2822 23.954 20.2768C25.646 19.0547 26.7459 17.064 26.7459 14.818C26.7459 11.0974 23.7313 8.08286 20.0107 8.08286C16.2901 8.08286 13.2755 11.0974 13.2755 14.818C13.2755 17.064 14.3754 19.0547 16.0674 20.2795C16.0565 20.2849 16.0456 20.2876 16.0348 20.2931C14.8181 20.8064 13.7263 21.5423 12.7894 22.482C11.8571 23.4123 11.1138 24.5144 10.6005 25.7274C10.0962 26.9149 9.82424 28.188 9.79931 29.4779C9.79858 29.5069 9.80367 29.5357 9.81426 29.5627C9.82485 29.5897 9.84074 29.6143 9.86099 29.635C9.88124 29.6558 9.90543 29.6723 9.93215 29.6835C9.95887 29.6948 9.98758 29.7006 10.0166 29.7006H11.646C11.7655 29.7006 11.8606 29.6055 11.8633 29.4888C11.9176 27.3922 12.7595 25.4286 14.2478 23.9404C15.7876 22.4005 17.8326 21.5532 20.0107 21.5532C22.1888 21.5532 24.2338 22.4005 25.7736 23.9404C27.2619 25.4286 28.1038 27.3922 28.1581 29.4888C28.1608 29.6082 28.2558 29.7006 28.3753 29.7006H30.0048C30.0338 29.7006 30.0625 29.6948 30.0892 29.6835C30.116 29.6723 30.1402 29.6558 30.1604 29.635C30.1806 29.6143 30.1965 29.5897 30.2071 29.5627C30.2177 29.5357 30.2228 29.5069 30.2221 29.4779C30.1949 28.1797 29.9261 26.9169 29.4209 25.7247ZM20.0107 19.4892C18.7641 19.4892 17.5909 19.0031 16.7083 18.1204C15.8257 17.2378 15.3395 16.0646 15.3395 14.818C15.3395 13.5715 15.8257 12.3983 16.7083 11.5156C17.5909 10.633 18.7641 10.1469 20.0107 10.1469C21.2572 10.1469 22.4305 10.633 23.3131 11.5156C24.1957 12.3983 24.6819 13.5715 24.6819 14.818C24.6819 16.0646 24.1957 17.2378 23.3131 18.1204C22.4305 19.0031 21.2572 19.4892 20.0107 19.4892Z" fill="white" stroke="white" stroke-width="0.321912"/>
</svg>
