<svg width="12" height="11" viewBox="0 0 12 11" fill="none" xmlns="http://www.w3.org/2000/svg">
<path d="M6.23438 9.53125C6.09375 9.67188 5.88281 9.67188 5.74219 9.53125L3.1875 7H1.59375L4.94531 10.3281C5.53125 10.8906 6.44531 10.9141 7.03125 10.3281L10.3828 7H8.78906L6.23438 9.53125ZM8.29688 0.25C7.45312 0.25 6.63281 0.554688 6 1.07031C5.34375 0.554688 4.52344 0.25 3.67969 0.25C2.01562 0.25 0 1.58594 0 3.90625C0 4.79688 0.304688 5.61719 0.867188 6.25H3.60938L4.3125 4.58594L5.64844 7.53906C5.76562 7.82031 6.1875 7.84375 6.32812 7.5625L7.5 5.21875L8.01562 6.25H11.1094C11.6719 5.61719 11.9766 4.79688 11.9766 3.90625C12 1.58594 9.96094 0.25 8.29688 0.25ZM10.2656 5.5H8.46094L7.82812 4.21094C7.6875 3.92969 7.28906 3.92969 7.14844 4.21094L6 6.50781L4.64062 3.48438C4.5 3.17969 4.07812 3.17969 3.96094 3.48438L3.11719 5.5H1.71094C0.328125 3.88281 1.54688 1.375 3.67969 1.375C4.40625 1.375 4.875 1.53906 6 2.64062C7.19531 1.44531 7.61719 1.375 8.29688 1.375C10.4297 1.375 11.6484 3.88281 10.2656 5.5Z" fill="#EB5757"/>
</svg>
