<svg width="10" height="10" viewBox="0 0 10 10" fill="#FFFFFF" xmlns="http://www.w3.org/2000/svg">
<path d="M9.35091 5.83341H0.649308C0.290674 5.83341 0 5.46036 0 5.00008C0 4.5398 0.290674 4.16675 0.649308 4.16675H9.35069C9.70933 4.16675 10 4.5398 10 5.00008C10 5.46036 9.70954 5.83341 9.35091 5.83341Z" fill="white"/>
<path d="M4.16634 9.35091L4.16634 0.649308C4.16634 0.290674 4.5394 -5.65455e-08 4.99967 -3.64262e-08C5.45995 -1.63068e-08 5.83301 0.290674 5.83301 0.649308L5.83301 9.35069C5.83301 9.70933 5.45995 10 4.99967 10C4.5394 10 4.16634 9.70954 4.16634 9.35091Z" fill="white"/>
</svg>
