<svg width="12" height="12" viewBox="0 0 12 12" fill="#1F1F1F" xmlns="http://www.w3.org/2000/svg">
<path d="M6 12C9.3084 12 12 9.30836 12 5.99996C12 2.69156 9.3084 -2.35307e-07 6 -5.24537e-07C2.6916 -8.13766e-07 8.13769e-07 2.69156 5.2454e-07 5.99996C2.3531e-07 9.30836 2.6916 12 6 12ZM6 1.09091C8.70691 1.09091 10.9091 3.29309 10.9091 5.99996C10.9091 8.70684 8.70691 10.9091 6 10.9091C3.29309 10.9091 1.09091 8.70684 1.09091 5.99996C1.09091 3.29309 3.29313 1.09091 6 1.09091Z" fill="#1F1F1F"/>
<path d="M6.00005 9.45453C6.40099 9.45453 6.72717 9.12813 6.72717 8.72693C6.72717 8.32609 6.40099 7.99998 6.00005 7.99998C5.5991 7.99998 5.27292 8.32609 5.27292 8.72693C5.27292 9.12813 5.5991 9.45453 6.00005 9.45453Z" fill="#1F1F1F"/>
<path d="M6.00007 6.90912C6.30131 6.90912 6.54553 6.6649 6.54553 6.36366L6.54553 3.09094C6.54553 2.78971 6.30131 2.54549 6.00008 2.54549C5.69884 2.54549 5.45462 2.78971 5.45462 3.09094L5.45462 6.36366C5.45462 6.6649 5.69884 6.90912 6.00007 6.90912Z" fill="#1F1F1F"/>
</svg>
