<svg xmlns="http://www.w3.org/2000/svg" xmlns:xlink="http://www.w3.org/1999/xlink" width="33" height="32" viewBox="0 0 33 32"><defs><path id="a" d="M63 372.16a6.93 6.93 0 0 1-7 6.84 6.99 6.99 0 0 1-6.72-4.93l-4.74 4.62L31 365.43l3.24-3.16h-.01l13.22-12.87.41-.4h7.54l5.98 5.84v7.44l-3.4 3.32a6.88 6.88 0 0 1 5.02 6.56zm-14.7-22.11l-12.54 12.23 12.02 11.76 1.25-1.22v-.12l-.01-.1-.01-.12-.01-.32a6.93 6.93 0 0 1 7-6.85l.34.01.09.01.12.01.15.01 3.61-3.51v-6.57l-5.36-5.22zm-3.75 27.15l2.47-2.41L35 363.02l-2.48 2.41zm17.37-5.04a5.83 5.83 0 0 0-5.09-5.73h-.01l-.3-.03-.07-.01-.45-.02a5.87 5.87 0 0 0-5.93 5.79c0 .15.02.29.03.43l.01.12.03.24v.01a5.89 5.89 0 0 0 5.86 4.99c3.27 0 5.92-2.6 5.92-5.79z"/><path id="b" d="M58.5 372H56v-2.5a.5.5 0 0 0-.5-.5.5.5 0 0 0-.5.5v2.5h-2.5a.5.5 0 0 0-.5.5c0 .28.22.5.5.5H55v2.5c0 .28.22.5.5.5a.5.5 0 0 0 .5-.5V373h2.5a.5.5 0 0 0 .5-.5.5.5 0 0 0-.5-.5z"/><path id="c" d="M52 356c0-1.1.9-2 2-2a2 2 0 0 1 2 2 2 2 0 0 1-2 2 2 2 0 0 1-2-2zm1.02 0a.98.98 0 1 0 1.96 0 .98.98 0 0 0-1.96 0z"/></defs><g transform="translate(-31 -348)"><use fill="#9b9e9e" xlink:href="#a"/><use fill="#fff" fill-opacity="0" stroke="#9b9e9e" stroke-miterlimit="50" stroke-width=".5" xlink:href="#a"/></g><g transform="translate(-31 -348)"><use fill="#9b9e9e" xlink:href="#b"/><use fill="#fff" fill-opacity="0" stroke="#9b9e9e" stroke-miterlimit="50" stroke-width=".5" xlink:href="#b"/></g><g transform="translate(-31 -348)"><use fill="#9b9e9e" xlink:href="#c"/><use fill="#fff" fill-opacity="0" stroke="#9b9e9e" stroke-miterlimit="50" stroke-width=".5" xlink:href="#c"/></g></svg>