<svg width="18" height="16" viewBox="0 0 18 16" fill="none" xmlns="http://www.w3.org/2000/svg">
<path d="M16.418 0.652344H1.58203C0.709717 0.652344 0 1.36206 0 2.23437V10.6719C0 11.5442 0.709717 12.2539 1.58203 12.2539H3.19922V14.8906C3.19922 15.3266 3.69786 15.5714 4.04297 15.3125L8.12109 12.2539H16.418C17.2903 12.2539 18 11.5442 18 10.6719V2.23437C18 1.36206 17.2903 0.652344 16.418 0.652344ZM6.89062 9.08984H3.72656C3.43529 9.08984 3.19922 8.85377 3.19922 8.5625C3.19922 8.27122 3.43529 8.03516 3.72656 8.03516H6.89062C7.1819 8.03516 7.41797 8.27122 7.41797 8.5625C7.41797 8.85377 7.1819 9.08984 6.89062 9.08984ZM3.72656 6.98047C3.43529 6.98047 3.19922 6.7444 3.19922 6.45312C3.19922 6.16185 3.43529 5.92578 3.72656 5.92578H10.0547C10.346 5.92578 10.582 6.16185 10.582 6.45312C10.582 6.7444 10.346 6.98047 10.0547 6.98047H3.72656ZM14.2734 9.08984H9C8.70872 9.08984 8.47266 8.85377 8.47266 8.5625C8.47266 8.27122 8.70872 8.03516 9 8.03516H14.2734C14.5647 8.03516 14.8008 8.27122 14.8008 8.5625C14.8008 8.85377 14.5647 9.08984 14.2734 9.08984ZM14.2734 6.98047H12.1641C11.8728 6.98047 11.6367 6.7444 11.6367 6.45312C11.6367 6.16185 11.8728 5.92578 12.1641 5.92578H14.2734C14.5647 5.92578 14.8008 6.16185 14.8008 6.45312C14.8008 6.7444 14.5647 6.98047 14.2734 6.98047ZM14.2734 4.87109H3.72656C3.43529 4.87109 3.19922 4.63502 3.19922 4.34375C3.19922 4.05247 3.43529 3.81641 3.72656 3.81641H14.2734C14.5647 3.81641 14.8008 4.05247 14.8008 4.34375C14.8008 4.63502 14.5647 4.87109 14.2734 4.87109Z" fill="#383D3E"/>
</svg>
