<svg width="16" height="11" viewBox="0 0 16 11" fill="none" xmlns="http://www.w3.org/2000/svg">
<path d="M16.0001 7.72366C15.8655 8.01418 15.6246 8.19842 15.3553 8.35431C14.1223 9.08416 12.8965 9.82818 11.6635 10.558C11.0612 10.9123 10.4306 10.5439 10.4164 9.84943C10.4093 9.60851 10.4164 9.37468 10.4164 9.10541C10.303 9.10541 10.2109 9.10541 10.1188 9.10541C9.16929 9.10541 8.22686 9.10541 7.27735 9.10541C6.69631 9.10541 6.37744 8.78655 6.37744 8.19842C6.37744 7.72366 6.37744 7.24182 6.37744 6.76706C6.38453 6.24979 6.71048 5.91675 7.22067 5.91675C8.17726 5.90966 9.13386 5.91675 10.0905 5.91675C10.1897 5.91675 10.2818 5.91675 10.4164 5.91675C10.4164 5.66874 10.4164 5.42782 10.4164 5.19399C10.4235 4.46414 11.0541 4.10276 11.6848 4.47831C12.9673 5.24359 14.2499 6.00178 15.5254 6.78832C15.7167 6.90169 15.8371 7.12844 15.993 7.2985C16.0001 7.44022 16.0001 7.58194 16.0001 7.72366Z" fill="#464A4B"/>
<path d="M5.59079 4.79144C5.59079 5.07487 5.59787 5.32288 5.59079 5.57089C5.57662 6.22279 4.94597 6.59835 4.38618 6.2724C3.04694 5.47169 1.70771 4.67098 0.382639 3.86318C-0.127547 3.5514 -0.127547 2.84281 0.382639 2.53103C1.71479 1.70906 3.05403 0.90127 4.40744 0.114733C4.93888 -0.197047 5.56245 0.178506 5.5837 0.794981C5.59079 1.05007 5.5837 1.30517 5.5837 1.60278C5.68999 1.60278 5.78211 1.60278 5.87423 1.60278C6.82374 1.60278 7.76617 1.60278 8.71568 1.60278C9.30381 1.60278 9.61559 1.92164 9.61559 2.50269C9.61559 2.97036 9.61559 3.43803 9.61559 3.91278C9.61559 4.46549 9.28964 4.79144 8.74402 4.79144C7.79451 4.79144 6.85208 4.79144 5.90257 4.79144C5.81754 4.79144 5.71834 4.79144 5.59079 4.79144Z" fill="#464A4B"/>
</svg>
