<svg width="19" height="22" viewBox="0 0 19 22" fill="none" xmlns="http://www.w3.org/2000/svg">
<path fill-rule="evenodd" clip-rule="evenodd" d="M13.5162 10.1581H7.68858C7.22883 10.1581 6.85606 9.78541 6.85606 9.32561V5.16301C6.85606 4.70321 7.22879 4.33049 7.68858 4.33049H13.5162C13.976 4.33049 14.3487 4.70321 14.3487 5.16301V9.32561C14.3487 9.78541 13.976 10.1581 13.5162 10.1581ZM12.6837 5.99553H8.5211V8.49309H12.6837V5.99553Z" fill="#B4B4B4"/>
<path d="M8.5211 5.99553V5.69553H8.2211V5.99553H8.5211ZM12.6837 5.99553H12.9837V5.69553H12.6837V5.99553ZM8.5211 8.49309H8.2211V8.79309H8.5211V8.49309ZM12.6837 8.49309V8.79309H12.9837V8.49309H12.6837ZM7.68858 10.4581H13.5162V9.85813H7.68858V10.4581ZM6.55606 9.32561C6.55606 9.9511 7.06315 10.4581 7.68858 10.4581V9.85813C7.3945 9.85813 7.15606 9.61971 7.15606 9.32561H6.55606ZM6.55606 5.16301V9.32561H7.15606V5.16301H6.55606ZM7.68858 4.03049C7.0631 4.03049 6.55606 4.53753 6.55606 5.16301H7.15606C7.15606 4.8689 7.39447 4.63049 7.68858 4.63049V4.03049ZM13.5162 4.03049H7.68858V4.63049H13.5162V4.03049ZM14.6487 5.16301C14.6487 4.53753 14.1417 4.03049 13.5162 4.03049V4.63049C13.8103 4.63049 14.0487 4.8689 14.0487 5.16301H14.6487ZM14.6487 9.32561V5.16301H14.0487V9.32561H14.6487ZM13.5162 10.4581C14.1417 10.4581 14.6487 9.95109 14.6487 9.32561H14.0487C14.0487 9.61972 13.8103 9.85813 13.5162 9.85813V10.4581ZM8.5211 6.29553H12.6837V5.69553H8.5211V6.29553ZM8.8211 8.49309V5.99553H8.2211V8.49309H8.8211ZM12.6837 8.19309H8.5211V8.79309H12.6837V8.19309ZM12.3837 5.99553V8.49309H12.9837V5.99553H12.3837Z" fill="#F6F6F6"/>
<path fill-rule="evenodd" clip-rule="evenodd" d="M18.2675 17.4066C18.2864 17.3877 18.3038 17.3682 18.3204 17.3484L18.323 17.3451C18.4651 17.1739 18.5227 16.9716 18.5114 16.7759V1.83252C18.5114 1.37272 18.1387 1 17.6789 1H4.78894C3.6315 1 2.69345 1.93801 2.69345 3.09545V5.3052C1.72337 5.64801 1.02841 6.57248 1.02841 7.66016C1.02841 8.74789 1.72337 9.67232 2.69345 10.0151V11.1328C1.72337 11.4756 1.02841 12.4001 1.02841 13.4878C1.02841 14.5754 1.72337 15.4999 2.69345 15.8427V18.4829C2.69345 18.5009 2.69394 18.5186 2.69479 18.536C2.72313 19.8911 3.8291 20.9804 5.19101 20.9804H17.6788C18.4205 20.9804 18.7919 20.0837 18.2675 19.5592C17.4829 18.7747 17.4829 18.1912 18.2675 17.4066ZM3.52597 12.6553C3.98614 12.6553 4.35849 13.0276 4.35849 13.4878C4.35849 13.9476 4.73122 14.3203 5.19101 14.3203C5.65081 14.3203 6.02353 13.9476 6.02353 13.4878C6.02353 12.4001 5.32857 11.4757 4.35849 11.1328V9.3252C4.35849 8.86541 3.98577 8.49268 3.52597 8.49268C3.06581 8.49268 2.69345 8.12033 2.69345 7.66016C2.69345 7.2 3.06581 6.82764 3.52597 6.82764C3.98614 6.82764 4.35849 7.2 4.35849 7.66016C4.35849 8.11996 4.73122 8.49268 5.19101 8.49268C5.65081 8.49268 6.02353 8.11996 6.02353 7.66016C6.02353 6.57244 5.32857 5.64801 4.35849 5.3052V3.09545C4.35849 2.85756 4.55105 2.66504 4.7889 2.66504H16.8463V15.9854H5.19101C5.15085 15.9854 5.11097 15.9865 5.0713 15.9884C5.06297 15.9888 5.0547 15.9894 5.04644 15.9899L5.04638 15.9899L5.03296 15.9909C5.00605 15.9925 4.97922 15.9944 4.95252 15.997C4.94074 15.9981 4.92901 15.9994 4.91729 16.0007L4.91717 16.0007L4.90853 16.0017C4.88374 16.0045 4.85906 16.0076 4.83447 16.0111C4.81963 16.0132 4.80483 16.0154 4.79008 16.0178C4.7652 16.0218 4.74053 16.0263 4.71593 16.031L4.70351 16.0334L4.7035 16.0334C4.69397 16.0352 4.68446 16.037 4.675 16.039C4.64642 16.045 4.61813 16.0517 4.58992 16.0586L4.5786 16.0613L4.56252 16.0652C4.5254 16.0748 4.48862 16.0852 4.45219 16.0965C4.44696 16.0981 4.44181 16.0998 4.43664 16.1016C4.4331 16.1028 4.42955 16.104 4.42597 16.1051L4.41834 16.1076C4.39831 16.114 4.37826 16.1204 4.35849 16.1274V15.1528C4.35849 14.693 3.98577 14.3203 3.52597 14.3203C3.06581 14.3203 2.69345 13.948 2.69345 13.4878C2.69345 13.0276 3.06585 12.6553 3.52597 12.6553ZM5.19105 19.3154H16.1553C15.9669 18.7637 15.9669 18.2022 16.1553 17.6504H5.19105C4.73089 17.6504 4.35853 18.0228 4.35853 18.4829C4.35853 18.9431 4.73089 19.3154 5.19105 19.3154Z" fill="#B4B4B4"/>
<path d="M18.3204 17.3484L18.5506 17.5408L18.5547 17.5358L18.3204 17.3484ZM18.2675 17.4066L18.4796 17.6187L18.4796 17.6187L18.2675 17.4066ZM18.323 17.3451L18.0921 17.1535L18.0887 17.1577L18.323 17.3451ZM18.5114 16.7759H18.2114V16.7846L18.2119 16.7932L18.5114 16.7759ZM2.69345 5.3052L2.79341 5.58806L2.99345 5.51737V5.3052H2.69345ZM2.69345 10.0151H2.99345V9.80296L2.79341 9.73226L2.69345 10.0151ZM2.69345 11.1328L2.79341 11.4157L2.99345 11.345V11.1328H2.69345ZM2.69345 15.8427H2.99345V15.6306L2.79341 15.5599L2.69345 15.8427ZM2.69479 18.536L2.99485 18.5297L2.99443 18.5213L2.69479 18.536ZM18.2675 19.5592L18.4797 19.3471L18.4796 19.3471L18.2675 19.5592ZM4.35849 11.1328H4.05849V11.345L4.25854 11.4157L4.35849 11.1328ZM4.35849 5.3052H4.05849V5.51737L4.25854 5.58806L4.35849 5.3052ZM16.8463 2.66504H17.1463V2.36504H16.8463V2.66504ZM16.8463 15.9854V16.2854H17.1463V15.9854H16.8463ZM5.0713 15.9884L5.05717 15.6887L5.05708 15.6887L5.0713 15.9884ZM5.04644 15.9899L5.06106 16.2896L5.06754 16.2892L5.04644 15.9899ZM5.04638 15.9899L5.03176 15.6902L5.02595 15.6906L5.04638 15.9899ZM5.03296 15.9909L5.0515 16.2903L5.05339 16.2902L5.03296 15.9909ZM4.95252 15.997L4.98056 16.2956L4.98071 16.2956L4.95252 15.997ZM4.91729 16.0007L4.88386 15.7026L4.88264 15.7027L4.91729 16.0007ZM4.91717 16.0007L4.95053 16.2988L4.95182 16.2987L4.91717 16.0007ZM4.90853 16.0017L4.87517 15.7035L4.87482 15.7036L4.90853 16.0017ZM4.83447 16.0111L4.79225 15.714L4.79217 15.7141L4.83447 16.0111ZM4.79008 16.0178L4.83799 16.3139L4.83821 16.3139L4.79008 16.0178ZM4.71593 16.031L4.77218 16.3257L4.7729 16.3256L4.71593 16.031ZM4.70351 16.0334L4.64726 15.7387L4.64468 15.7392L4.70351 16.0334ZM4.7035 16.0334L4.75941 16.3281L4.76233 16.3276L4.7035 16.0334ZM4.675 16.039L4.61345 15.7454L4.6132 15.7454L4.675 16.039ZM4.58992 16.0586L4.65883 16.3506L4.66169 16.3499L4.58992 16.0586ZM4.5786 16.0613L4.50968 15.7693L4.50835 15.7696L4.5786 16.0613ZM4.56252 16.0652L4.49226 15.7735L4.48714 15.7748L4.56252 16.0652ZM4.45219 16.0965L4.5407 16.3831L4.54081 16.3831L4.45219 16.0965ZM4.43664 16.1016L4.34061 15.8174L4.34058 15.8174L4.43664 16.1016ZM4.42597 16.1051L4.51748 16.3908L4.51845 16.3905L4.42597 16.1051ZM4.41834 16.1076L4.50981 16.3933L4.50985 16.3933L4.41834 16.1076ZM4.35849 16.1274H4.05849V16.5519L4.45862 16.4102L4.35849 16.1274ZM16.1553 19.3154V19.6154H16.5747L16.4392 19.2185L16.1553 19.3154ZM16.1553 17.6504L16.4392 17.7473L16.5747 17.3504H16.1553V17.6504ZM18.0902 17.1559C18.0779 17.1707 18.0665 17.1833 18.0554 17.1945L18.4796 17.6187C18.5063 17.5921 18.5297 17.5657 18.5506 17.5408L18.0902 17.1559ZM18.0887 17.1577L18.0861 17.161L18.5547 17.5358L18.5573 17.5325L18.0887 17.1577ZM18.2119 16.7932C18.219 16.9169 18.1834 17.0436 18.0921 17.1536L18.5539 17.5367C18.7468 17.3042 18.8264 17.0263 18.8109 16.7585L18.2119 16.7932ZM18.2114 1.83252V16.7759H18.8114V1.83252H18.2114ZM17.6789 1.3C17.973 1.3 18.2114 1.53841 18.2114 1.83252H18.8114C18.8114 1.20704 18.3043 0.7 17.6789 0.7V1.3ZM4.78894 1.3H17.6789V0.7H4.78894V1.3ZM2.99345 3.09545C2.99345 2.1037 3.79718 1.3 4.78894 1.3V0.7C3.46582 0.7 2.39345 1.77232 2.39345 3.09545H2.99345ZM2.99345 5.3052V3.09545H2.39345V5.3052H2.99345ZM1.32841 7.66016C1.32841 6.70364 1.93939 5.88985 2.79341 5.58806L2.5935 5.02235C1.50735 5.40616 0.728412 6.44132 0.728412 7.66016H1.32841ZM2.79341 9.73226C1.93939 9.43047 1.32841 8.61672 1.32841 7.66016H0.728412C0.728412 8.87905 1.50735 9.91416 2.5935 10.298L2.79341 9.73226ZM2.99345 11.1328V10.0151H2.39345V11.1328H2.99345ZM1.32841 13.4878C1.32841 12.5312 1.93939 11.7175 2.79341 11.4157L2.5935 10.8499C1.50735 11.2338 0.728412 12.2689 0.728412 13.4878H1.32841ZM2.79341 15.5599C1.93939 15.2581 1.32841 14.4443 1.32841 13.4878H0.728412C0.728412 14.7066 1.50735 15.7418 2.5935 16.1256L2.79341 15.5599ZM2.99345 18.4829V15.8427H2.39345V18.4829H2.99345ZM2.99443 18.5213C2.99379 18.5082 2.99345 18.4955 2.99345 18.4829H2.39345C2.39345 18.5063 2.39409 18.5289 2.39515 18.5507L2.99443 18.5213ZM5.19101 20.6804C3.99284 20.6804 3.01966 19.7221 2.99473 18.5297L2.39486 18.5422C2.42659 20.06 3.66537 21.2804 5.19101 21.2804V20.6804ZM17.6788 20.6804H5.19101V21.2804H17.6788V20.6804ZM18.0554 19.7714C18.3908 20.1068 18.1532 20.6804 17.6788 20.6804V21.2804C18.6878 21.2804 19.1931 20.0606 18.4797 19.3471L18.0554 19.7714ZM18.0554 17.1944C17.6459 17.6039 17.379 18.0193 17.379 18.4829C17.379 18.9465 17.6459 19.3619 18.0554 19.7714L18.4796 19.3471C18.1045 18.972 17.979 18.7033 17.979 18.4829C17.979 18.2625 18.1045 17.9938 18.4796 17.6187L18.0554 17.1944ZM4.65849 13.4878C4.65849 12.862 4.15182 12.3553 3.52597 12.3553V12.9553C3.82045 12.9553 4.05849 13.1933 4.05849 13.4878H4.65849ZM5.19101 14.0203C4.8969 14.0203 4.65849 13.7819 4.65849 13.4878H4.05849C4.05849 14.1133 4.56553 14.6203 5.19101 14.6203V14.0203ZM5.72353 13.4878C5.72353 13.7819 5.48512 14.0203 5.19101 14.0203V14.6203C5.8165 14.6203 6.32353 14.1133 6.32353 13.4878H5.72353ZM4.25854 11.4157C5.11256 11.7175 5.72353 12.5312 5.72353 13.4878H6.32353C6.32353 12.2689 5.54459 11.2338 4.45845 10.85L4.25854 11.4157ZM4.05849 9.3252V11.1328H4.65849V9.3252H4.05849ZM3.52597 8.79268C3.82008 8.79268 4.05849 9.03109 4.05849 9.3252H4.65849C4.65849 8.69972 4.15145 8.19268 3.52597 8.19268V8.79268ZM2.39345 7.66016C2.39345 8.28601 2.90012 8.79268 3.52597 8.79268V8.19268C3.2315 8.19268 2.99345 7.95464 2.99345 7.66016H2.39345ZM3.52597 6.52764C2.90012 6.52764 2.39345 7.03431 2.39345 7.66016H2.99345C2.99345 7.36568 3.2315 7.12764 3.52597 7.12764V6.52764ZM4.65849 7.66016C4.65849 7.03431 4.15182 6.52764 3.52597 6.52764V7.12764C3.82045 7.12764 4.05849 7.36568 4.05849 7.66016H4.65849ZM5.19101 8.19268C4.8969 8.19268 4.65849 7.95427 4.65849 7.66016H4.05849C4.05849 8.28564 4.56553 8.79268 5.19101 8.79268V8.19268ZM5.72353 7.66016C5.72353 7.95427 5.48512 8.19268 5.19101 8.19268V8.79268C5.8165 8.79268 6.32353 8.28565 6.32353 7.66016H5.72353ZM4.25854 5.58806C5.11256 5.88985 5.72353 6.7036 5.72353 7.66016H6.32353C6.32353 6.44128 5.54459 5.40616 4.45845 5.02235L4.25854 5.58806ZM4.05849 3.09545V5.3052H4.65849V3.09545H4.05849ZM4.7889 2.36504C4.38539 2.36504 4.05849 2.69186 4.05849 3.09545H4.65849C4.65849 3.02326 4.71672 2.96504 4.7889 2.96504V2.36504ZM16.8463 2.36504H4.7889V2.96504H16.8463V2.36504ZM17.1463 15.9854V2.66504H16.5463V15.9854H17.1463ZM5.19101 16.2854H16.8463V15.6854H5.19101V16.2854ZM5.08542 16.288C5.12142 16.2863 5.15648 16.2854 5.19101 16.2854V15.6854C5.14522 15.6854 5.10053 15.6867 5.05717 15.6887L5.08542 16.288ZM5.06754 16.2892C5.07638 16.2886 5.08121 16.2882 5.08551 16.288L5.05708 15.6887C5.04474 15.6893 5.03303 15.6901 5.02534 15.6907L5.06754 16.2892ZM5.061 16.2896L5.06105 16.2896L5.03182 15.6903L5.03176 15.6903L5.061 16.2896ZM5.05339 16.2902L5.06681 16.2892L5.02595 15.6906L5.01254 15.6916L5.05339 16.2902ZM4.98071 16.2956C5.00297 16.2935 5.02628 16.2918 5.0515 16.2903L5.01443 15.6914C4.98583 15.6932 4.95548 15.6953 4.92433 15.6983L4.98071 16.2956ZM4.95072 16.2988C4.96288 16.2975 4.97192 16.2964 4.98056 16.2956L4.92447 15.6983C4.90955 15.6997 4.89514 15.7013 4.88386 15.7026L4.95072 16.2988ZM4.95182 16.2987L4.95194 16.2987L4.88264 15.7027L4.88251 15.7027L4.95182 16.2987ZM4.9419 16.2998L4.95053 16.2988L4.8838 15.7026L4.87517 15.7035L4.9419 16.2998ZM4.87669 16.3081C4.898 16.305 4.91979 16.3023 4.94225 16.2998L4.87482 15.7036C4.84768 15.7066 4.82013 15.7101 4.79225 15.714L4.87669 16.3081ZM4.83821 16.3139C4.85031 16.3119 4.863 16.31 4.87677 16.3081L4.79217 15.7141C4.77626 15.7163 4.75936 15.7188 4.74195 15.7217L4.83821 16.3139ZM4.7729 16.3256C4.79521 16.3212 4.81678 16.3173 4.83799 16.3139L4.74217 15.7216C4.71362 15.7262 4.68585 15.7313 4.65896 15.7365L4.7729 16.3256ZM4.75975 16.3281L4.77218 16.3257L4.65969 15.7363L4.64727 15.7387L4.75975 16.3281ZM4.76233 16.3276L4.76235 16.3276L4.64468 15.7392L4.64466 15.7392L4.76233 16.3276ZM4.73654 16.3326C4.74272 16.3313 4.7494 16.33 4.7594 16.3281L4.64759 15.7386C4.63854 15.7404 4.62619 15.7427 4.61345 15.7454L4.73654 16.3326ZM4.66169 16.3499C4.68805 16.3434 4.71276 16.3376 4.7368 16.3326L4.6132 15.7454C4.58008 15.7524 4.5482 15.7599 4.51814 15.7673L4.66169 16.3499ZM4.64751 16.3533L4.65883 16.3506L4.521 15.7666L4.50968 15.7693L4.64751 16.3533ZM4.63276 16.3568L4.64884 16.353L4.50835 15.7696L4.49227 15.7735L4.63276 16.3568ZM4.54081 16.3831C4.5726 16.3732 4.60496 16.3641 4.63789 16.3555L4.48714 15.7748C4.44584 15.7855 4.40463 15.7972 4.36358 15.8098L4.54081 16.3831ZM4.53268 16.3858C4.53844 16.3838 4.53987 16.3834 4.5407 16.3831L4.36368 15.8098C4.35405 15.8128 4.34517 15.8158 4.34061 15.8174L4.53268 16.3858ZM4.51845 16.3905C4.52413 16.3887 4.52947 16.3869 4.53271 16.3858L4.34058 15.8174C4.33673 15.8187 4.33497 15.8193 4.33349 15.8197L4.51845 16.3905ZM4.50985 16.3933L4.51748 16.3908L4.33446 15.8194L4.32683 15.8219L4.50985 16.3933ZM4.45862 16.4102C4.47336 16.405 4.48906 16.3999 4.50981 16.3933L4.32687 15.8219C4.30757 15.828 4.28316 15.8358 4.25837 15.8446L4.45862 16.4102ZM4.05849 15.1528V16.1274H4.65849V15.1528H4.05849ZM3.52597 14.6203C3.82008 14.6203 4.05849 14.8587 4.05849 15.1528H4.65849C4.65849 14.5274 4.15145 14.0203 3.52597 14.0203V14.6203ZM2.39345 13.4878C2.39345 14.1137 2.90012 14.6203 3.52597 14.6203V14.0203C3.2315 14.0203 2.99345 13.7823 2.99345 13.4878H2.39345ZM3.52597 12.3553C2.90017 12.3553 2.39345 12.8619 2.39345 13.4878H2.99345C2.99345 13.1933 3.23153 12.9553 3.52597 12.9553V12.3553ZM16.1553 19.0154H5.19105V19.6154H16.1553V19.0154ZM15.8714 17.5535C15.6615 18.1681 15.6615 18.7977 15.8714 19.4124L16.4392 19.2185C16.2723 18.7296 16.2723 18.2363 16.4392 17.7473L15.8714 17.5535ZM5.19105 17.9504H16.1553V17.3504H5.19105V17.9504ZM4.65853 18.4829C4.65853 18.1884 4.89658 17.9504 5.19105 17.9504V17.3504C4.56521 17.3504 4.05853 17.8571 4.05853 18.4829H4.65853ZM5.19105 19.0154C4.89658 19.0154 4.65853 18.7774 4.65853 18.4829H4.05853C4.05853 19.1088 4.56521 19.6154 5.19105 19.6154V19.0154Z" fill="#F6F6F6"/>
</svg>
