<svg width="23" height="22" viewBox="0 0 23 22" fill="none" xmlns="http://www.w3.org/2000/svg">
<path d="M6.8247 7.54976L8.60249 8.43864C9.04158 8.65818 9.57553 8.48022 9.79508 8.0411C10.0146 7.60197 9.83666 7.06805 9.39753 6.84851L7.61974 5.95964C7.18066 5.7401 6.6467 5.91805 6.42716 6.35718C6.20762 6.7963 6.38562 7.33022 6.8247 7.54976Z" fill="#B4B4B4" stroke="#F6F6F6" stroke-width="0.6"/>
<path d="M6.8247 11.1053L8.60249 11.9942C9.04158 12.2137 9.57553 12.0358 9.79508 11.5966C10.0146 11.1575 9.83666 10.6236 9.39753 10.4041L7.61974 9.51518C7.18066 9.29564 6.6467 9.4736 6.42716 9.91272C6.20762 10.3518 6.38562 10.8858 6.8247 11.1053Z" fill="#B4B4B4" stroke="#F6F6F6" stroke-width="0.6"/>
<path d="M6.8247 14.6608L8.60249 15.5497C9.04158 15.7693 9.57553 15.5913 9.79508 15.1522C10.0146 14.7131 9.83666 14.1791 9.39753 13.9596L7.61974 13.0707C7.18066 12.8512 6.6467 13.0291 6.42716 13.4683C6.20762 13.9074 6.38562 14.4413 6.8247 14.6608Z" fill="#B4B4B4" stroke="#F6F6F6" stroke-width="0.6"/>
<path d="M14.7309 8.43864L16.5087 7.54976C16.9477 7.33022 17.1257 6.7963 16.9062 6.35718C16.6867 5.91805 16.1527 5.7401 15.7136 5.95964L13.9358 6.84851C13.4967 7.06805 13.3187 7.60197 13.5383 8.0411C13.7578 8.48022 14.2917 8.65822 14.7309 8.43864Z" fill="#B4B4B4" stroke="#F6F6F6" stroke-width="0.6"/>
<path d="M14.7309 11.9942L16.5087 11.1053C16.9477 10.8858 17.1257 10.3518 16.9062 9.91272C16.6867 9.4736 16.1527 9.29564 15.7136 9.51518L13.9358 10.4041C13.4967 10.6236 13.3187 11.1575 13.5383 11.5966C13.7578 12.0358 14.2917 12.2137 14.7309 11.9942Z" fill="#B4B4B4" stroke="#F6F6F6" stroke-width="0.6"/>
<path d="M14.7309 15.5497L16.5087 14.6608C16.9477 14.4413 17.1257 13.9074 16.9062 13.4683C16.6867 13.0291 16.1527 12.8512 15.7136 13.0707L13.9358 13.9596C13.4967 14.1791 13.3187 14.7131 13.5383 15.1522C13.7578 15.5913 14.2917 15.7693 14.7309 15.5497Z" fill="#B4B4B4" stroke="#F6F6F6" stroke-width="0.6"/>
<path fill-rule="evenodd" clip-rule="evenodd" d="M21.4445 3.19916H19.6667V1.91203C19.6667 1.29141 19.0468 0.861822 18.4657 1.07974L11.6667 3.62936L4.86767 1.07974C4.28654 0.861822 3.66667 1.29141 3.66667 1.91203V3.21924L1.89896 3.1992C1.40413 3.19357 1 3.59316 1 4.08803V20.088C1 20.5789 1.39796 20.9769 1.88888 20.9769H11.6358L11.6375 20.9769C11.6472 20.9773 11.6569 20.9774 11.6667 20.9774C11.6764 20.9774 11.6861 20.9773 11.6958 20.9769L11.6975 20.9769H21.4445C21.9354 20.9769 22.3333 20.5789 22.3333 20.088V4.08803C22.3333 3.59711 21.9354 3.19916 21.4445 3.19916ZM17.8889 4.08803V16.8054L12.5555 18.8054V5.1947L17.8889 3.1947V4.08803ZM10.7778 5.1947L5.44446 3.1947V4.11824V16.8054L10.7778 18.8054V5.1947ZM2.77779 4.98703L3.66667 4.99711V17.4214C3.66667 17.4583 3.66958 17.4947 3.67404 17.5307L3.67519 17.5411C3.67578 17.5468 3.67637 17.5525 3.67725 17.5582C3.67795 17.5626 3.67885 17.5669 3.67976 17.5712L3.68167 17.5808L3.6831 17.5888C3.68525 17.6008 3.68741 17.6128 3.69021 17.6246C3.69179 17.6313 3.6937 17.638 3.69562 17.6446L3.69863 17.6552L3.70154 17.6661C3.70359 17.6739 3.70563 17.6817 3.70804 17.6894C3.70898 17.6923 3.70999 17.6953 3.71104 17.6982C3.71218 17.7014 3.71336 17.7046 3.71454 17.7078L3.71842 17.7183L3.72205 17.7288C3.72478 17.7367 3.7275 17.7446 3.73062 17.7524C3.73278 17.7578 3.73522 17.763 3.73765 17.7683L3.74187 17.7776L3.74575 17.7865L3.74576 17.7865C3.74961 17.7955 3.75347 17.8045 3.75775 17.8132C3.76111 17.82 3.76478 17.8266 3.76845 17.8333L3.76847 17.8333L3.77404 17.8435L3.77933 17.8535L3.77934 17.8535C3.78254 17.8596 3.78575 17.8657 3.78925 17.8717C3.7926 17.8774 3.79622 17.8829 3.79985 17.8884L3.80571 17.8974L3.81177 17.9071L3.81179 17.9072C3.81608 17.9141 3.82038 17.921 3.825 17.9277C3.82804 17.9321 3.83131 17.9363 3.83458 17.9406C3.83656 17.9431 3.83853 17.9457 3.84046 17.9483L3.84623 17.9562C3.85229 17.9645 3.85834 17.9728 3.86479 17.9808C3.86835 17.9852 3.87215 17.9894 3.87594 17.9937L3.8825 18.0011L3.88858 18.0082L3.8886 18.0082C3.8951 18.0159 3.90161 18.0235 3.9085 18.0309C3.91275 18.0354 3.91724 18.0397 3.92173 18.044L3.92946 18.0515L3.93696 18.0591C3.94317 18.0654 3.94937 18.0716 3.95592 18.0776C3.96139 18.0826 3.96712 18.0873 3.97285 18.0921L3.98075 18.0987L3.98882 18.1056L3.98887 18.1057C3.99481 18.1108 4.00074 18.116 4.00696 18.1209C4.01243 18.1252 4.01816 18.1292 4.02388 18.1332L4.03254 18.1394L4.04097 18.1456C4.04768 18.1506 4.05438 18.1556 4.06137 18.1603C4.06765 18.1645 4.07417 18.1684 4.08069 18.1723L4.09021 18.178L4.09968 18.184C4.10606 18.188 4.11243 18.192 4.11904 18.1957C4.12661 18.2 4.13444 18.2039 4.14226 18.2078L4.15275 18.2131L4.16285 18.2183C4.16842 18.2213 4.174 18.2243 4.17975 18.2269C4.18803 18.2308 4.19658 18.2343 4.20512 18.2377L4.21479 18.2417L4.22486 18.246L4.22493 18.246C4.23097 18.2486 4.23702 18.2513 4.24325 18.2536L4.24358 18.2537H4.24362L4.24587 18.2546L6.76162 19.1992H2.77779V4.98703ZM16.5709 19.1992H20.5555H20.5556V4.97691H19.6667V17.4213C19.6667 17.4583 19.6638 17.4947 19.6593 17.5307C19.6589 17.5344 19.6585 17.5381 19.6581 17.5418C19.6575 17.5473 19.657 17.5527 19.6561 17.5581C19.6554 17.5626 19.6545 17.567 19.6536 17.5714C19.6529 17.5745 19.6523 17.5776 19.6517 17.5808C19.6513 17.5832 19.6508 17.5856 19.6504 17.588C19.6482 17.6002 19.646 17.6125 19.6432 17.6245C19.6415 17.6315 19.6393 17.6382 19.6375 17.6452C19.6369 17.6474 19.6363 17.6496 19.6358 17.6518C19.6325 17.6644 19.6292 17.677 19.6253 17.6894C19.6239 17.694 19.6221 17.6986 19.6204 17.7032C19.6199 17.7046 19.6194 17.706 19.6189 17.7074L19.6177 17.7109C19.613 17.7249 19.6083 17.7387 19.6028 17.7523C19.6006 17.7577 19.5982 17.7629 19.5958 17.7681C19.5944 17.7713 19.5929 17.7744 19.5915 17.7775C19.5902 17.7805 19.589 17.7835 19.5877 17.7864C19.5838 17.7954 19.58 17.8044 19.5757 17.8132C19.5715 17.8217 19.5667 17.8298 19.5622 17.8382C19.5582 17.8458 19.5543 17.8534 19.5502 17.861C19.5482 17.8646 19.5462 17.8682 19.5442 17.8717C19.5399 17.8789 19.5351 17.8857 19.5307 17.8927C19.5289 17.8957 19.527 17.8986 19.5252 17.9016C19.5198 17.9104 19.5143 17.9191 19.5084 17.9276C19.506 17.9312 19.5033 17.9346 19.5007 17.938C19.4987 17.9406 19.4968 17.9431 19.4949 17.9457C19.4933 17.9478 19.4918 17.95 19.4902 17.9522C19.4832 17.9618 19.4761 17.9715 19.4686 17.9807C19.4662 17.9837 19.4637 17.9865 19.4612 17.9894C19.4588 17.992 19.4564 17.9947 19.4541 17.9974C19.4527 17.9991 19.4513 18.0007 19.4498 18.0024C19.4417 18.012 19.4335 18.0216 19.4249 18.0308C19.4207 18.0352 19.4163 18.0395 19.4118 18.0437C19.4092 18.0463 19.4065 18.0489 19.4039 18.0514C19.4014 18.0539 19.399 18.0564 19.3965 18.0589C19.3903 18.0652 19.384 18.0715 19.3775 18.0775C19.37 18.0843 19.3621 18.0905 19.3544 18.097C19.349 18.1016 19.3437 18.1063 19.3383 18.1109C19.3344 18.1143 19.3305 18.1176 19.3265 18.1207C19.3189 18.1267 19.3108 18.132 19.303 18.1377C19.2928 18.1453 19.2827 18.1531 19.2721 18.1602C19.2628 18.1664 19.2529 18.172 19.2432 18.1779C19.2394 18.1803 19.2356 18.1827 19.2319 18.1851C19.2261 18.1887 19.2204 18.1923 19.2144 18.1957C19.2072 18.1997 19.1998 18.2034 19.1924 18.2071C19.189 18.2088 19.1856 18.2105 19.1823 18.2122C19.1789 18.2139 19.1756 18.2157 19.1722 18.2174C19.1661 18.2207 19.16 18.2239 19.1537 18.2269C19.1461 18.2304 19.1383 18.2336 19.1305 18.2367C19.1269 18.2382 19.1233 18.2397 19.1197 18.2412C19.1163 18.2426 19.113 18.244 19.1097 18.2455C19.1033 18.2483 19.0969 18.2511 19.0903 18.2535L19.0899 18.2537H19.0899L19.0865 18.2549L16.5709 19.1992Z" fill="#B4B4B4"/>
<path d="M19.6667 3.19916H19.3667V3.49916H19.6667V3.19916ZM18.4657 1.07974L18.3603 0.79884L18.3603 0.79884L18.4657 1.07974ZM11.6667 3.62936L11.5613 3.91026L11.6667 3.94976L11.772 3.91026L11.6667 3.62936ZM4.86767 1.07974L4.973 0.79884L4.973 0.79884L4.86767 1.07974ZM3.66667 3.21924L3.66327 3.51922L3.96667 3.52266V3.21924H3.66667ZM1.89896 3.1992L1.89555 3.49918H1.89556L1.89896 3.1992ZM11.6358 20.9769L11.6432 20.6769H11.6358V20.9769ZM11.6375 20.9769L11.6479 20.6771L11.6449 20.677L11.6375 20.9769ZM11.6958 20.9769L11.6884 20.677L11.6855 20.6771L11.6958 20.9769ZM11.6975 20.9769V20.6768L11.6901 20.677L11.6975 20.9769ZM17.8889 16.8054L17.9942 17.0863L18.1889 17.0133V16.8054H17.8889ZM12.5555 18.8054H12.2555V19.2383L12.6609 19.0863L12.5555 18.8054ZM12.5555 5.1947L12.4502 4.9138L12.2555 4.9868V5.1947H12.5555ZM17.8889 3.1947H18.1889V2.7618L17.7835 2.9138L17.8889 3.1947ZM5.44446 3.1947L5.5498 2.9138L5.14446 2.7618V3.1947H5.44446ZM10.7778 5.1947H11.0778V4.9868L10.8831 4.9138L10.7778 5.1947ZM5.44446 16.8054H5.14446V17.0133L5.33912 17.0863L5.44446 16.8054ZM10.7778 18.8054L10.6725 19.0863L11.0778 19.2383V18.8054H10.7778ZM3.66667 4.99711H3.96667V4.7005L3.67007 4.69713L3.66667 4.99711ZM2.77779 4.98703L2.78119 4.68705L2.47779 4.68361V4.98703H2.77779ZM3.67404 17.5307L3.97227 17.4979L3.97177 17.4938L3.67404 17.5307ZM3.67519 17.5411L3.9736 17.5102L3.97339 17.5083L3.67519 17.5411ZM3.67725 17.5582L3.38083 17.6044L3.38095 17.6051L3.67725 17.5582ZM3.67976 17.5712L3.97398 17.5126L3.97345 17.51L3.67976 17.5712ZM3.68167 17.5808L3.97695 17.5275L3.97588 17.5222L3.68167 17.5808ZM3.6831 17.5888L3.97838 17.5357L3.97833 17.5355L3.6831 17.5888ZM3.69021 17.6246L3.98233 17.5563L3.98212 17.5554L3.69021 17.6246ZM3.69562 17.6446L3.98421 17.5626L3.9838 17.5612L3.69562 17.6446ZM3.69863 17.6552L3.98858 17.578L3.98721 17.5732L3.69863 17.6552ZM3.70154 17.6661L3.99173 17.59L3.99145 17.589L3.70154 17.6661ZM3.70804 17.6894L3.42189 17.7795L3.42189 17.7795L3.70804 17.6894ZM3.71104 17.6982L3.42851 17.7991L3.42853 17.7992L3.71104 17.6982ZM3.71454 17.7078L3.99622 17.6045L3.99561 17.6029L3.71454 17.7078ZM3.71842 17.7183L4.00181 17.6198L4.00009 17.6151L3.71842 17.7183ZM3.72205 17.7288L4.00573 17.6312L4.00541 17.6302L3.72205 17.7288ZM3.73062 17.7524L4.00917 17.641L4.00888 17.6402L3.73062 17.7524ZM3.73765 17.7683L4.01072 17.644L4.00996 17.6424L3.73765 17.7683ZM3.74187 17.7776L4.01724 17.6584L4.01494 17.6533L3.74187 17.7776ZM3.74575 17.7865L3.4703 17.9057L3.47411 17.9138L3.74575 17.7865ZM3.74576 17.7865L4.02143 17.6678L4.01739 17.6592L3.74576 17.7865ZM3.75775 17.8132L3.48828 17.945L3.48877 17.946L3.75775 17.8132ZM3.76845 17.8333L4.03342 17.6925L4.031 17.6881L3.76845 17.8333ZM3.76847 17.8333L3.50351 17.9741L3.50536 17.9774L3.76847 17.8333ZM3.77404 17.8435L4.0392 17.7031L4.03716 17.6994L3.77404 17.8435ZM3.77933 17.8535L3.51418 17.9938L3.51554 17.9964L3.77933 17.8535ZM3.77934 17.8535L4.04518 17.7144L4.04312 17.7106L3.77934 17.8535ZM3.78925 17.8717L4.04789 17.7197L4.04782 17.7196L3.78925 17.8717ZM3.79985 17.8884L4.05139 17.7249L4.05059 17.7237L3.79985 17.8884ZM3.80571 17.8974L4.05996 17.7381L4.05725 17.734L3.80571 17.8974ZM3.81177 17.9071L4.07103 17.7559L4.06599 17.7478L3.81177 17.9071ZM3.81179 17.9072L3.55255 18.0584L3.55704 18.0656L3.81179 17.9072ZM3.825 17.9277L3.57812 18.0981L3.57834 18.0984L3.825 17.9277ZM3.83458 17.9406L4.07235 17.7576L4.07232 17.7576L3.83458 17.9406ZM3.84046 17.9483L4.08258 17.7711L4.08147 17.7696L3.84046 17.9483ZM3.84623 17.9562L4.08865 17.7794L4.08835 17.779L3.84623 17.9562ZM3.86479 17.9808L3.63127 18.1691L3.63145 18.1693L3.86479 17.9808ZM3.87594 17.9937L4.10059 17.7948L4.09943 17.7935L3.87594 17.9937ZM3.8825 18.0011L4.11078 17.8063L4.10714 17.8022L3.8825 18.0011ZM3.88858 18.0082L4.11906 17.8161L4.11683 17.8135L3.88858 18.0082ZM3.8886 18.0082L3.65812 18.2003L3.66 18.2025L3.8886 18.0082ZM3.9085 18.0309L3.68986 18.2363L3.69009 18.2365L3.9085 18.0309ZM3.92173 18.044L4.13089 17.8289L4.12969 17.8278L3.92173 18.044ZM3.92946 18.0515L4.14227 17.84L4.13861 17.8365L3.92946 18.0515ZM3.93696 18.0591L4.15031 17.8482L4.14974 17.8476L3.93696 18.0591ZM3.95592 18.0776L3.75355 18.2991L3.75383 18.2993L3.95592 18.0776ZM3.97285 18.0921L4.16481 17.8615L4.16401 17.8609L3.97285 18.0921ZM3.98075 18.0987L4.17687 17.8716L4.17271 17.8681L3.98075 18.0987ZM3.98882 18.1056L4.18676 17.8802L4.18491 17.8786L3.98882 18.1056ZM3.98887 18.1057L3.79093 18.3311L3.79201 18.332L3.98887 18.1057ZM4.00696 18.1209L4.19261 17.8852L4.19197 17.8847L4.00696 18.1209ZM4.02388 18.1332L4.19784 17.8888L4.19668 17.888L4.02388 18.1332ZM4.03254 18.1394L4.21109 17.8983L4.2065 17.895L4.03254 18.1394ZM4.04097 18.1456L4.22018 17.9051L4.21949 17.9045L4.04097 18.1456ZM4.06137 18.1603L4.2283 17.911L4.22728 17.9103L4.06137 18.1603ZM4.08069 18.1723L4.23575 17.9155L4.2347 17.9148L4.08069 18.1723ZM4.09021 18.178L4.24949 17.9238L4.24526 17.9212L4.09021 18.178ZM4.09968 18.184L4.26008 17.9304L4.25894 17.9297L4.09968 18.184ZM4.11904 18.1957L4.26616 17.9343L4.2659 17.9341L4.11904 18.1957ZM4.14226 18.2078L4.27697 17.9397L4.2761 17.9393L4.14226 18.2078ZM4.15275 18.2131L4.29174 17.9472L4.28746 17.945L4.15275 18.2131ZM4.16285 18.2183L4.30349 17.9534L4.30182 17.9525L4.16285 18.2183ZM4.17975 18.2269L4.30669 17.9551L4.30651 17.955L4.17975 18.2269ZM4.20512 18.2377L4.31819 17.9598L4.31751 17.9596L4.20512 18.2377ZM4.21479 18.2417L4.33331 17.966L4.32787 17.9638L4.21479 18.2417ZM4.22486 18.246L4.10636 18.5216L4.10948 18.5229L4.22486 18.246ZM4.22493 18.246L4.34491 17.971L4.34032 17.9691L4.22493 18.246ZM4.24325 18.2536L4.13832 18.5347L4.13866 18.5348L4.24325 18.2536ZM4.24358 18.2537L4.139 18.5349L4.1896 18.5537H4.24358V18.2537ZM4.24362 18.2537L4.34784 17.9724L4.29741 17.9537H4.24362V18.2537ZM4.24587 18.2546L4.35133 17.9737L4.35009 17.9733L4.24587 18.2546ZM6.76162 19.1992V19.4992L6.86708 18.9183L6.76162 19.1992ZM2.77779 19.1992H2.47779V19.4992H2.77779V19.1992ZM16.5709 19.1992L16.4655 18.9183L16.5709 19.4992V19.1992ZM20.5556 19.1992V19.4992H20.8556V19.1992H20.5556ZM20.5556 4.97691H20.8556V4.67691H20.5556V4.97691ZM19.6667 4.97691V4.67691H19.3667V4.97691H19.6667ZM19.6593 17.5307L19.9569 17.5687L19.9571 17.5675L19.6593 17.5307ZM19.6581 17.5418L19.3597 17.511L19.3597 17.5111L19.6581 17.5418ZM19.6561 17.5581L19.3597 17.5118L19.3596 17.5128L19.6561 17.5581ZM19.6536 17.5714L19.36 17.5096L19.36 17.5097L19.6536 17.5714ZM19.6517 17.5808L19.9468 17.6347L19.9469 17.6343L19.6517 17.5808ZM19.6504 17.588L19.9456 17.6412L19.9457 17.6411L19.6504 17.588ZM19.6432 17.6245L19.3511 17.5561L19.351 17.5563L19.6432 17.6245ZM19.6375 17.6452L19.9277 17.7211L19.9279 17.7203L19.6375 17.6452ZM19.6358 17.6518L19.9261 17.7272L19.9262 17.7271L19.6358 17.6518ZM19.6253 17.6894L19.3392 17.5992L19.339 17.5998L19.6253 17.6894ZM19.6204 17.7032L19.9021 17.8064L19.9021 17.8062L19.6204 17.7032ZM19.6189 17.7074L19.903 17.8039L19.9033 17.8029L19.6189 17.7074ZM19.6177 17.7109L19.9018 17.8074L19.9018 17.8073L19.6177 17.7109ZM19.6028 17.7523L19.8809 17.8649L19.8811 17.8643L19.6028 17.7523ZM19.5958 17.7681L19.8683 17.8937L19.8683 17.8936L19.5958 17.7681ZM19.5915 17.7775L19.317 17.6566L19.3166 17.6574L19.5915 17.7775ZM19.5877 17.7864L19.3122 17.6678L19.3121 17.6678L19.5877 17.7864ZM19.5757 17.8132L19.3062 17.6813L19.306 17.6816L19.5757 17.8132ZM19.5622 17.8382L19.2974 17.6972L19.2973 17.6973L19.5622 17.8382ZM19.5502 17.861L19.2864 17.718L19.2864 17.7181L19.5502 17.861ZM19.5442 17.8717L19.8022 18.0247L19.8028 18.0237L19.5442 17.8717ZM19.5307 17.8927L19.7847 18.0524L19.7848 18.0522L19.5307 17.8927ZM19.5252 17.9016L19.2703 17.7434L19.2703 17.7434L19.5252 17.9016ZM19.5084 17.9276L19.2621 17.7564L19.2614 17.7574L19.5084 17.9276ZM19.5007 17.938L19.7383 18.1212L19.7383 18.1211L19.5007 17.938ZM19.4949 17.9457L19.737 18.1228L19.7376 18.122L19.4949 17.9457ZM19.4902 17.9522L19.7328 18.1286L19.7328 18.1286L19.4902 17.9522ZM19.4686 17.9807L19.2355 17.792L19.2348 17.7928L19.4686 17.9807ZM19.4612 17.9894L19.6846 18.1896L19.6846 18.1895L19.4612 17.9894ZM19.4541 17.9974L19.6824 18.192V18.192L19.4541 17.9974ZM19.4498 18.0024L19.6785 18.1966L19.6786 18.1965L19.4498 18.0024ZM19.4249 18.0308L19.6427 18.2371L19.6437 18.236L19.4249 18.0308ZM19.4118 18.0437L19.6197 18.2601L19.6197 18.26L19.4118 18.0437ZM19.4039 18.0514L19.1924 17.8387L19.1923 17.8388L19.4039 18.0514ZM19.3965 18.0589L19.6097 18.27L19.6097 18.2699L19.3965 18.0589ZM19.3775 18.0775L19.5795 18.2993L19.5804 18.2985L19.3775 18.0775ZM19.3544 18.097L19.1597 17.8688L19.1592 17.8692L19.3544 18.097ZM19.3383 18.1109L19.5333 18.339L19.5333 18.339L19.3383 18.1109ZM19.3265 18.1207L19.5118 18.3566L19.5121 18.3564L19.3265 18.1207ZM19.303 18.1377L19.1257 17.8957L19.1252 17.8961L19.303 18.1377ZM19.2721 18.1602L19.439 18.4095L19.4392 18.4094L19.2721 18.1602ZM19.2432 18.1779L19.4003 18.4335L19.4004 18.4335L19.2432 18.1779ZM19.2319 18.1851L19.0717 17.9314L19.0716 17.9315L19.2319 18.1851ZM19.2144 18.1957L19.0676 17.934L19.0667 17.9345L19.2144 18.1957ZM19.1924 18.2071L19.3261 18.4757L19.3261 18.4757L19.1924 18.2071ZM19.1823 18.2122L19.3188 18.4793L19.3189 18.4793L19.1823 18.2122ZM19.1722 18.2174L19.3128 18.4825L19.3129 18.4824L19.1722 18.2174ZM19.1537 18.2269L19.027 17.9549L19.027 17.9549L19.1537 18.2269ZM19.1305 18.2367L19.2431 18.5148H19.2431L19.1305 18.2367ZM19.1197 18.2412L19.0041 17.9643L19.0037 17.9645L19.1197 18.2412ZM19.1097 18.2455L18.9895 17.9706L18.9895 17.9706L19.1097 18.2455ZM19.0903 18.2535L19.1947 18.5348L19.1952 18.5346L19.0903 18.2535ZM19.0899 18.2537V18.5537H19.1438L19.1944 18.5349L19.0899 18.2537ZM19.0899 18.2537V17.9537H19.0354L18.9844 17.9728L19.0899 18.2537ZM19.0865 18.2549L19.192 18.5358L19.192 18.5358L19.0865 18.2549ZM19.6667 3.49916H21.4445V2.89916H19.6667V3.49916ZM19.3667 1.91203V3.19916H19.9667V1.91203H19.3667ZM18.571 1.36064C18.956 1.21627 19.3667 1.50087 19.3667 1.91203H19.9667C19.9667 1.08194 19.1376 0.507378 18.3603 0.79884L18.571 1.36064ZM11.772 3.91026L18.571 1.36064L18.3603 0.79884L11.5613 3.34847L11.772 3.91026ZM4.76233 1.36064L11.5613 3.91026L11.772 3.34847L4.973 0.79884L4.76233 1.36064ZM3.96667 1.91203C3.96667 1.50087 4.37733 1.21627 4.76233 1.36064L4.973 0.79884C4.19575 0.507378 3.36667 1.08194 3.36667 1.91203H3.96667ZM3.96667 3.21924V1.91203H3.36667V3.21924H3.96667ZM1.89556 3.49918L3.66327 3.51922L3.67007 2.91926L1.90236 2.89922L1.89556 3.49918ZM1.3 4.08803C1.3 3.76016 1.56774 3.49545 1.89555 3.49918L1.90237 2.89922C1.24051 2.89169 0.7 3.42615 0.7 4.08803H1.3ZM1.3 20.088V4.08803H0.7V20.088H1.3ZM1.88888 20.6769C1.56364 20.6769 1.3 20.4133 1.3 20.088H0.7C0.7 20.7446 1.23227 21.2769 1.88888 21.2769V20.6769ZM11.6358 20.6769H1.88888V21.2769H11.6358V20.6769ZM11.6449 20.677L11.6432 20.677L11.6285 21.2768L11.6302 21.2769L11.6449 20.677ZM11.6667 20.6774C11.6594 20.6774 11.6533 20.6773 11.6479 20.6771L11.6272 21.2768C11.6412 21.2773 11.6544 21.2774 11.6667 21.2774V20.6774ZM11.6855 20.6771C11.68 20.6773 11.6739 20.6774 11.6667 20.6774V21.2774C11.6789 21.2774 11.6921 21.2773 11.7061 21.2768L11.6855 20.6771ZM11.6901 20.677L11.6884 20.677L11.7032 21.2769L11.7049 21.2768L11.6901 20.677ZM21.4445 20.6769H11.6975V21.2769H21.4445V20.6769ZM22.0333 20.088C22.0333 20.4133 21.7697 20.6769 21.4445 20.6769V21.2769C22.1011 21.2769 22.6333 20.7446 22.6333 20.088H22.0333ZM22.0333 4.08803V20.088H22.6333V4.08803H22.0333ZM21.4445 3.49916C21.7697 3.49916 22.0333 3.7628 22.0333 4.08803H22.6333C22.6333 3.43143 22.1011 2.89916 21.4445 2.89916V3.49916ZM18.1889 16.8054V4.08803H17.5889V16.8054H18.1889ZM12.6609 19.0863L17.9942 17.0863L17.7835 16.5245L12.4502 18.5245L12.6609 19.0863ZM12.2555 5.1947V18.8054H12.8555V5.1947H12.2555ZM17.7835 2.9138L12.4502 4.9138L12.6609 5.4756L17.9942 3.4756L17.7835 2.9138ZM18.1889 4.08803V3.1947H17.5889V4.08803H18.1889ZM5.33912 3.4756L10.6725 5.4756L10.8831 4.9138L5.5498 2.9138L5.33912 3.4756ZM5.74446 4.11824V3.1947H5.14446V4.11824H5.74446ZM5.74446 16.8054V4.11824H5.14446V16.8054H5.74446ZM10.8831 18.5245L5.5498 16.5245L5.33912 17.0863L10.6725 19.0863L10.8831 18.5245ZM10.4778 5.1947V18.8054H11.0778V5.1947H10.4778ZM3.67007 4.69713L2.78119 4.68705L2.77439 5.28701L3.66326 5.29709L3.67007 4.69713ZM3.96667 17.4214V4.99711H3.36667V17.4214H3.96667ZM3.97177 17.4938C3.96835 17.4663 3.96667 17.4426 3.96667 17.4214H3.36667C3.36667 17.4739 3.37081 17.5231 3.37632 17.5676L3.97177 17.4938ZM3.97339 17.5083L3.97224 17.4979L3.37584 17.5635L3.377 17.574L3.97339 17.5083ZM3.97367 17.5119C3.97401 17.5141 3.97414 17.5153 3.97409 17.5149C3.97402 17.5143 3.97392 17.5134 3.97359 17.5102L3.37679 17.5721C3.37724 17.5765 3.37857 17.5899 3.38083 17.6044L3.97367 17.5119ZM3.97345 17.51C3.97321 17.5089 3.97307 17.5082 3.97296 17.5077C3.97285 17.5072 3.97282 17.507 3.97284 17.5071C3.97286 17.5072 3.97316 17.5087 3.97355 17.5112L3.38095 17.6051C3.38297 17.6179 3.3854 17.6293 3.38607 17.6324L3.97345 17.51ZM3.97588 17.5222L3.97397 17.5126L3.38554 17.6299L3.38745 17.6395L3.97588 17.5222ZM3.97833 17.5355L3.9769 17.5275L3.38644 17.6341L3.38787 17.642L3.97833 17.5355ZM3.98212 17.5554C3.98155 17.553 3.98078 17.5491 3.97838 17.5357L3.38782 17.6418C3.38973 17.6524 3.39327 17.6726 3.39829 17.6937L3.98212 17.5554ZM3.9838 17.5612C3.98276 17.5576 3.98234 17.5561 3.98203 17.555C3.98178 17.5541 3.98196 17.5547 3.98233 17.5563L3.39809 17.6929C3.40173 17.7085 3.40587 17.7225 3.40744 17.728L3.9838 17.5612ZM3.98721 17.5732L3.98421 17.5626L3.40704 17.7265L3.41004 17.7371L3.98721 17.5732ZM3.99145 17.589L3.98854 17.578L3.40871 17.7323L3.41163 17.7433L3.99145 17.589ZM3.99419 17.5993C3.99442 17.6 3.99435 17.5998 3.9939 17.5982C3.99339 17.5963 3.99283 17.5942 3.99173 17.59L3.41136 17.7422C3.41309 17.7488 3.41693 17.7637 3.42189 17.7795L3.99419 17.5993ZM3.99357 17.5974C3.99336 17.5968 3.99366 17.5976 3.99419 17.5993L3.42189 17.7795C3.4243 17.7871 3.42663 17.7938 3.42851 17.7991L3.99357 17.5974ZM3.99561 17.6029C3.9943 17.5993 3.99386 17.5982 3.99356 17.5973L3.42853 17.7992C3.4305 17.8047 3.43242 17.8098 3.43348 17.8126L3.99561 17.6029ZM4.00009 17.6151L3.99621 17.6045L3.43287 17.811L3.43674 17.8216L4.00009 17.6151ZM4.00541 17.6302L4.00177 17.6198L3.43507 17.8169L3.4387 17.8273L4.00541 17.6302ZM4.00888 17.6402C4.00921 17.6411 4.00916 17.641 4.00858 17.6394C4.00793 17.6376 4.0072 17.6354 4.00573 17.6312L3.43838 17.8264C3.44068 17.8331 3.44586 17.8484 3.45237 17.8645L4.00888 17.6402ZM4.00996 17.6424C4.00861 17.6395 4.00822 17.6386 4.00798 17.6381C4.00782 17.6377 4.00834 17.6389 4.00917 17.641L3.45208 17.8638C3.45765 17.8777 3.46345 17.8901 3.46534 17.8942L4.00996 17.6424ZM4.01494 17.6533L4.01072 17.644L3.46459 17.8925L3.46881 17.9018L4.01494 17.6533ZM4.02107 17.6674L4.0172 17.6584L3.46655 17.8967L3.47042 17.9057L4.02107 17.6674ZM4.01739 17.6592L4.01738 17.6592L3.47411 17.9138L3.47412 17.9139L4.01739 17.6592ZM4.02722 17.6813C4.02667 17.6802 4.02563 17.678 4.02129 17.6679L3.47022 17.9052C3.4736 17.913 3.48027 17.9287 3.48828 17.945L4.02722 17.6813ZM4.031 17.6881C4.02902 17.6846 4.02803 17.6828 4.0272 17.6812C4.02645 17.6798 4.02641 17.6797 4.02673 17.6804L3.48877 17.946C3.49571 17.9601 3.50279 17.9728 3.50589 17.9784L4.031 17.6881ZM4.0334 17.6926L4.03338 17.6925L3.50351 17.974L3.50354 17.9741L4.0334 17.6926ZM4.03716 17.6994L4.03158 17.6892L3.50536 17.9774L3.51093 17.9876L4.03716 17.6994ZM4.04446 17.7131L4.03918 17.7031L3.50891 17.9839L3.51419 17.9938L4.04446 17.7131ZM4.04312 17.7106L4.04311 17.7106L3.51554 17.9964L3.51555 17.9964L4.04312 17.7106ZM4.04782 17.7196C4.04854 17.7208 4.04876 17.7212 4.04825 17.7203C4.04764 17.7192 4.0469 17.7178 4.04516 17.7144L3.51352 17.9926C3.51614 17.9976 3.52276 18.0104 3.53068 18.0238L4.04782 17.7196ZM4.05059 17.7237C4.04861 17.7207 4.04783 17.7195 4.04722 17.7186C4.04673 17.7178 4.04709 17.7183 4.04789 17.7197L3.53061 18.0237C3.53838 18.0369 3.54616 18.0487 3.54911 18.0531L4.05059 17.7237ZM4.05725 17.734L4.05139 17.7249L3.54831 18.0519L3.55417 18.0609L4.05725 17.734ZM4.06599 17.7478L4.05992 17.7382L3.55149 18.0567L3.55755 18.0664L4.06599 17.7478ZM4.07092 17.756L4.0709 17.756L3.55264 18.0583L3.55266 18.0583L4.07092 17.756ZM4.07188 17.7572C4.07222 17.7577 4.07205 17.7575 4.0711 17.756C4.07004 17.7543 4.06883 17.7524 4.06654 17.7487L3.55704 18.0656C3.56072 18.0715 3.56875 18.0845 3.57812 18.0981L4.07188 17.7572ZM4.07232 17.7576L4.07166 17.7569L3.57834 18.0984C3.58641 18.1101 3.59435 18.1203 3.59685 18.1235L4.07232 17.7576ZM4.08147 17.7696C4.07767 17.7645 4.07404 17.7598 4.07235 17.7576L3.59682 18.1235C3.59788 18.1249 3.59845 18.1256 3.59896 18.1263C3.59942 18.1269 3.59953 18.127 3.59944 18.1269L4.08147 17.7696ZM4.08835 17.779L4.08258 17.7711L3.59834 18.1254L3.60412 18.1333L4.08835 17.779ZM4.09831 17.7924C4.09721 17.7911 4.09543 17.7887 4.08865 17.7794L3.60382 18.1329C3.60916 18.1402 3.61946 18.1545 3.63127 18.1691L4.09831 17.7924ZM4.09943 17.7935C4.09733 17.7912 4.0967 17.7905 4.09629 17.79C4.09602 17.7897 4.09679 17.7906 4.09813 17.7922L3.63145 18.1693C3.64058 18.1806 3.64949 18.1905 3.65246 18.1938L4.09943 17.7935ZM4.10714 17.8022L4.10059 17.7948L3.6513 18.1925L3.65786 18.1999L4.10714 17.8022ZM4.11683 17.8135L4.11074 17.8064L3.65426 18.1958L3.66034 18.2029L4.11683 17.8135ZM4.11906 17.8162L4.11905 17.8161L3.65812 18.2003L3.65813 18.2003L4.11906 17.8162ZM4.12714 17.8254C4.12621 17.8245 4.1245 17.8225 4.11719 17.8139L3.66 18.2025C3.6657 18.2092 3.677 18.2226 3.68986 18.2363L4.12714 17.8254ZM4.12969 17.8278C4.12722 17.8254 4.12632 17.8245 4.12564 17.8239C4.12511 17.8234 4.1257 17.8239 4.12691 17.8252L3.69009 18.2365C3.70029 18.2474 3.71019 18.2568 3.71378 18.2603L4.12969 17.8278ZM4.13861 17.8365L4.13089 17.829L3.71258 18.2591L3.7203 18.2666L4.13861 17.8365ZM4.14974 17.8476L4.14224 17.84L3.71668 18.263L3.72418 18.2706L4.14974 17.8476ZM4.15829 17.8561C4.15867 17.8565 4.15836 17.8562 4.15695 17.8548C4.1554 17.8533 4.15363 17.8515 4.15031 17.8482L3.72361 18.27C3.72896 18.2754 3.74046 18.2871 3.75355 18.2991L4.15829 17.8561ZM4.16401 17.8609C4.16091 17.8583 4.15944 17.8571 4.15822 17.856C4.15714 17.8551 4.15724 17.8552 4.15801 17.8559L3.75383 18.2993C3.76555 18.31 3.7769 18.3193 3.78168 18.3233L4.16401 17.8609ZM4.17271 17.8681L4.16481 17.8615L3.78089 18.3226L3.78879 18.3292L4.17271 17.8681ZM4.18491 17.8786L4.17684 17.8716L3.78466 18.3257L3.79272 18.3327L4.18491 17.8786ZM4.18681 17.8802L4.18676 17.8802L3.79087 18.3311L3.79093 18.3311L4.18681 17.8802ZM4.19197 17.8847C4.19279 17.8853 4.19286 17.8854 4.19174 17.8845C4.19045 17.8834 4.18893 17.8821 4.18574 17.8793L3.79201 18.332C3.79701 18.3364 3.80869 18.3466 3.82195 18.357L4.19197 17.8847ZM4.19668 17.888C4.19354 17.8858 4.19232 17.8849 4.19137 17.8842C4.1906 17.8837 4.19122 17.8841 4.19261 17.8852L3.8213 18.3565C3.83414 18.3666 3.84649 18.3752 3.85109 18.3785L4.19668 17.888ZM4.2065 17.895L4.19784 17.8888L3.84993 18.3777L3.85859 18.3838L4.2065 17.895ZM4.21949 17.9045L4.21106 17.8983L3.85402 18.3805L3.86245 18.3867L4.21949 17.9045ZM4.22728 17.9103C4.22821 17.9109 4.22828 17.911 4.22701 17.9101C4.22554 17.909 4.22382 17.9078 4.22018 17.9051L3.86176 18.3862C3.86736 18.3904 3.88056 18.4003 3.89547 18.4102L4.22728 17.9103ZM4.2347 17.9148C4.23117 17.9127 4.22955 17.9117 4.22821 17.9109C4.22705 17.9102 4.22728 17.9103 4.2283 17.911L3.89445 18.4096C3.90814 18.4187 3.92127 18.4265 3.92668 18.4297L4.2347 17.9148ZM4.24526 17.9212L4.23574 17.9155L3.92564 18.4291L3.93516 18.4349L4.24526 17.9212ZM4.25894 17.9297L4.24947 17.9238L3.93095 18.4323L3.94042 18.4382L4.25894 17.9297ZM4.2659 17.9341C4.26705 17.9348 4.26734 17.935 4.26629 17.9343C4.26504 17.9336 4.26352 17.9326 4.26007 17.9304L3.93929 18.4375C3.94462 18.4409 3.95758 18.4491 3.97219 18.4573L4.2659 17.9341ZM4.2761 17.9393C4.27191 17.9372 4.26967 17.9361 4.26773 17.9351C4.26597 17.9342 4.26565 17.934 4.26616 17.9343L3.97192 18.4572C3.98714 18.4658 4.00175 18.473 4.00843 18.4763L4.2761 17.9393ZM4.28746 17.945L4.27697 17.9397L4.00755 18.4759L4.01804 18.4811L4.28746 17.945ZM4.30182 17.9525L4.29173 17.9472L4.01377 18.4789L4.02387 18.4842L4.30182 17.9525ZM4.30651 17.955C4.30818 17.9558 4.30898 17.9562 4.30839 17.9559C4.30761 17.9555 4.30653 17.955 4.30349 17.9534L4.02221 18.4833C4.02673 18.4857 4.03907 18.4924 4.05299 18.4989L4.30651 17.955ZM4.31751 17.9596C4.31292 17.9577 4.31049 17.9567 4.30837 17.9558C4.30644 17.955 4.3061 17.9549 4.30669 17.9551L4.05281 18.4988C4.0695 18.5066 4.08548 18.5129 4.09272 18.5159L4.31751 17.9596ZM4.32787 17.9638L4.31819 17.9598L4.09204 18.5156L4.10172 18.5195L4.32787 17.9638ZM4.34336 17.9704L4.33328 17.966L4.0963 18.5173L4.10637 18.5216L4.34336 17.9704ZM4.34032 17.9691L4.34025 17.9691L4.10948 18.5229L4.10955 18.5229L4.34032 17.9691ZM4.34818 17.9726C4.35 17.9732 4.35088 17.9736 4.35025 17.9734C4.34939 17.973 4.34824 17.9725 4.34489 17.971L4.10497 18.521C4.10978 18.5231 4.12323 18.529 4.13832 18.5347L4.34818 17.9726ZM4.34817 17.9726L4.34784 17.9724L4.13866 18.5348L4.139 18.5349L4.34817 17.9726ZM4.24362 17.9537H4.24358V18.5537H4.24362V17.9537ZM4.35009 17.9733L4.34784 17.9724L4.13941 18.5351L4.14166 18.5359L4.35009 17.9733ZM6.86708 18.9183L4.35133 17.9737L4.14042 18.5354L6.65617 19.4801L6.86708 18.9183ZM2.77779 19.4992H6.76162V18.8992H2.77779V19.4992ZM2.47779 4.98703V19.1992H3.07779V4.98703H2.47779ZM20.5555 18.8992H16.5709V19.4992H20.5555V18.8992ZM20.5556 18.8992H20.5555V19.4992H20.5556V18.8992ZM20.2556 4.97691V19.1992H20.8556V4.97691H20.2556ZM19.6667 5.27691H20.5556V4.67691H19.6667V5.27691ZM19.9667 17.4213V4.97691H19.3667V17.4213H19.9667ZM19.9571 17.5675C19.9626 17.5231 19.9667 17.4739 19.9667 17.4213H19.3667C19.3667 17.4426 19.365 17.4662 19.3616 17.4938L19.9571 17.5675ZM19.9565 17.5726C19.957 17.5683 19.957 17.5682 19.9569 17.5687L19.3618 17.4926C19.3607 17.5005 19.36 17.5079 19.3597 17.511L19.9565 17.5726ZM19.9525 17.6044C19.9548 17.59 19.9561 17.5768 19.9565 17.5726L19.3597 17.5111L19.3597 17.5118L19.9525 17.6044ZM19.9472 17.6332C19.9478 17.63 19.9505 17.6175 19.9527 17.6034L19.3596 17.5128C19.36 17.5097 19.3604 17.5076 19.3605 17.5072C19.3606 17.507 19.3605 17.5071 19.36 17.5096L19.9472 17.6332ZM19.9469 17.6343C19.9466 17.6359 19.9464 17.6368 19.9472 17.6331L19.36 17.5097C19.3595 17.5122 19.3579 17.5194 19.3565 17.5273L19.9469 17.6343ZM19.9457 17.6411C19.9461 17.6387 19.9465 17.6366 19.9468 17.6347L19.3566 17.5269C19.3561 17.5297 19.3556 17.5325 19.3552 17.5348L19.9457 17.6411ZM19.9353 17.6929C19.9402 17.672 19.9437 17.6521 19.9456 17.6412L19.3552 17.5347C19.3527 17.5483 19.3518 17.5529 19.3511 17.5561L19.9353 17.6929ZM19.9279 17.7203C19.9275 17.7218 19.9273 17.7226 19.9274 17.7222C19.9277 17.7212 19.9278 17.7211 19.9286 17.7182C19.9297 17.7144 19.9326 17.7045 19.9353 17.6928L19.351 17.5563C19.3521 17.5516 19.3531 17.5485 19.3522 17.5515C19.3521 17.5521 19.3511 17.5553 19.3504 17.5578C19.3495 17.5608 19.3484 17.565 19.3471 17.57L19.9279 17.7203ZM19.9262 17.7271C19.9267 17.725 19.9272 17.723 19.9277 17.7211L19.3473 17.5692C19.3466 17.5718 19.346 17.5742 19.3454 17.5766L19.9262 17.7271ZM19.9115 17.7796C19.9181 17.7586 19.9232 17.7386 19.9261 17.7272L19.3454 17.5765C19.3418 17.5903 19.3404 17.5954 19.3392 17.5992L19.9115 17.7796ZM19.9021 17.8062C19.9021 17.8063 19.9022 17.8061 19.9026 17.8049C19.9029 17.8041 19.9037 17.8021 19.9045 17.8C19.906 17.7958 19.9088 17.7882 19.9117 17.7789L19.339 17.5998L19.3386 17.6001L19.9021 17.8062ZM19.9033 17.8029C19.9026 17.805 19.9021 17.8063 19.9021 17.8064L19.3387 17.5999C19.3376 17.6028 19.3361 17.6071 19.3345 17.612L19.9033 17.8029ZM19.9018 17.8073L19.903 17.8039L19.3348 17.611L19.3336 17.6145L19.9018 17.8073ZM19.8811 17.8643C19.8902 17.8417 19.8975 17.8199 19.9018 17.8074L19.3336 17.6145C19.3284 17.6298 19.3263 17.6358 19.3245 17.6403L19.8811 17.8643ZM19.8683 17.8936C19.8702 17.8894 19.8756 17.8779 19.8809 17.8649L19.3247 17.6397C19.3254 17.6382 19.3257 17.6374 19.3254 17.638C19.3251 17.6388 19.3246 17.6398 19.3233 17.6427L19.8683 17.8936ZM19.8661 17.8985C19.8663 17.898 19.8666 17.8972 19.8683 17.8937L19.3233 17.6426C19.3221 17.6453 19.3196 17.6507 19.317 17.6566L19.8661 17.8985ZM19.8632 17.9051C19.8646 17.902 19.8655 17.8998 19.8664 17.8976L19.3166 17.6574C19.315 17.6612 19.3134 17.6649 19.3122 17.6678L19.8632 17.9051ZM19.8451 17.945C19.8532 17.9286 19.8598 17.913 19.8632 17.9051L19.3121 17.6678C19.3078 17.6779 19.3068 17.6801 19.3062 17.6813L19.8451 17.945ZM19.827 17.9792C19.8271 17.9791 19.8274 17.9786 19.8282 17.977C19.8286 17.9763 19.8291 17.9755 19.8297 17.9744C19.8302 17.9733 19.831 17.972 19.8317 17.9706C19.8346 17.9654 19.8398 17.9559 19.8453 17.9447L19.306 17.6816C19.3073 17.679 19.308 17.6778 19.3063 17.6809C19.306 17.6815 19.3056 17.6823 19.305 17.6833C19.3045 17.6843 19.3037 17.6856 19.303 17.6869C19.3016 17.6895 19.2996 17.6931 19.2974 17.6972L19.827 17.9792ZM19.8139 18.0039C19.8171 17.998 19.82 17.9925 19.8221 17.9886C19.8245 17.984 19.8257 17.9816 19.8271 17.9791L19.2973 17.6973C19.2887 17.7136 19.291 17.7096 19.2864 17.718L19.8139 18.0039ZM19.8028 18.0237C19.8071 18.0164 19.8109 18.0096 19.814 18.0038L19.2864 17.7181C19.2856 17.7196 19.2854 17.72 19.2855 17.7197L19.8028 18.0237ZM19.7848 18.0522C19.7846 18.0525 19.7847 18.0524 19.7853 18.0514C19.7865 18.0497 19.7865 18.0497 19.7885 18.0466C19.7912 18.0425 19.7965 18.0344 19.8022 18.0247L19.2861 17.7187C19.2876 17.7162 19.2884 17.715 19.2865 17.7179C19.2861 17.7186 19.2856 17.7193 19.285 17.7203C19.2844 17.7212 19.2836 17.7223 19.2828 17.7236C19.2812 17.7261 19.279 17.7294 19.2766 17.7333L19.7848 18.0522ZM19.7801 18.0598C19.782 18.0567 19.7834 18.0545 19.7847 18.0524L19.2767 17.7331C19.2743 17.7369 19.272 17.7406 19.2703 17.7434L19.7801 18.0598ZM19.7548 18.0988C19.7659 18.0828 19.7754 18.0674 19.7801 18.0597L19.2703 17.7434C19.2674 17.7481 19.2657 17.7508 19.2641 17.7533C19.2634 17.7544 19.2629 17.7551 19.2626 17.7557C19.2622 17.7562 19.262 17.7564 19.2621 17.7564L19.7548 18.0988ZM19.7383 18.1211C19.7401 18.1189 19.7477 18.1091 19.7555 18.0978L19.2614 17.7574C19.2631 17.7549 19.2644 17.7532 19.2646 17.7529C19.2647 17.7528 19.2646 17.7529 19.263 17.755L19.7383 18.1211ZM19.7376 18.122C19.7366 18.1234 19.7359 18.1243 19.7383 18.1212L19.263 17.7549C19.2616 17.7569 19.257 17.7627 19.2522 17.7693L19.7376 18.122ZM19.7328 18.1286C19.7344 18.1264 19.7357 18.1246 19.737 18.1228L19.2528 17.7685C19.2509 17.7711 19.2491 17.7736 19.2475 17.7758L19.7328 18.1286ZM19.7018 18.1695C19.715 18.1532 19.7265 18.1373 19.7328 18.1286L19.2476 17.7757C19.2398 17.7864 19.2373 17.7897 19.2355 17.792L19.7018 18.1695ZM19.6846 18.1895C19.6874 18.1865 19.6946 18.1784 19.7024 18.1687L19.2348 17.7928C19.2366 17.7906 19.2378 17.7891 19.2383 17.7886C19.2387 17.7881 19.2388 17.7881 19.2378 17.7892L19.6846 18.1895ZM19.6824 18.192C19.6816 18.1929 19.6813 18.1933 19.6817 18.1929C19.6825 18.192 19.6826 18.1919 19.6846 18.1896L19.2378 17.7891C19.2371 17.7899 19.2312 17.7964 19.2257 17.8028L19.6824 18.192ZM19.6786 18.1965C19.68 18.1948 19.6812 18.1934 19.6824 18.192L19.2257 17.8028C19.2241 17.8048 19.2225 17.8066 19.2211 17.8083L19.6786 18.1965ZM19.6437 18.236C19.6583 18.2205 19.6711 18.2053 19.6785 18.1966L19.2212 17.8082C19.2122 17.8187 19.2088 17.8226 19.2061 17.8255L19.6437 18.236ZM19.6197 18.26C19.6233 18.2566 19.6329 18.2475 19.6427 18.2371L19.2071 17.8245C19.2082 17.8234 19.2086 17.8229 19.2081 17.8235C19.2073 17.8242 19.2064 17.8251 19.204 17.8275L19.6197 18.26ZM19.6154 18.2642C19.6159 18.2637 19.6168 18.2629 19.6197 18.2601L19.204 17.8274C19.2016 17.8297 19.1971 17.834 19.1924 17.8387L19.6154 18.2642ZM19.6097 18.2699C19.6123 18.2673 19.614 18.2656 19.6156 18.2641L19.1923 17.8388C19.1889 17.8422 19.1857 17.8455 19.1833 17.8478L19.6097 18.2699ZM19.5804 18.2985C19.593 18.2869 19.6043 18.2754 19.6097 18.27L19.1834 17.8478C19.18 17.8511 19.1782 17.853 19.1765 17.8547C19.175 17.8562 19.1745 17.8566 19.1746 17.8565L19.5804 18.2985ZM19.5491 18.3252C19.5509 18.3238 19.5512 18.3235 19.5576 18.3182C19.5623 18.3143 19.5705 18.3075 19.5795 18.2993L19.1755 17.8557C19.1771 17.8543 19.1775 17.854 19.1745 17.8565C19.1738 17.857 19.1731 17.8576 19.1721 17.8585C19.1712 17.8592 19.17 17.8602 19.1688 17.8612C19.1664 17.8632 19.1632 17.8658 19.1597 17.8688L19.5491 18.3252ZM19.5333 18.339C19.5371 18.3357 19.5406 18.3326 19.5432 18.3304C19.5461 18.3279 19.5479 18.3263 19.5496 18.3249L19.1592 17.8692C19.1344 17.8905 19.1635 17.8658 19.1434 17.8829L19.5333 18.339ZM19.5121 18.3564C19.5204 18.3498 19.5277 18.3438 19.5333 18.339L19.1434 17.8829C19.1412 17.8848 19.1406 17.8853 19.1408 17.8851L19.5121 18.3564ZM19.4803 18.3797C19.4818 18.3786 19.4818 18.3787 19.4885 18.374C19.4934 18.3705 19.5021 18.3643 19.5118 18.3566L19.1411 17.8848C19.1432 17.8832 19.1441 17.8826 19.1412 17.8847C19.1405 17.8852 19.1398 17.8857 19.1388 17.8864C19.1378 17.8871 19.1366 17.8879 19.1354 17.8888C19.1329 17.8906 19.1295 17.893 19.1257 17.8957L19.4803 18.3797ZM19.4392 18.4094C19.457 18.3974 19.4782 18.3813 19.4808 18.3794L19.1252 17.8961C19.1218 17.8986 19.1186 17.901 19.1161 17.9029C19.1134 17.9049 19.1115 17.9063 19.1097 17.9076C19.1061 17.9103 19.105 17.911 19.105 17.911L19.4392 18.4094ZM19.4004 18.4335C19.4039 18.4313 19.4043 18.4312 19.4126 18.4261C19.4187 18.4225 19.4284 18.4166 19.439 18.4095L19.1052 17.9109C19.1065 17.91 19.1065 17.9101 19.1029 17.9123C19.1009 17.9135 19.0995 17.9143 19.0963 17.9162C19.0936 17.9179 19.09 17.92 19.0861 17.9224L19.4004 18.4335ZM19.3921 18.4387C19.397 18.4356 19.3985 18.4346 19.4003 18.4335L19.0862 17.9223C19.0803 17.9259 19.0743 17.9298 19.0717 17.9314L19.3921 18.4387ZM19.3612 18.4573C19.3747 18.4497 19.3862 18.4424 19.3922 18.4387L19.0716 17.9315C19.069 17.9331 19.0677 17.9339 19.0669 17.9344C19.0662 17.9349 19.0665 17.9346 19.0676 17.934L19.3612 18.4573ZM19.3261 18.4757C19.3323 18.4726 19.3469 18.4654 19.3621 18.4568L19.0667 17.9345C19.0676 17.934 19.0677 17.934 19.0663 17.9347C19.0647 17.9355 19.0628 17.9365 19.0588 17.9385L19.3261 18.4757ZM19.3189 18.4793C19.3205 18.4784 19.3224 18.4775 19.3261 18.4757L19.0588 17.9385C19.0557 17.9401 19.0508 17.9425 19.0456 17.9451L19.3189 18.4793ZM19.3129 18.4824C19.3165 18.4805 19.3178 18.4798 19.3188 18.4793L19.0457 17.9451C19.04 17.948 19.0347 17.9508 19.0316 17.9524L19.3129 18.4824ZM19.2804 18.4988C19.2949 18.492 19.3078 18.4851 19.3128 18.4825L19.0316 17.9524C19.0283 17.9542 19.027 17.9549 19.0259 17.9554C19.0251 17.9559 19.0256 17.9556 19.027 17.9549L19.2804 18.4988ZM19.2431 18.5148C19.2496 18.5121 19.2647 18.5061 19.2804 18.4988L19.027 17.9549C19.0278 17.9546 19.0277 17.9546 19.0261 17.9553C19.0242 17.9561 19.0221 17.957 19.0179 17.9587L19.2431 18.5148ZM19.2352 18.518C19.2371 18.5172 19.2392 18.5164 19.2431 18.5148L19.0179 17.9587C19.0145 17.96 19.0094 17.9621 19.0041 17.9643L19.2352 18.518ZM19.2298 18.5204C19.2334 18.5188 19.2347 18.5182 19.2357 18.5178L19.0037 17.9645C18.9979 17.9669 18.9926 17.9692 18.9895 17.9706L19.2298 18.5204ZM19.1952 18.5346C19.2107 18.5288 19.2246 18.5226 19.2298 18.5203L18.9895 17.9706C18.986 17.9721 18.9847 17.9727 18.9837 17.9731C18.9829 17.9734 18.9836 17.9731 18.9853 17.9725L19.1952 18.5346ZM19.1944 18.5349L19.1947 18.5348L18.9858 17.9723L18.9855 17.9724L19.1944 18.5349ZM19.0899 18.5537H19.0899V17.9537H19.0899V18.5537ZM19.192 18.5358L19.1953 18.5345L18.9844 17.9728L18.9811 17.9741L19.192 18.5358ZM16.6763 19.48L19.192 18.5358L18.9811 17.974L16.4655 18.9183L16.6763 19.48Z" fill="#F6F6F6"/>
</svg>
