<svg
          width="15"
          height="16"
          viewBox="0 0 12 13"
          fill="none"
          xmlns="http://www.w3.org/2000/svg"
        >
          <path fill='#4E9CDF' d="M8.625 1.25C8.625 1.25 8.625 1.25 8.60156 1.25C8.15625 1.25 7.47656 1.46094 7.10156 1.67188C6.58594 0.992188 5.60156 0.5 4.47656 0.5C2.95312 0.5 1.71094 1.34375 1.5 2.42188C1.45312 2.60938 1.61719 2.75 1.82812 2.75H2.625L3 2L3.44531 2.89062C3.28125 3.125 3.16406 3.35938 3.09375 3.61719C2.90625 4.25 2.97656 5 3.60938 5.70312C3.63281 5.72656 3.70312 5.75 3.75 5.75C3.79688 5.75 3.84375 5.72656 3.86719 5.70312L5.4375 4.10938C5.29688 5.89062 4.6875 7.69531 4.24219 8.77344H3.75H3.72656C2.08594 8.77344 0.726562 10.1094 0.726562 11.7734C0.726562 11.7734 0.726562 11.7969 0.75 11.8203C0.75 12.1953 1.10156 12.5 1.5 12.5H9C9.375 12.5 9.72656 12.1953 9.75 11.8203C9.77344 10.3906 8.78906 9.19531 7.47656 8.86719C7.96875 6.3125 7.71094 3.78125 7.66406 3.5H9.375L9.75 2.75L10.125 3.5H10.9453C10.9453 3.52344 10.9453 3.52344 10.9453 3.52344C11.1094 3.52344 11.2266 3.38281 11.2266 3.21875C11.2266 3.21875 11.2266 3.19531 11.2266 3.17188C11.0391 2.09375 9.96094 1.25 8.625 1.25ZM6.58594 4.03906C6.65625 4.88281 6.72656 6.85156 6.32812 8.75H5.46094C5.90625 7.55469 6.46875 5.79688 6.58594 4.03906ZM8.57812 11.375H1.89844C2.0625 10.5547 2.88281 9.89844 3.75 9.875H6.75C7.59375 9.89844 8.41406 10.5547 8.57812 11.375Z" />
        </svg>