<svg width="18" height="14" viewBox="0 0 18 14" fill="none" xmlns="http://www.w3.org/2000/svg">
<path d="M16.5 0.25H1.50001C0.67159 0.25 0 0.921555 0 1.75001V2.12502C0 2.33209 0.167906 2.5 0.375012 2.5H17.625C17.8321 2.5 18 2.33209 18 2.12499V1.74998C18 0.921555 17.3284 0.25 16.5 0.25Z" fill="#373737"/>
<path d="M17.625 4.75H0.375012C0.167906 4.75 0 4.91787 0 5.12501V12.25C0 13.0784 0.67159 13.75 1.50001 13.75H16.5C17.3284 13.75 18 13.0784 18 12.25V5.12501C18 4.91787 17.8321 4.75 17.625 4.75ZM13.5 11.5C13.103 11.5 12.7192 11.3942 12.375 11.192C12.0308 11.3942 11.647 11.5 11.25 11.5C10.0093 11.5 9 10.4907 9 9.25C9 8.00927 10.0093 7 11.25 7C11.647 7 12.0308 7.10582 12.375 7.30797C12.7192 7.10582 13.103 7 13.5 7C14.7407 7 15.75 8.00927 15.75 9.25C15.75 10.4907 14.7407 11.5 13.5 11.5Z" fill="#373737"/>
</svg>
