<svg width="16" height="13" viewBox="0 0 16 13" fill="none" xmlns="http://www.w3.org/2000/svg">
<path d="M5.75 7.25C7.60156 7.25 9.125 5.75 9.125 3.875C9.125 2.02344 7.60156 0.5 5.75 0.5C3.875 0.5 2.375 2.02344 2.375 3.875C2.375 5.75 3.875 7.25 5.75 7.25ZM5.75 1.625C6.96875 1.625 8 2.65625 8 3.875C8 5.11719 6.96875 6.125 5.75 6.125C4.50781 6.125 3.5 5.11719 3.5 3.875C3.5 2.65625 4.50781 1.625 5.75 1.625ZM1.625 11.375V10.7891C1.625 9.66406 2.51562 8.75 3.64062 8.75C3.99219 8.75 4.53125 9.125 5.75 9.125C6.75781 9.125 7.39062 8.84375 7.625 8.79688C7.67188 8.39844 7.74219 8 7.88281 7.64844C7.13281 7.625 6.875 8 5.75 8C4.625 8 4.32031 7.625 3.64062 7.625C1.90625 7.625 0.5 9.05469 0.5 10.7891V11.375C0.5 12.0078 0.992188 12.5 1.625 12.5H9.14844C8.77344 12.1953 8.46875 11.8203 8.21094 11.375H1.625ZM12.125 5.75C10.25 5.75 8.75 7.27344 8.75 9.125C8.75 11 10.25 12.5 12.125 12.5C13.9766 12.5 15.5 11 15.5 9.125C15.5 7.27344 13.9766 5.75 12.125 5.75ZM13.625 9.28906C13.625 9.40625 13.5078 9.5 13.3906 9.5H11.9609C11.8438 9.5 11.75 9.40625 11.75 9.28906V7.48438C11.75 7.36719 11.8438 7.25 11.9609 7.25H12.2656C12.3828 7.25 12.5 7.36719 12.5 7.48438V8.75H13.3906C13.5078 8.75 13.625 8.86719 13.625 8.98438V9.28906Z" fill="#27AE60"/>
</svg>

