<svg width="50" height="47" viewBox="0 0 50 47" fill="none" xmlns="http://www.w3.org/2000/svg">
<path d="M5.16667 0C3.79638 0 2.48222 0.544343 1.51328 1.51328C0.544343 2.48222 0 3.79638 0 5.16667V41.3333C0 42.7036 0.544343 44.0178 1.51328 44.9867C2.48222 45.9557 3.79638 46.5 5.16667 46.5H41.3333C42.7036 46.5 44.0178 45.9557 44.9867 44.9867C45.9557 44.0178 46.5 42.7036 46.5 41.3333V35.4433C47.2809 34.9925 47.9302 34.3452 48.3834 33.5657C48.8366 32.7862 49.0779 31.9017 49.0833 31V15.5C49.0779 14.5983 48.8366 13.7138 48.3834 12.9343C47.9302 12.1548 47.2809 11.5075 46.5 11.0567V5.16667C46.5 3.79638 45.9557 2.48222 44.9867 1.51328C44.0178 0.544343 42.7036 0 41.3333 0H5.16667ZM5.16667 5.16667H41.3333V10.3333H25.8333C24.463 10.3333 23.1489 10.8777 22.1799 11.8466C21.211 12.8156 20.6667 14.1297 20.6667 15.5V31C20.6667 32.3703 21.211 33.6844 22.1799 34.6534C23.1489 35.6223 24.463 36.1667 25.8333 36.1667H41.3333V41.3333H5.16667V5.16667ZM25.8333 15.5H43.9167V31H25.8333V15.5ZM33.5833 19.375C32.5556 19.375 31.57 19.7833 30.8433 20.51C30.1166 21.2367 29.7083 22.2223 29.7083 23.25C29.7083 24.2777 30.1166 25.2633 30.8433 25.99C31.57 26.7167 32.5556 27.125 33.5833 27.125C34.611 27.125 35.5967 26.7167 36.3234 25.99C37.0501 25.2633 37.4583 24.2777 37.4583 23.25C37.4583 22.2223 37.0501 21.2367 36.3234 20.51C35.5967 19.7833 34.611 19.375 33.5833 19.375Z" fill="#2F80ED"/>
</svg>
