<svg width="32" height="38" viewBox="0 0 32 38" fill="none" xmlns="http://www.w3.org/2000/svg">
<path d="M20.4139 9.86587C21.2754 9.86587 21.9764 9.02817 21.9764 7.9985C21.9764 6.96882 21.2754 6.13104 20.4139 6.13104C19.5523 6.13104 18.8514 6.96882 18.8514 7.9985C18.8514 8.41903 18.9684 8.80744 19.1655 9.11997L16.5982 13.4075C16.445 13.3474 16.2816 13.3144 16.1117 13.3144C15.7011 13.3144 15.3273 13.5049 15.0481 13.8155L13.3369 12.6551C13.3598 12.5284 13.372 12.3971 13.372 12.2624C13.372 11.2327 12.6711 10.395 11.8095 10.395C10.9479 10.395 10.247 11.2327 10.247 12.2624C10.247 12.3971 10.2593 12.5284 10.2821 12.6551L8.57089 13.8155C8.29176 13.5049 7.91789 13.3145 7.50732 13.3145C6.64576 13.3145 5.94482 14.1523 5.94482 15.1819C5.94482 16.2116 6.64576 17.0494 7.50732 17.0494C8.36889 17.0494 9.06982 16.2116 9.06982 15.1819C9.06982 15.0472 9.05757 14.9159 9.03476 14.7893L10.7459 13.6288C11.0251 13.9394 11.3989 14.1299 11.8095 14.1299C12.2201 14.1299 12.5939 13.9394 12.8731 13.6289L14.5843 14.7893C14.5614 14.916 14.5492 15.0473 14.5492 15.182C14.5492 16.2117 15.2501 17.0495 16.1117 17.0495C16.9733 17.0495 17.6743 16.2117 17.6743 15.182C17.6743 14.7614 17.5572 14.3729 17.3601 14.0604L19.9274 9.7728C20.0805 9.83286 20.244 9.86587 20.4139 9.86587ZM20.4139 7.25147C20.7585 7.25147 21.0389 7.58655 21.0389 7.9985C21.0389 8.41036 20.7585 8.74545 20.4139 8.74545C20.0693 8.74545 19.7889 8.41036 19.7889 7.9985C19.7888 7.58655 20.0692 7.25147 20.4139 7.25147ZM7.50714 15.9288C7.16251 15.9288 6.88214 15.5937 6.88214 15.1818C6.88214 14.7698 7.16251 14.4348 7.50714 14.4348C7.85176 14.4348 8.13214 14.7698 8.13214 15.1818C8.13214 15.5937 7.85176 15.9288 7.50714 15.9288ZM11.8094 13.0093C11.4648 13.0093 11.1844 12.6743 11.1844 12.2623C11.1844 11.8504 11.4648 11.5154 11.8094 11.5154C12.154 11.5154 12.4344 11.8504 12.4344 12.2623C12.4344 12.6743 12.154 13.0093 11.8094 13.0093ZM16.1116 15.9288C15.767 15.9288 15.4866 15.5937 15.4866 15.1818C15.4866 14.7698 15.767 14.4348 16.1116 14.4348C16.4563 14.4348 16.7367 14.7698 16.7367 15.1818C16.7367 15.5937 16.4563 15.9288 16.1116 15.9288Z" fill="#F9F9F9"/>
<path d="M26.1747 28.0843H22.8944H5.02675H1.32594C1.11175 28.0843 0.9375 27.8761 0.9375 27.6201V4.508C0.9375 4.25202 1.11175 4.04377 1.32594 4.04377H3.53569C3.79456 4.04377 4.00444 3.79302 4.00444 3.48355C4.00444 3.17409 3.79456 2.92334 3.53569 2.92334H1.32594C0.594813 2.92334 0 3.63421 0 4.508V27.6201C0 28.4939 0.594813 29.2047 1.32594 29.2047H4.558V30.4377C4.558 31.14 5.03613 31.7114 5.62381 31.7114H10.3159L8.10719 36.8653C7.98919 37.1407 8.08025 37.4782 8.31069 37.6193C8.37906 37.6612 8.45206 37.681 8.524 37.681C8.69431 37.681 8.85863 37.5697 8.94156 37.376L11.3693 31.7114H16.5519L18.9796 37.376C19.0626 37.5697 19.2268 37.681 19.3971 37.681C19.4691 37.681 19.5421 37.6611 19.6104 37.6193C19.8409 37.4782 19.932 37.1407 19.8139 36.8653L17.6052 31.7114H22.2973C22.885 31.7114 23.3631 31.1401 23.3631 30.4377V29.2047H26.1747C26.4336 29.2047 26.6435 28.954 26.6435 28.6445C26.6435 28.3351 26.4336 28.0843 26.1747 28.0843ZM22.4256 30.4377C22.4256 30.5222 22.3681 30.591 22.2973 30.591H5.62381C5.55306 30.591 5.4955 30.5222 5.4955 30.4377V29.2047H22.4256V30.4377Z" fill="#F9F9F9"/>
<path d="M5.41064 4.04373H11.8276H16.0933H26.5951C26.8093 4.04373 26.9835 4.25198 26.9835 4.50796V9.83455C26.9835 10.144 27.1934 10.3948 27.4523 10.3948C27.7111 10.3948 27.921 10.144 27.921 9.83455V4.50796C27.921 3.63418 27.3262 2.92331 26.5951 2.92331H16.5621V1.82215C16.5621 1.04719 16.0346 0.416687 15.3861 0.416687H12.535C11.8865 0.416687 11.3589 1.04719 11.3589 1.82215V2.92331H5.41064C5.15177 2.92331 4.94189 3.17406 4.94189 3.48352C4.94189 3.79298 5.15177 4.04373 5.41064 4.04373ZM12.2964 1.82215C12.2964 1.66499 12.4034 1.53711 12.535 1.53711H15.3861C15.5176 1.53711 15.6246 1.66499 15.6246 1.82215V2.92331H12.2965V1.82215H12.2964Z" fill="#F9F9F9"/>
<path d="M6.5564 19.9135C6.29752 19.9135 6.08765 20.1643 6.08765 20.4737V25.4239C6.08765 25.7334 6.29752 25.9841 6.5564 25.9841H8.45808C8.71695 25.9841 8.92683 25.7334 8.92683 25.4239V20.4737C8.92683 20.1643 8.71695 19.9135 8.45808 19.9135H6.5564ZM7.98933 24.8638H7.02514V21.034H7.98933V24.8638Z" fill="#F9F9F9"/>
<path d="M10.8585 17.0505C10.5996 17.0505 10.3898 17.3013 10.3898 17.6107V25.4239C10.3898 25.7334 10.5996 25.9841 10.8585 25.9841H12.7602C13.0191 25.9841 13.229 25.7334 13.229 25.4239V17.6107C13.229 17.3013 13.0191 17.0505 12.7602 17.0505H10.8585ZM12.2915 24.8637H11.3273V18.171H12.2915V24.8637Z" fill="#F9F9F9"/>
<path d="M15.1608 19.9135C14.9019 19.9135 14.692 20.1643 14.692 20.4737V25.4239C14.692 25.7334 14.9019 25.9841 15.1608 25.9841H17.0625C17.3213 25.9841 17.5312 25.7334 17.5312 25.4239V20.4737C17.5312 20.1643 17.3213 19.9135 17.0625 19.9135H15.1608ZM16.5937 24.8638H15.6295V21.034H16.5937V24.8638Z" fill="#F9F9F9"/>
<path d="M31.761 28.6112L29.0718 23.0444C29.7531 22.1765 30.2492 21.1161 30.5142 19.9341C30.9378 18.045 30.7204 16.0718 29.9021 14.378C28.213 10.8813 24.4586 9.67922 21.533 11.6979C18.6073 13.7165 17.6013 18.2035 19.2905 21.7001C20.1087 23.3938 21.4299 24.6054 23.0106 25.1117C23.5385 25.2807 24.074 25.3643 24.6062 25.3643C25.0713 25.3643 25.5338 25.3004 25.986 25.1738L28.6746 30.7407C29.0042 31.4232 29.6043 31.8051 30.2207 31.805C30.5228 31.805 30.8288 31.7132 31.1087 31.5202C31.6585 31.141 32 30.4339 32 29.6748C32 29.3029 31.9174 28.9352 31.761 28.6112ZM23.2532 24.0294C21.9144 23.6007 20.7953 22.5744 20.1023 21.1398C18.6716 18.1783 19.5237 14.378 22.0016 12.6681C22.8168 12.1057 23.7076 11.8386 24.5875 11.8386C26.3822 11.8386 28.1302 12.951 29.0902 14.9382C29.7832 16.3728 29.9673 18.044 29.6086 19.6442C29.2498 21.2443 28.3911 22.5815 27.1908 23.4098C25.9905 24.2381 24.5921 24.458 23.2532 24.0294ZM30.6401 30.5498C30.2368 30.8281 29.7193 30.6624 29.4866 30.1806L26.8999 24.8247C27.1591 24.6982 27.413 24.5504 27.6596 24.3802C27.9065 24.2099 28.1402 24.0203 28.3615 23.8151L30.949 29.1712C31.0233 29.3252 31.0625 29.4994 31.0625 29.6749C31.0625 30.0348 30.9006 30.3701 30.6401 30.5498Z" fill="#F9F9F9"/>
<path d="M28.8463 19.6173C29.1772 18.3433 29.0984 16.9794 28.6243 15.7768C28.514 15.4968 28.2347 15.3769 28.0005 15.5087C27.7663 15.6406 27.6659 15.9744 27.7763 16.2542C28.1502 17.2029 28.2123 18.2792 27.951 19.285C27.6882 20.2964 27.1206 21.1451 26.3527 21.675C25.54 22.2358 24.5932 22.3846 23.6869 22.0944C22.7805 21.8042 22.0229 21.1094 21.5538 20.1382C20.5852 18.1333 21.1621 15.5606 22.8397 14.403C24.0662 13.5568 25.5884 13.6699 26.7179 14.6911C26.9244 14.8778 27.2183 14.8292 27.3745 14.5824C27.5307 14.3357 27.49 13.9843 27.2835 13.7977C25.8528 12.5039 23.9244 12.3607 22.3709 13.4326C21.3414 14.143 20.6049 15.29 20.2972 16.6623C19.9895 18.0346 20.1475 19.468 20.7419 20.6984C21.3362 21.9288 22.296 22.8089 23.4442 23.1767C23.8277 23.2995 24.2168 23.3602 24.6034 23.3602C25.3745 23.3602 26.1357 23.1185 26.8214 22.6453C27.7943 21.9741 28.5134 20.8988 28.8463 19.6173Z" fill="#F9F9F9"/>
</svg>
