<svg xmlns="http://www.w3.org/2000/svg" xmlns:xlink="http://www.w3.org/1999/xlink" width="34" height="34" viewBox="0 0 34 34"><defs><path id="a" d="M62.67 277.67v13.39c0 .3-.2.56-.48.64a.66.66 0 0 1-.75-.28 8 8 0 1 0-11.02 11.02c.25.15.37.46.28.75a.67.67 0 0 1-.64.48H36.67A4.68 4.68 0 0 1 32 299v-21.33a4.67 4.67 0 0 1 4.67-4.67H58a4.68 4.68 0 0 1 4.67 4.67zm-1.34 0a3.34 3.34 0 0 0-3.33-3.34H36.67a3.35 3.35 0 0 0-3.34 3.34V299c0 1.84 1.5 3.33 3.34 3.33h11.47a9.35 9.35 0 1 1 13.19-13.19z"/><path id="b" d="M63.67 295.33a9.35 9.35 0 0 1-9.34 9.34 9.35 9.35 0 1 1 9.34-9.34zm-1.34 0a8 8 0 1 0-16 0 8 8 0 0 0 16 0z"/><path id="c" d="M44.67 281h-8c-.37 0-.67.3-.67.67 0 .36.3.66.67.66h8a.67.67 0 0 0 0-1.33z"/><path id="d" d="M40.67 277c-.37 0-.67.3-.67.67v8a.67.67 0 0 0 1.33 0v-8c0-.37-.3-.67-.66-.67z"/><path id="e" d="M58.33 281h-6.66c-.37 0-.67.3-.67.67 0 .36.3.66.67.66h6.66c.37 0 .67-.3.67-.66 0-.37-.3-.67-.67-.67z"/><path id="f" d="M43.8 298.86l-6.66-6.66a.66.66 0 1 0-.94.94l6.66 6.66a.65.65 0 0 0 .94 0 .66.66 0 0 0 0-.94z"/><path id="g" d="M43.8 292.2a.66.66 0 0 0-.94 0l-6.66 6.66a.66.66 0 0 0 0 .94c.13.13.3.2.47.2.17 0 .34-.07.47-.2l6.66-6.66a.66.66 0 0 0 0-.94z"/><path id="h" d="M58.33 293h-6.66c-.37 0-.67.3-.67.67 0 .36.3.66.67.66h6.66c.37 0 .67-.3.67-.66 0-.37-.3-.67-.67-.67z"/><path id="i" d="M58.33 297h-6.66c-.37 0-.67.3-.67.67 0 .36.3.66.67.66h6.66c.37 0 .67-.3.67-.66 0-.37-.3-.67-.67-.67z"/></defs><g transform="translate(-31 -272)"><use fill="#fff" xlink:href="#a"/><use fill="#fff" fill-opacity="0" stroke="#fff" stroke-miterlimit="50" stroke-width=".1" xlink:href="#a"/></g><g transform="translate(-31 -272)"><use fill="#fff" xlink:href="#b"/><use fill="#fff" fill-opacity="0" stroke="#fff" stroke-miterlimit="50" stroke-width=".1" xlink:href="#b"/></g><g transform="translate(-31 -272)"><use fill="#fff" xlink:href="#c"/><use fill="#fff" fill-opacity="0" stroke="#fff" stroke-miterlimit="50" stroke-width=".1" xlink:href="#c"/></g><g transform="translate(-31 -272)"><use fill="#fff" xlink:href="#d"/><use fill="#fff" fill-opacity="0" stroke="#fff" stroke-miterlimit="50" stroke-width=".1" xlink:href="#d"/></g><g transform="translate(-31 -272)"><use fill="#fff" xlink:href="#e"/><use fill="#fff" fill-opacity="0" stroke="#fff" stroke-miterlimit="50" stroke-width=".1" xlink:href="#e"/></g><g transform="translate(-31 -272)"><use fill="#fff" xlink:href="#f"/><use fill="#fff" fill-opacity="0" stroke="#fff" stroke-miterlimit="50" stroke-width=".1" xlink:href="#f"/></g><g transform="translate(-31 -272)"><use fill="#fff" xlink:href="#g"/><use fill="#fff" fill-opacity="0" stroke="#fff" stroke-miterlimit="50" stroke-width=".1" xlink:href="#g"/></g><g transform="translate(-31 -272)"><use fill="#fff" xlink:href="#h"/><use fill="#fff" fill-opacity="0" stroke="#fff" stroke-miterlimit="50" stroke-width=".1" xlink:href="#h"/></g><g transform="translate(-31 -272)"><use fill="#fff" xlink:href="#i"/><use fill="#fff" fill-opacity="0" stroke="#fff" stroke-miterlimit="50" stroke-width=".1" xlink:href="#i"/></g></svg>