<?xml version="1.0" encoding="utf-8"?>
<!-- Generator: Adobe Illustrator 23.0.0, SVG Export Plug-In . SVG Version: 6.00 Build 0)  -->
<svg version="1.1" id="Layer_1" xmlns="http://www.w3.org/2000/svg" xmlns:xlink="http://www.w3.org/1999/xlink" x="0px" y="0px"
	 viewBox="0 0 26 26" style="enable-background:new 0 0 26 26;" xml:space="preserve">
<style type="text/css">
	.st0{fill:none;}
	.st1{fill:#FFFFFF;}
</style>
<rect x="-3" y="-5" class="st0" width="32" height="36"/>
<g>
	<path class="st1" d="M8.7,5.7c0.4,0,0.8,0,1.2,0c0.1,0,0.3-0.1,0.4-0.2c0.7-0.6,1.4-1.3,2.1-1.9c0.6-0.5,0.6-0.5,1.2,0
		c0.7,0.6,1.4,1.3,2.1,1.9c0.1,0.1,0.3,0.2,0.5,0.2c1,0,2.1,0.1,3.1,0.1c0.2,0,0.3,0.1,0.3,0.3c0,1.1,0.1,2.2,0.1,3.3
		c0,0.2,0.1,0.3,0.2,0.5c0.6,0.6,1.3,1.3,1.9,2c0.5,0.5,0.5,0.7,0,1.2c-0.6,0.7-1.2,1.3-1.8,1.9c-0.2,0.2-0.3,0.4-0.2,0.6
		c0,0.7,0,1.5,0.1,2.2c0,0.2,0,0.5-0.1,0.7c-0.1,0.5-0.4,0.8-1.1,0.8c-0.9,0-1.8,0-2.7,0.1c-0.1,0-0.3,0.1-0.4,0.2
		c-0.8,0.7-1.5,1.4-2.3,2c-0.4,0.4-0.5,0.4-0.9,0c-0.7-0.6-1.4-1.3-2.1-2c-0.2-0.2-0.4-0.3-0.6-0.3c-0.9,0-1.8,0-2.7,0
		c-0.1,0-0.3,0-0.4-0.1c-0.3,0-0.4-0.2-0.4-0.4c0-0.7-0.1-1.5-0.1-2.2c0-0.4,0.1-0.9-0.1-1.3C6,15,5.5,14.7,5.3,14.4
		c-0.5-0.5-0.9-1-1.4-1.5c-0.3-0.4-0.3-0.5,0-0.9c0.6-0.7,1.3-1.4,2-2.1c0.2-0.2,0.3-0.4,0.3-0.7c0-0.9,0-1.7,0-2.6
		c0-0.1,0-0.3,0.1-0.4c0-0.2,0.2-0.4,0.4-0.4C7.4,5.8,8,5.7,8.7,5.7C8.7,5.7,8.7,5.7,8.7,5.7z M9.3,7.5C9.6,7.7,9.8,8,10,8.2
		c0.3,0.4,0.7,0.8,1,1.2c0.3,0.4,0.2,0.8-0.1,1.1c-0.3,0.3-0.6,0.3-1-0.1c-0.4-0.3-0.7-0.6-1.1-0.9C8.5,9.3,8.2,9.1,8,8.8
		c0,0-0.1,0-0.1,0C8,10,7.7,10.9,6.8,11.6c0.5,0,1,0,1.5,0c0.4,0,0.9,0,1.3,0.1c0.4,0.1,0.5,0.3,0.5,0.7c0,0.4-0.1,0.6-0.5,0.7
		c-0.2,0.1-0.5,0.1-0.7,0.1c-0.6,0-1.3,0-1.9,0.1c-0.1,0-0.2,0-0.3,0.1c0.3,0.5,0.7,0.8,0.9,1.3c0.2,0.5,0.2,1,0.3,1.6
		c0.2-0.1,0.3-0.2,0.4-0.4c0.3-0.3,0.6-0.6,1-0.9c0.3-0.2,0.6-0.5,1-0.7c0.3-0.1,0.5,0,0.7,0.2c0.2,0.2,0.3,0.4,0.2,0.7
		c-0.1,0.2-0.2,0.4-0.4,0.6c-0.4,0.5-0.9,0.9-1.3,1.4c-0.1,0.1-0.1,0.1-0.2,0.3c1,0,1.9,0.3,2.5,1c0.1,0.1,0.2,0.1,0.4,0.2
		c0-0.3,0.1-0.5,0.1-0.7c0-0.6,0-1.1,0.1-1.7c0-0.4,0.1-0.7,0.4-0.9c0.5-0.2,1,0,1.1,0.7c0.1,0.7,0.1,1.4,0.1,2.1c0,0.2,0,0.3,0,0.6
		c0.4-0.3,0.8-0.7,1.3-0.9c0.4-0.2,1-0.2,1.4-0.4c-0.3-0.3-0.7-0.7-1-1.1c-0.3-0.3-0.5-0.6-0.7-1c-0.3-0.6,0.1-1.1,0.7-1.1
		c0.3,0,0.5,0.2,0.8,0.3c0.5,0.4,0.9,0.8,1.3,1.2c0.2,0.1,0.3,0.3,0.4,0.5c0,0,0.1,0,0.1,0c-0.3-1.2,0.2-2.1,1.1-2.9
		c-0.2,0-0.3-0.1-0.4-0.1c-0.7,0-1.4,0-2.1-0.1c-0.3,0-0.6,0-0.8-0.4c-0.3-0.6,0-1.2,0.6-1.2c0.7-0.1,1.4-0.1,2.1-0.1
		c0.1,0,0.2,0,0.4,0c-0.3-0.4-0.7-0.8-0.8-1.3c-0.2-0.4-0.2-1-0.3-1.5c-0.5,0.4-0.9,0.8-1.3,1.2c-0.2,0.2-0.5,0.5-0.7,0.6
		c-0.4,0.3-1,0.1-1.1-0.4c-0.1-0.4,0-0.7,0.3-0.9c0.5-0.5,0.9-1,1.4-1.5c0.1-0.1,0.1-0.2,0.2-0.3c-0.5-0.1-1.1,0-1.5-0.2
		c-0.5-0.2-0.8-0.6-1.3-0.9c0,0.5,0,1,0,1.5c0,0.5-0.1,0.9-0.2,1.4c-0.1,0.3-0.4,0.5-0.7,0.4c-0.3,0-0.5-0.2-0.6-0.5
		c-0.1-0.2-0.1-0.4-0.1-0.6c0-0.6,0-1.2-0.1-1.8c0-0.1,0-0.3-0.1-0.5c-0.5,0.3-0.8,0.7-1.3,0.9C10.4,7.4,9.9,7.4,9.3,7.5z"/>
	<path class="st1" d="M19.4,4.9c0-0.6,0.6-1.2,1.2-1.2c0.6,0,1.3,0.6,1.3,1.2c0,0.6-0.7,1.3-1.3,1.3C20,6.2,19.4,5.5,19.4,4.9z"/>
	<path class="st1" d="M14.3,1.7C14.3,2.4,13.7,3,13,3c-0.6,0-1.2-0.6-1.2-1.2c0-0.6,0.7-1.3,1.4-1.3C13.8,0.6,14.3,1.1,14.3,1.7z"/>
	<path class="st1" d="M14.3,23.4c0,0.4-0.3,0.7-0.7,1c-0.5,0.3-0.8,0.3-1.2-0.1c-0.9-0.8-0.6-1.5,0.3-2.1c0.1-0.1,0.4-0.1,0.5-0.1
		C13.7,22.2,14.3,22.8,14.3,23.4z"/>
	<path class="st1" d="M1,12.5c0-0.6,0.5-1.2,1.2-1.2c0.7,0,1.3,0.6,1.3,1.2c0,0.6-0.6,1.2-1.2,1.2C1.6,13.7,1,13.1,1,12.5z"/>
	<path class="st1" d="M20.6,19c0.8,0,1.1,0.6,1.3,1.2c0,0,0,0.1,0,0.1c-0.1,0.5-0.8,1-1.3,1c-0.5,0-1.1-0.5-1.2-1.1
		C19.3,19.6,19.9,19,20.6,19z"/>
	<path class="st1" d="M25,12.5c0,0.8-0.4,1.2-1.2,1.2c-0.7,0-1.2-0.4-1.2-1.2c0-0.7,0.5-1.2,1.2-1.2C24.5,11.3,25,11.8,25,12.5z"/>
	<path class="st1" d="M5.4,3.8c0.7,0,1.2,0.5,1.2,1.1c0,0.7-0.6,1.3-1.2,1.3c-0.7,0-1.2-0.6-1.2-1.2C4.2,4.2,4.7,3.8,5.4,3.8z"/>
	<path class="st1" d="M5.3,19c0.7,0,1.3,0.6,1.3,1.2c0,0.6-0.6,1.2-1.3,1.2c-0.6,0-1.1-0.5-1.1-1.2C4.2,19.5,4.7,19,5.3,19z"/>
</g>
</svg>
