<svg xmlns="http://www.w3.org/2000/svg" xmlns:xlink="http://www.w3.org/1999/xlink" width="32" height="31" viewBox="0 0 32 31"><defs><path id="a" d="M62.55 191.21l-1.99-1.66a.7.7 0 0 0-.97.16.7.7 0 0 0 .15.97l1.99 1.65c.54.39.86 1.03.86 1.72v15.23c0 1.15-.88 2.09-1.97 2.09H35.35c-1.08 0-1.96-.94-1.96-2.09v-15.23c0-.69.32-1.33.86-1.72l2.85-2.07a.7.7 0 0 0 .15-.97.7.7 0 0 0-.97-.16l-2.85 2.08a3.5 3.5 0 0 0-1.43 2.84v15.23c0 1.92 1.5 3.48 3.35 3.48h25.27a3.43 3.43 0 0 0 3.36-3.48v-15.23c0-1.13-.54-2.19-1.43-2.84z"/><path id="b" d="M54.54 184.76l-1.91-1.39a7.13 7.13 0 0 0-8.41 0l-1.93 1.41a.7.7 0 0 0-.16.97.7.7 0 0 0 .57.29c.14 0 .28-.05.4-.14l1.94-1.4a5.73 5.73 0 0 1 6.78 0l1.91 1.39a.7.7 0 0 0 .97-.16.7.7 0 0 0-.16-.97z"/><path id="c" d="M61.3 194.31a.68.68 0 0 0-.96-.19l-9 5.99a5.62 5.62 0 0 1-6.26 0l-9-5.99a.68.68 0 0 0-.96.19.68.68 0 0 0 .19.96l9 6a7 7 0 0 0 7.8 0l9-6a.7.7 0 0 0 .19-.96z"/><path id="d" d="M59.94 185H37.7a.7.7 0 0 0-.7.7v10.42a.7.7 0 1 0 1.39 0v-9.73h20.86v8.73a.7.7 0 1 0 1.39 0v-9.42a.7.7 0 0 0-.7-.7z"/><path id="e" d="M48.57 191.79l-.14-.02c-2.02-.25-2.04-.68-2.04-.68 0-.18.74-.7 2.09-.7 1.3 0 2.06.49 2.09.69.04.39.39.65.77.61a.7.7 0 0 0 .61-.78c-.14-1.11-1.6-1.91-3.47-1.91-1.99 0-3.48.9-3.48 2.09 0 1.66 2.37 1.95 3.38 2.07l.15.02c2.01.25 2.03.68 2.03.69 0 .13-.67.69-2.09.69-1.3 0-2.06-.49-2.08-.69a.71.71 0 0 0-.78-.61.7.7 0 0 0-.6.78c.14 1.11 1.59 1.91 3.46 1.91 1.99 0 3.48-.89 3.48-2.08 0-1.67-2.36-1.96-3.38-2.08z"/><path id="f" d="M48.7 188c-.39 0-.7.29-.7.64v7.72c0 .35.31.64.7.64.38 0 .69-.29.69-.64v-7.72c0-.35-.31-.64-.69-.64z"/><path id="g" d="M52.51 199H43.7a.7.7 0 1 0 0 1.39h8.81a.7.7 0 1 0 0-1.39z"/></defs><g transform="translate(-32 -182)"><use fill="#fff" xlink:href="#a"/></g><g transform="translate(-32 -182)"><use fill="#fff" xlink:href="#b"/></g><g transform="translate(-32 -182)"><use fill="#fff" xlink:href="#c"/></g><g transform="translate(-32 -182)"><use fill="#fff" xlink:href="#d"/></g><g transform="translate(-32 -182)"><use fill="#fff" xlink:href="#e"/></g><g transform="translate(-32 -182)"><use fill="#fff" xlink:href="#f"/></g><g transform="translate(-32 -182)"><use fill="#fff" xlink:href="#g"/></g></svg>