<svg width="14" height="14" viewBox="0 0 14 14" fill="none" xmlns="http://www.w3.org/2000/svg">
<path d="M6.99195 1.55178e-05C10.8701 -0.00803044 14 3.1138 14 6.99195C14 10.854 10.854 14.008 6.99195 14C3.14599 14 0.00806152 10.8621 1.55578e-05 7.01609C-0.0080304 3.12989 3.10576 0.00806148 6.99195 1.55178e-05ZM6.18736 2.54254C6.03448 2.59886 5.91379 2.63104 5.8092 2.67932C4.85977 3.07357 4.20805 3.74139 4.13564 4.79541C4.05518 5.85747 4.48966 6.71035 5.43104 7.24138C5.8092 7.45862 6.24368 7.57931 6.65402 7.74023C7.04023 7.8931 7.45057 7.9977 7.8046 8.20689C8.41609 8.56092 8.39195 9.32528 7.78046 9.67126C7.23333 9.97701 6.66207 9.96091 6.14713 9.60689C5.97012 9.4862 5.84138 9.23678 5.78506 9.02758C5.64828 8.47241 5.3023 8.15057 4.81955 8.22299C4.32874 8.2954 4.04713 8.74597 4.13564 9.31724C4.29656 10.3149 4.9 10.9506 5.82529 11.2885C6.11494 11.3931 6.2115 11.5218 6.20345 11.8356C6.18736 12.3506 6.56552 12.7448 7.01609 12.7529C7.48276 12.7529 7.83678 12.3827 7.82069 11.8517C7.81264 11.5379 7.91724 11.4172 8.19885 11.3126C9.47011 10.8379 10.1057 9.68735 9.81608 8.40804C9.57471 7.32988 8.82643 6.73448 7.82873 6.38851C7.36207 6.22759 6.87931 6.09081 6.42874 5.90575C5.91379 5.69655 5.74483 5.41495 5.77701 4.96437C5.8092 4.59426 6.14713 4.26437 6.61379 4.15173C7.37816 3.97472 8.11839 4.33679 8.23103 4.94023C8.34367 5.54368 8.6977 5.84138 9.21264 5.75288C9.70344 5.67242 9.96896 5.22989 9.87241 4.65058C9.71953 3.73334 9.18045 3.1138 8.35172 2.77587C7.96551 2.60691 7.77241 2.45403 7.8046 2.01151C7.83678 1.60116 7.42644 1.24714 7.03218 1.23105C6.64598 1.21496 6.22759 1.59312 6.18736 2.00346C6.17931 2.17242 6.18736 2.34944 6.18736 2.54254Z" fill="#464A4B"/>
</svg>
