<svg width="15" height="18" viewBox="0 0 15 18" fill="#F3B753" xmlns="http://www.w3.org/2000/svg">
<path d="M12.2347 5.06125L12.7519 4.54409C13.0285 4.26745 13.0285 3.81895 12.7519 3.54227C12.4753 3.26552 12.0267 3.26548 11.75 3.54218L11.162 4.13018C10.1671 3.42514 9.00611 2.99062 7.7928 2.86917V1.41687H8.50124C8.8925 1.41687 9.20968 1.0997 9.20968 0.708436C9.20968 0.317178 8.8925 0 8.50124 0H5.66749C5.27624 0 4.95906 0.317178 4.95906 0.708436C4.95906 1.0997 5.27624 1.41687 5.66749 1.41687H6.37593V2.86917C5.16262 2.99062 4.00166 3.42514 3.00678 4.13018L2.41878 3.54218C2.14208 3.26548 1.69344 3.26552 1.41679 3.54227C1.1402 3.81895 1.14024 4.26745 1.41688 4.54409L1.93404 5.06125C0.983772 6.06737 0.349008 7.32979 0.108134 8.6926C-0.13274 10.0554 0.0308236 11.4589 0.578627 12.7298C1.12643 14.0007 2.03448 15.0834 3.19064 15.844C4.3468 16.6047 5.70043 17.01 7.08437 17.01C8.4683 17.01 9.82194 16.6047 10.9781 15.844C12.1343 15.0834 13.0423 14.0007 13.5901 12.7298C14.1379 11.4589 14.3015 10.0554 14.0606 8.6926C13.8197 7.32979 13.185 6.06737 12.2347 5.06125ZM7.08437 15.5856C5.96344 15.5856 4.86769 15.2532 3.93568 14.6305C3.00366 14.0077 2.27725 13.1226 1.84829 12.087C1.41933 11.0514 1.30709 9.91182 1.52578 8.81244C1.74446 7.71305 2.28423 6.7032 3.07685 5.91059C3.86946 5.11798 4.87931 4.5782 5.9787 4.35952C7.07808 4.14084 8.21762 4.25307 9.25322 4.68203C10.2888 5.11099 11.174 5.83741 11.7967 6.76942C12.4195 7.70143 12.7519 8.79719 12.7519 9.91811C12.7502 11.4207 12.1525 12.8613 11.09 13.9238C10.0275 14.9863 8.58696 15.5839 7.08437 15.5856Z" fill="#F3B753"/>
<path d="M7.58322 5.69685C7.30899 5.66444 7.08436 5.89134 7.08436 6.16748V9.9181H3.33374C3.0576 9.9181 2.8307 10.1427 2.86311 10.417C2.94159 11.081 3.17599 11.7197 3.5501 12.2796C4.01716 12.9786 4.68102 13.5234 5.45772 13.8452C6.23442 14.1669 7.08907 14.2511 7.91361 14.087C8.73815 13.923 9.49554 13.5182 10.09 12.9237C10.6845 12.3293 11.0893 11.5719 11.2533 10.7474C11.4173 9.92281 11.3331 9.06816 11.0114 8.29146C10.6897 7.51476 10.1449 6.8509 9.44588 6.38384C8.88598 6.00973 8.24729 5.77533 7.58322 5.69685Z" fill="#F3B753"/>
</svg>
