<svg xmlns="http://www.w3.org/2000/svg" xmlns:xlink="http://www.w3.org/1999/xlink" width="18" height="12" viewBox="0 0 18 12"><defs><path id="b2tda" d="M270.57 224.9c.19-.08.35-.19.5-.32l4.5-4.3c.58-.55.58-1.45 0-2.01a1.55 1.55 0 0 0-2.13 0l-1.94 1.85v-11.69c0-.79-.67-1.43-1.5-1.43s-1.5.64-1.5 1.43v11.69l-1.94-1.85a1.55 1.55 0 0 0-2.12 0 1.39 1.39 0 0 0 0 2.02l4.5 4.3a1.57 1.57 0 0 0 1.63.31z"/></defs><g><g transform="translate(-261 -210)"><use fill="#fff" xlink:href="#b2tda"/><use fill="#fff" fill-opacity="0" stroke="#55ab7f" stroke-linecap="round" stroke-miterlimit="50" xlink:href="#b2tda"/></g></g></svg>