<svg xmlns="http://www.w3.org/2000/svg" xmlns:xlink="http://www.w3.org/1999/xlink" width="26" height="25" viewBox="0 0 26 25"><defs><path id="s8wta" d="M156 193.6v22.07c0 .34-.21.6-.48.6h-23.04c-.27 0-.48-.26-.48-.6V193.6c0-.33.21-.6.48-.6h23.04c.27 0 .48.27.48.6zm-18.24 18.25h-4.8v3.23h4.8zm0-4.41h-4.8v3.22h4.8zm0-4.42h-4.8v3.22h4.8zm0-4.41h-4.8v3.21h4.8zm5.76 13.24h-4.8v3.23h4.8zm0-4.41h-4.8v3.22h4.8zm0-4.42h-4.8v3.22h4.8zm0-4.41h-4.8v3.21h4.8zm5.76 13.24h-4.8v3.23h4.8zm0-4.41h-4.8v3.22h4.8zm0-4.42h-4.8v3.22h4.8zm0-4.41h-4.8v3.21h4.8zm5.76 13.24h-4.8v3.23h4.8zm0-4.41h-4.8v3.22h4.8zm0-4.42h-4.8v3.22h4.8zm0-4.41h-4.8v3.21h4.8zm0-4.41h-22.08v3.2h22.08z"/><path id="s8wtb" d="M142.48 195.93h9.18c.26 0 .48-.21.48-.47a.48.48 0 0 0-.48-.46h-9.18a.47.47 0 0 0-.48.46c0 .26.21.47.48.47z"/><path id="s8wtc" d="M152.48 195.93h1.05c.26 0 .48-.21.48-.47a.48.48 0 0 0-.48-.46h-1.05a.47.47 0 0 0-.48.46c0 .26.21.47.48.47z"/></defs><g><g transform="translate(-131 -192)"><use fill="#505050" xlink:href="#s8wta"/><use fill="#fff" fill-opacity="0" stroke="#505050" stroke-miterlimit="50" stroke-width=".2" xlink:href="#s8wta"/></g><g transform="translate(-131 -192)"><use fill="#505050" xlink:href="#s8wtb"/><use fill="#fff" fill-opacity="0" stroke="#505050" stroke-miterlimit="50" stroke-width=".2" xlink:href="#s8wtb"/></g><g transform="translate(-131 -192)"><use fill="#505050" xlink:href="#s8wtc"/><use fill="#fff" fill-opacity="0" stroke="#505050" stroke-miterlimit="50" stroke-width=".2" xlink:href="#s8wtc"/></g></g></svg>