<svg width="33" height="32" viewBox="0 0 33 32" fill="none" xmlns="http://www.w3.org/2000/svg">
<path fill-rule="evenodd" clip-rule="evenodd" d="M11.6332 19.2446H27.8561C28.2864 19.2446 28.699 19.4155 29.0032 19.7197C29.3075 20.0239 29.4784 20.4366 29.4784 20.8668C29.4784 21.2971 29.3075 21.7097 29.0032 22.014C28.699 22.3182 28.2864 22.4891 27.8561 22.4891H11.6332C11.203 22.4891 10.7903 22.3182 10.4861 22.014C10.1819 21.7097 10.0109 21.2971 10.0109 20.8668C10.0109 20.4366 10.1819 20.0239 10.4861 19.7197C10.7903 19.4155 11.203 19.2446 11.6332 19.2446ZM11.6332 25.7337H27.8561C28.2864 25.7337 28.699 25.9046 29.0032 26.2089C29.3075 26.5131 29.4784 26.9257 29.4784 27.356C29.4784 27.7863 29.3075 28.1989 29.0032 28.5031C28.699 28.8074 28.2864 28.9783 27.8561 28.9783H11.6332C11.203 28.9783 10.7903 28.8074 10.4861 28.5031C10.1819 28.1989 10.0109 27.7863 10.0109 27.356C10.0109 26.9257 10.1819 26.5131 10.4861 26.2089C10.7903 25.9046 11.203 25.7337 11.6332 25.7337ZM21.367 12.7554H27.8561C28.2864 12.7554 28.699 12.9263 29.0032 13.2306C29.3075 13.5348 29.4784 13.9474 29.4784 14.3777C29.4784 14.8079 29.3075 15.2206 29.0032 15.5248C28.699 15.8291 28.2864 16 27.8561 16H21.367C20.9367 16 20.5241 15.8291 20.2198 15.5248C19.9156 15.2206 19.7447 14.8079 19.7447 14.3777C19.7447 13.9474 19.9156 13.5348 20.2198 13.2306C20.5241 12.9263 20.9367 12.7554 21.367 12.7554ZM9.59402 15.8605L3.52179 9.78986L5.81571 7.49432L9.59402 11.2726L17.8434 3.02167L20.1389 5.31558L9.59402 15.8605Z" fill="white"/>
</svg>
