<svg width="17" height="20" viewBox="0 0 17 20" fill="#4E9CDF" xmlns="http://www.w3.org/2000/svg">
<path d="M14.3853 5.95091L15.5823 4.75394L14.4045 3.57571L13.124 4.85618C11.9542 4.02721 10.5892 3.5163 9.16261 3.37351V1.66593H10.8285V0H5.83076V1.66593H7.49669V3.37351C6.0701 3.5163 4.70507 4.02721 3.53531 4.85618L2.25484 3.57571L1.07703 4.75394L2.274 5.95091C1.1567 7.13388 0.410357 8.61821 0.127142 10.2206C-0.156073 11.8229 0.0362418 13.4732 0.680338 14.9675C1.32443 16.4618 2.3921 17.7347 3.75149 18.629C5.11088 19.5234 6.70245 20 8.32965 20C9.95685 20 11.5484 19.5234 12.9078 18.629C14.2672 17.7347 15.3349 16.4618 15.979 14.9675C16.6231 13.4732 16.8154 11.8229 16.5322 10.2206C16.2489 8.61821 15.5026 7.13388 14.3853 5.95091ZM8.32965 18.3252C7.01169 18.3252 5.72333 17.9344 4.62749 17.2022C3.53164 16.47 2.67754 15.4292 2.17318 14.2116C1.66882 12.994 1.53685 11.6541 1.79398 10.3615C2.0511 9.06884 2.68575 7.88148 3.61769 6.94954C4.54963 6.01761 5.73699 5.38295 7.02962 5.12583C8.32226 4.86871 9.66211 5.00067 10.8797 5.50503C12.0974 6.00939 13.1381 6.8635 13.8703 7.95934C14.6025 9.05518 14.9934 10.3435 14.9934 11.6615C14.9914 13.4282 14.2887 15.122 13.0394 16.3713C11.7902 17.6205 10.0964 18.3232 8.32965 18.3252Z" fill="#4E9CDF"/>
<path d="M8.32964 6.66382V11.6616H3.33185C3.33185 12.6501 3.62496 13.6163 4.17413 14.4382C4.72329 15.2601 5.50384 15.9007 6.41707 16.279C7.33029 16.6572 8.33518 16.7562 9.30466 16.5634C10.2741 16.3705 11.1647 15.8945 11.8636 15.1956C12.5626 14.4966 13.0386 13.6061 13.2314 12.6366C13.4242 11.6672 13.3253 10.6623 12.947 9.74904C12.5687 8.83581 11.9281 8.05526 11.1063 7.5061C10.2844 6.95693 9.3181 6.66382 8.32964 6.66382Z" fill="#4E9CDF"/>
</svg>
