<svg width="18" height="18" viewBox="0 0 18 18" fill="none" xmlns="http://www.w3.org/2000/svg">
<path d="M5.22 1.62H5.04C5.139 1.62 5.22 1.539 5.22 1.44V1.62H12.06V1.44C12.06 1.539 12.141 1.62 12.24 1.62H12.06V3.24H13.68V1.44C13.68 0.64575 13.0342 0 12.24 0H5.04C4.24575 0 3.6 0.64575 3.6 1.44V3.24H5.22V1.62ZM16.56 3.24H0.72C0.32175 3.24 0 3.56175 0 3.96V4.68C0 4.779 0.081 4.86 0.18 4.86H1.539L2.09475 16.6275C2.13075 17.3948 2.76525 18 3.5325 18H13.7475C14.517 18 15.1492 17.397 15.1852 16.6275L15.741 4.86H17.1C17.199 4.86 17.28 4.779 17.28 4.68V3.96C17.28 3.56175 16.9582 3.24 16.56 3.24ZM13.5742 16.38H3.70575L3.16125 4.86H14.1187L13.5742 16.38Z" fill="#FF716A"/>
</svg>
